<?xml version="1.0" encoding="UTF-8" standalone="no"?><!DOCTYPE svg PUBLIC "-//W3C//DTD SVG 1.1//EN" "http://www.w3.org/Graphics/SVG/1.1/DTD/svg11.dtd"><svg width="100%" height="100%" viewBox="0 0 330 330" version="1.1" xmlns="http://www.w3.org/2000/svg" xmlns:xlink="http://www.w3.org/1999/xlink" xml:space="preserve" xmlns:serif="http://www.serif.com/" style="fill-rule:evenodd;clip-rule:evenodd;stroke-miterlimit:10;"><g id="surface1_2_"><path d="M124,235.8l-23.8,-41.3c3.6,-5.4 5.6,-11.8 5.6,-18.3c0,-0.9 -0.1,-1.9 -0.1,-2.9l71,-41c1.7,0.5 3.5,0.8 5.3,0.8c5.1,0 10,-2 13.8,-5.5c0,0 2.9,-2 4.5,-6.8c2.5,-7.4 0.9,-12.3 0.9,-12.3c-0.8,-3.3 -2.4,-6.3 -4.7,-8.8l3.3,-12.2l12.8,3.4c1.8,0.5 3.6,-0.6 4.1,-2.3l3.4,-12.8c0.5,-1.8 -0.6,-3.6 -2.3,-4.1l-22.4,-6c-5.3,-1.4 -10.7,1.7 -12.2,7l-5.9,21.3c-7.7,1.8 -13.6,8.1 -14.9,15.9l-69.5,40.1c-14.4,-11.2 -35.2,-8.6 -46.4,5.8c-11.2,14.4 -8.6,35.2 5.8,46.4c5.2,4.1 11.5,6.5 18.1,6.9l15.4,26.6l-46.3,0l0,26.5l198.7,0l0,-26.5l-114.2,0l0,0.1Zm65.4,-161.3c0.5,-1.8 2.3,-2.8 4,-2.3l19.2,5.1l-1.7,6.4l-12.8,-3.5c-1.8,-0.5 -3.6,0.6 -4.1,2.3l-3.4,12.8c-0.3,-0.2 -0.7,-0.2 -1,-0.4c-0.5,-0.2 -1,-0.4 -1.5,-0.6c-0.6,-0.2 -1.2,-0.3 -1.8,-0.5c-0.5,-0.1 -1,-0.2 -1.5,-0.3c-0.2,0 -0.4,-0.1 -0.6,-0.1l5.2,-18.9Zm-8.9,25.6c0.6,-0.1 1.2,-0.1 1.8,-0.1c0.6,0 1.2,0.1 1.8,0.2c0.2,0 0.3,0.1 0.5,0.1c0.6,0.1 1.2,0.3 1.8,0.5c0.3,0.1 0.6,0.3 1,0.4c0.4,0.2 0.8,0.4 1.2,0.6c0.7,0.4 1.4,0.9 2,1.4c2.5,2.2 4.2,5.3 4.5,8.6c0.1,0.5 0.1,1 0.1,1.5c0,7.3 -5.9,13.2 -13.2,13.2c-1.6,0 -3.2,-0.3 -4.7,-0.9c-5.2,-1.9 -8.6,-6.9 -8.6,-12.4l0,-0.6l0,-0.2l0.4,-2.5c1.4,-5.3 5.9,-9.2 11.4,-9.8Zm-18,17.4c0.1,0.3 0.2,0.5 0.2,0.8c0.2,0.6 0.3,1.2 0.6,1.8c0.1,0.4 0.3,0.8 0.5,1.2c0.3,0.6 0.6,1.2 0.9,1.7c0.2,0.4 0.4,0.7 0.6,1.1c0.4,0.6 0.8,1.1 1.2,1.7c0.2,0.3 0.4,0.6 0.7,0.8l2.2,2.2l-65.2,37.7c0,-0.1 -0.1,-0.3 -0.1,-0.4c-0.2,-0.7 -0.5,-1.4 -0.8,-2.1c-0.1,-0.3 -0.2,-0.6 -0.3,-0.8c-0.4,-1 -0.9,-1.9 -1.3,-2.8c-0.1,-0.2 -0.2,-0.3 -0.3,-0.5c-0.4,-0.7 -0.9,-1.5 -1.4,-2.2c-0.2,-0.3 -0.4,-0.6 -0.6,-0.9c-0.4,-0.6 -0.8,-1.1 -1.3,-1.7c-0.1,-0.1 -0.2,-0.3 -0.3,-0.4l64.7,-37.2Zm-116.4,58.7c0,-14.6 11.9,-26.5 26.5,-26.5c6.6,0 12.9,2.4 17.7,6.8c4.5,4.1 7.5,9.5 8.4,15.5c0.2,1.4 0.3,2.7 0.3,4.1c0,14.7 -12,26.5 -26.6,26.5l-0.1,0c-14.5,-0.1 -26.1,-11.9 -26.2,-26.4Zm31.7,32.7c0.7,-0.1 1.4,-0.3 2.1,-0.4l0.3,-0.1c1.1,-0.3 2.1,-0.6 3.2,-0.9c0.3,-0.1 0.5,-0.2 0.8,-0.3c0.9,-0.3 1.9,-0.7 2.8,-1.2c0.1,-0.1 0.2,-0.1 0.3,-0.2c1,-0.5 1.9,-1 2.9,-1.6c0.2,-0.2 0.5,-0.3 0.7,-0.5c0.8,-0.5 1.6,-1.1 2.4,-1.7c0.1,-0.1 0.3,-0.2 0.4,-0.3c0.7,-0.6 1.4,-1.2 2,-1.8l20.7,35.8l-23,0l-15.6,-26.8Zm153.8,46.7l-185.5,0l0,-13.2l185.4,0l0,13.2l0.1,0Z" style="fill-rule:nonzero;"/><path d="M72.6,196c11,0 19.8,-8.9 19.9,-19.9c0,-1 -0.1,-2.1 -0.3,-3.1c-1.7,-10.8 -11.9,-18.2 -22.7,-16.5c-10.8,1.7 -18.2,11.9 -16.5,22.7c1.5,9.5 9.7,16.6 19.3,16.7l0.3,0l0,0.1Zm-13.2,-19.8c0,-7.3 5.9,-13.2 13.2,-13.2c3.3,0 6.4,1.2 8.9,3.4c2.2,2 3.7,4.7 4.2,7.7c0.1,0.7 0.2,1.4 0.2,2.1c0,7.3 -5.9,13.2 -13.2,13.2l-0.2,0c-7.4,-0.1 -13.1,-6 -13.1,-13.2Z" style="fill-rule:nonzero;"/><path d="M194.9,127.7l12.3,0c2.5,0 6.7,0.9 8.8,-0.8c2.7,-2.2 4.7,-7 6.6,-9.9c2.2,-3.3 4.4,-6.6 6.6,-9.9c1.1,-1.6 -1.5,-3.1 -2.6,-1.5c-1.8,2.8 -3.7,5.5 -5.5,8.3c-1.4,2.1 -2.9,4.3 -4.3,6.4c-0.8,1.3 -2.7,3.1 -3.1,4.6c-0.3,1.2 0.1,-0.3 0.8,-0.2c-0.5,-0.1 -1.1,0 -1.6,0c-2.2,-0.2 -4.5,0 -6.6,0l-11.3,0c-2,0 -2,3 -0.1,3Z" style="fill-rule:nonzero;"/><path d="M198.9,106.7c2.1,-1.3 4.2,-2.5 6.3,-3.8c0.9,-0.5 1.9,-1.4 2.8,-1.7c-0.8,0.3 0.2,0.1 1.1,0.2c5,0.7 10.1,0.8 15.1,1.2c1.9,0.2 1.9,-2.8 0,-3c-5.1,-0.4 -10.7,-1.5 -15.8,-1.3c-3.8,0.2 -7.7,3.8 -10.9,5.8c-1.8,1 -0.3,3.6 1.4,2.6Z" style="fill-rule:nonzero;"/></g><path d="M226.7,106.2l-57.7,100l115.4,0l-57.7,-100Z" style="fill:none;fill-rule:nonzero;stroke:url(#_Linear1);stroke-width:7px;"/><rect x="166.6" y="157.9" width="137.4" height="76" style="fill:none;"/><path d="M183.839,177.918c0,2.181 -0.33,4.189 -0.991,6.023c-0.661,1.834 -1.57,3.42 -2.726,4.758c-1.157,1.339 -2.52,2.379 -4.09,3.123c-1.569,0.744 -3.28,1.115 -5.13,1.115c-1.851,0 -3.569,-0.371 -5.155,-1.115c-1.586,-0.744 -2.958,-1.784 -4.114,-3.123c-1.157,-1.338 -2.057,-2.924 -2.702,-4.758c-0.644,-1.834 -0.966,-3.842 -0.966,-6.023c0,-2.181 0.322,-4.188 0.966,-6.022c0.645,-1.834 1.545,-3.421 2.702,-4.759c1.156,-1.338 2.528,-2.387 4.114,-3.147c1.586,-0.76 3.304,-1.141 5.155,-1.141c1.85,0 3.561,0.381 5.13,1.141c1.57,0.76 2.933,1.809 4.09,3.147c1.156,1.338 2.065,2.925 2.726,4.759c0.661,1.834 0.991,3.841 0.991,6.022Zm-7.98,0c0,-2.313 -0.463,-4.188 -1.388,-5.626c-0.925,-1.437 -2.115,-2.156 -3.569,-2.156c-1.52,0 -2.735,0.719 -3.643,2.156c-0.909,1.438 -1.363,3.313 -1.363,5.626c0,2.313 0.454,4.18 1.363,5.601c0.908,1.421 2.123,2.132 3.643,2.132c1.454,0 2.644,-0.711 3.569,-2.132c0.925,-1.421 1.388,-3.288 1.388,-5.601Z" style="fill:#acd9b8;fill-rule:nonzero;"/><path d="M189.688,199.133l1.537,-6.791l-2.429,0l0,-7.98l6.692,0l0,7.98l-2.33,6.791l-3.47,0Z" style="fill:#acd9b8;fill-rule:nonzero;"/><path d="M212.737,176.481c1.686,0 3.239,0.281 4.66,0.842c1.421,0.562 2.652,1.339 3.693,2.33c1.04,0.991 1.85,2.181 2.428,3.569c0.579,1.388 0.868,2.924 0.868,4.61c0,1.784 -0.331,3.412 -0.992,4.882c-0.66,1.471 -1.577,2.735 -2.751,3.792c-1.173,1.058 -2.569,1.875 -4.188,2.454c-1.619,0.578 -3.404,0.867 -5.353,0.867c-2.578,0 -4.891,-0.512 -6.94,-1.536c-2.049,-1.025 -3.602,-2.462 -4.659,-4.313l4.411,-4.907c0.959,1.157 2.074,2.082 3.346,2.776c1.272,0.694 2.569,1.041 3.891,1.041c1.553,0 2.792,-0.446 3.718,-1.339c0.925,-0.892 1.388,-2.081 1.388,-3.569c0,-1.42 -0.43,-2.561 -1.289,-3.42c-0.859,-0.859 -1.983,-1.288 -3.371,-1.288c-0.892,0 -1.718,0.198 -2.478,0.594c-0.76,0.397 -1.372,0.959 -1.834,1.686l-6.89,0c0,-0.033 0.066,-0.372 0.198,-1.017c0.132,-0.644 0.289,-1.478 0.471,-2.503c0.182,-1.024 0.397,-2.172 0.644,-3.445c0.248,-1.272 0.504,-2.569 0.769,-3.891c0.595,-3.106 1.272,-6.625 2.032,-10.558l17.498,0l0,7.237l-11.748,0l-0.991,5.998c0.198,-0.231 0.586,-0.438 1.164,-0.62c0.579,-0.181 1.347,-0.272 2.305,-0.272Z" style="fill:#acd9b8;fill-rule:nonzero;"/><path d="M257.596,192.442l-6.79,-10.459l-2.776,2.875l0,7.584l-7.931,0l0,-36.185l7.931,0l0,20.967l8.773,-10.806l8.427,0l-9.369,11.203l10.162,14.821l-8.427,0Z" style="fill:#acd9b8;fill-rule:nonzero;"/><path d="M277.126,192.541c-1.718,0 -3.288,-0.347 -4.709,-1.041c-1.421,-0.694 -2.635,-1.636 -3.643,-2.826c-1.008,-1.189 -1.793,-2.577 -2.355,-4.163c-0.561,-1.586 -0.842,-3.288 -0.842,-5.106c0,-1.916 0.297,-3.693 0.892,-5.328c0.595,-1.636 1.421,-3.057 2.478,-4.263c1.058,-1.206 2.33,-2.156 3.817,-2.85c1.487,-0.694 3.123,-1.041 4.907,-1.041c1.983,0 3.71,0.421 5.18,1.264c1.471,0.842 2.652,2.007 3.544,3.494l0,-4.263l6.89,0l0,24.239c0,1.983 -0.371,3.767 -1.115,5.353c-0.743,1.587 -1.776,2.933 -3.098,4.04c-1.322,1.107 -2.908,1.958 -4.758,2.553c-1.851,0.595 -3.883,0.892 -6.097,0.892c-2.809,0 -5.205,-0.446 -7.188,-1.338c-1.982,-0.892 -3.717,-2.181 -5.204,-3.866l4.262,-4.313c0.959,1.091 2.148,1.958 3.569,2.603c1.421,0.644 2.941,0.966 4.561,0.966c0.958,0 1.867,-0.132 2.726,-0.396c0.859,-0.265 1.619,-0.67 2.28,-1.215c0.661,-0.545 1.181,-1.256 1.561,-2.131c0.38,-0.876 0.57,-1.925 0.57,-3.148l0,-2.528c-0.793,1.454 -1.933,2.553 -3.42,3.296c-1.487,0.744 -3.089,1.116 -4.808,1.116Zm2.726,-6.295c1.223,0 2.314,-0.339 3.272,-1.017c0.958,-0.677 1.702,-1.544 2.23,-2.602l0,-5.452c-0.528,-1.388 -1.338,-2.487 -2.428,-3.297c-1.091,-0.809 -2.247,-1.214 -3.47,-1.214c-0.859,0 -1.644,0.19 -2.355,0.57c-0.71,0.38 -1.321,0.892 -1.834,1.537c-0.512,0.644 -0.908,1.388 -1.189,2.23c-0.281,0.843 -0.422,1.71 -0.422,2.602c0,0.959 0.157,1.843 0.471,2.652c0.314,0.81 0.752,1.512 1.314,2.107c0.562,0.595 1.214,1.057 1.958,1.388c0.743,0.33 1.561,0.496 2.453,0.496Z" style="fill:#acd9b8;fill-rule:nonzero;"/><path d="M284.3,313l-234.6,0c-17.5,0 -31.7,-14.2 -31.7,-31.7l0,-234.6c0,-17.5 14.2,-31.7 31.7,-31.7l234.6,0c17.5,0 31.7,14.2 31.7,31.7l0,234.6c0,17.5 -14.2,31.7 -31.7,31.7Z" style="fill:none;fill-rule:nonzero;stroke:#000;stroke-width:10px;"/><defs><linearGradient id="_Linear1" x1="0" y1="0" x2="1" y2="0" gradientUnits="userSpaceOnUse" gradientTransform="matrix(6.76601e-15,110.497,-110.497,6.76601e-15,226.689,99.2379)"><stop offset="0" style="stop-color:#fff;stop-opacity:1"/><stop offset="0.48" style="stop-color:#fbfcfb;stop-opacity:0.96"/><stop offset="0.78" style="stop-color:#d1e9d6;stop-opacity:0"/><stop offset="1" style="stop-color:#acd9b8;stop-opacity:1"/></linearGradient></defs></svg>