<?xml version="1.0" encoding="UTF-8" standalone="no"?><!DOCTYPE svg PUBLIC "-//W3C//DTD SVG 1.1//EN" "http://www.w3.org/Graphics/SVG/1.1/DTD/svg11.dtd"><svg width="100%" height="100%" viewBox="0 0 440 230" version="1.1" xmlns="http://www.w3.org/2000/svg" xmlns:xlink="http://www.w3.org/1999/xlink" xml:space="preserve" xmlns:serif="http://www.serif.com/" style="fill-rule:evenodd;clip-rule:evenodd;stroke-miterlimit:10;"><g><circle cx="337.5" cy="111.2" r="89.5" style="fill:none;stroke:#000;stroke-width:10px;"/><path d="M376.401,65.353c7.87,-3.21 16.933,0.739 20.227,8.813c3.294,8.074 -0.422,17.235 -8.291,20.446c-7.87,3.21 -16.933,-0.739 -20.227,-8.813c-3.293,-8.074 0.422,-17.236 8.291,-20.446Z" style="fill:none;stroke:#000;stroke-width:5px;"/><path d="M378.539,117.774c7.87,-3.21 16.933,0.739 20.226,8.813c3.294,8.074 -0.421,17.236 -8.291,20.446c-7.869,3.21 -16.933,-0.739 -20.226,-8.813c-3.294,-8.074 0.421,-17.235 8.291,-20.446Z" style="fill:none;stroke:#000;stroke-width:5px;"/><path d="M335.131,145.065c7.87,-3.21 16.933,0.738 20.226,8.812c3.294,8.075 -0.421,17.236 -8.291,20.446c-7.869,3.211 -16.933,-0.738 -20.226,-8.812c-3.294,-8.074 0.421,-17.236 8.291,-20.446Z" style="fill:none;stroke:#000;stroke-width:5px;"/><path d="M289.531,120.064c7.869,-3.21 16.933,0.739 20.226,8.813c3.294,8.074 -0.421,17.236 -8.291,20.446c-7.87,3.21 -16.933,-0.739 -20.227,-8.813c-3.293,-8.074 0.422,-17.235 8.292,-20.446Z" style="fill:none;stroke:#000;stroke-width:5px;"/><path d="M287.338,67.774c7.87,-3.211 16.933,0.738 20.227,8.812c3.294,8.074 -0.422,17.236 -8.291,20.446c-7.87,3.21 -16.933,-0.739 -20.227,-8.813c-3.293,-8.074 0.422,-17.235 8.291,-20.445Z" style="fill:none;stroke:#000;stroke-width:5px;"/><path d="M330.801,40.353c7.87,-3.211 16.933,0.738 20.227,8.812c3.294,8.074 -0.422,17.236 -8.291,20.446c-7.87,3.21 -16.933,-0.738 -20.227,-8.812c-3.293,-8.075 0.422,-17.236 8.291,-20.446Z" style="fill:none;stroke:#000;stroke-width:5px;"/></g><path d="M134.759,125.421l-45.964,-26.587l-3.855,6.665l45.963,26.587l3.856,-6.665Z" style="stroke:#000;stroke-width:3px;"/><path d="M137.7,31.2l32.6,18.9c0,0 16.6,-28.6 -0.1,-38.2c-18,-10.5 -32.5,19.3 -32.5,19.3Z" style="fill:none;fill-rule:nonzero;stroke:#000;stroke-width:7px;"/><path d="M130.685,38.745l-39.255,67.863l35.922,20.779l39.255,-67.863l-35.922,-20.779Z" style="fill:none;stroke:#000;stroke-width:7px;"/><path d="M92.2,118.1l25.1,14.5c2.5,1.4 2.9,4.8 0.8,6.8l-38.1,36.7c-3.1,3 -8.2,0 -7.1,-4.2l13,-51.1c0.7,-2.8 3.8,-4.1 6.3,-2.7Z" style="fill:none;fill-rule:nonzero;stroke:#000;stroke-width:7px;"/><path d="M28.9,173.4l38.6,-16.1l8.7,-36.5c0.3,-1.1 -1.1,-1.8 -1.8,-1l-47.9,50.1c-1.7,1.6 0.2,4.4 2.4,3.5Z" style="fill:none;fill-rule:nonzero;stroke:#000;stroke-width:7px;"/><path d="M100.9,215.8l-6.1,-41.4l26.5,-25.9c0.9,-0.9 2.3,0 2,1.2l-18.2,66.5c-0.5,2.1 -3.8,1.9 -4.2,-0.4Z" style="fill:none;fill-rule:nonzero;stroke:#000;stroke-width:7px;"/><path d="M179.036,48.932l-45.964,-26.587l-3.855,6.665l45.963,26.587l3.856,-6.665Z" style="stroke:#000;stroke-width:3px;"/><path d="M68.2,30.6c-11.5,19.5 -23,39 -34.4,58.6c-3.3,5.6 5.4,10.6 8.6,5c11.5,-19.5 22.9,-39.1 34.4,-58.6c3.3,-5.5 -5.4,-10.6 -8.6,-5Z" style="fill:#acd9b8;fill-rule:nonzero;"/><path d="M111.7,13.9c-14.3,24.4 -28.6,48.8 -42.9,73.2c-3.3,5.6 5.4,10.6 8.6,5c14.3,-24.4 28.6,-48.8 42.9,-73.1c3.3,-5.6 -5.3,-10.6 -8.6,-5.1Z" style="fill:#acd9b8;fill-rule:nonzero;"/><path d="M186.5,81.9c-11.5,19.5 -22.9,39.1 -34.4,58.6c-3.3,5.6 5.4,10.6 8.6,5c11.5,-19.5 22.9,-39.1 34.4,-58.6c3.3,-5.5 -5.3,-10.5 -8.6,-5Z" style="fill:#acd9b8;fill-rule:nonzero;"/><path d="M188.5,131.9c-11.5,19.5 -22.9,39.1 -34.4,58.6c-3.3,5.6 5.4,10.6 8.6,5c11.5,-19.5 22.9,-39.1 34.4,-58.6c3.3,-5.5 -5.3,-10.5 -8.6,-5Z" style="fill:#acd9b8;fill-rule:nonzero;"/></svg>