<?xml version="1.0" encoding="UTF-8" standalone="no"?><!DOCTYPE svg PUBLIC "-//W3C//DTD SVG 1.1//EN" "http://www.w3.org/Graphics/SVG/1.1/DTD/svg11.dtd"><svg width="100%" height="100%" viewBox="0 0 580 335" version="1.1" xmlns="http://www.w3.org/2000/svg" xmlns:xlink="http://www.w3.org/1999/xlink" xml:space="preserve" xmlns:serif="http://www.serif.com/" style="fill-rule:evenodd;clip-rule:evenodd;stroke-miterlimit:10;"><path d="M347.3,320.5l-234.6,0c-17.5,0 -31.7,-14.2 -31.7,-31.7l0,-234.6c0,-9 36.5,-57.1 53,-29.7c35,58 50.8,-32.4 76,2c33,45 53,-23 72,3c28.6,39.2 53.4,-8.2 65.3,-7c20.7,2 31.7,14.2 31.7,31.7l0,234.6c0,17.5 -14.2,31.7 -31.7,31.7Z" style="fill:none;fill-rule:nonzero;stroke:#000;stroke-width:10px;"/><g><path d="M545.2,68c-16.2,-19.7 -42.2,-20.8 -66.9,-15c-32,7.5 -54.3,36.1 -54.3,68.7l0,116c0,4.7 2,9.2 5.5,12.3c8.3,7.4 19.1,12.8 30,11.2c19.3,-3 147.7,-118.1 85.7,-193.2Zm-86.7,186.7c-10.3,1.6 -19.8,-5.3 -24.6,-9.6c-2.1,-1.9 -3.3,-4.6 -3.3,-7.4l0,-116c0,-29.7 20.4,-55.5 49.2,-62.2c22.2,-5.2 45.7,-4.9 60.3,12.7c57.7,69.9 -66.2,180.1 -81.6,182.5Z" style="fill-rule:nonzero;"/><path d="M526.1,86.7c-1.2,-1.4 -3.3,-1.6 -4.7,-0.4c-1.4,1.2 -1.6,3.3 -0.4,4.7c18.2,21.3 13.1,48 -0.1,72.4c7.4,-19.8 10.2,-42.7 -3,-59.2c-16.6,-20.8 -45.8,-10.8 -56.7,10c-0.8,1.6 -0.2,3.6 1.4,4.5c1.6,0.8 3.6,0.2 4.5,-1.4c8.5,-16.2 32,-26.1 45.6,-8.9c18.8,23.6 -0.2,65.1 -18.1,89.3c8.7,-35.8 -18.1,-70.2 -47.4,-58.9c-0.1,-8 1.1,-22.1 9,-36.1c8.3,-14.7 26.3,-25 42.8,-23.3c1.8,0.2 3.4,-1.1 3.6,-3c0.2,-1.9 -1.1,-3.4 -3,-3.6c-18.8,-1.9 -39.4,9.3 -49.2,26.6c-12.4,22.1 -9.7,44 -9.3,46.7c0.1,3.6 3.1,6.5 6.8,6.5c7.2,0 14.2,5.5 14.2,14.9c0,6 -4.1,11.2 -9.9,12.8c-6.5,1.7 -11.1,7.5 -11.1,14.3l0,17.5c0,4.6 1.9,8.8 5.8,12.2c5.6,4.8 12.5,8.1 19.7,6.9c14,-2.5 106.9,-88.9 59.5,-144.5Zm-78.3,107.8c0,-3.7 2.5,-6.9 6.1,-7.9c8.7,-2.3 14.9,-10.1 14.9,-19.2c0,-13 -9.9,-21.5 -20.8,-21.5c-0.2,0 -0.2,-0.1 -0.2,-0.3c20.5,-9.9 41.9,10.3 41.9,38.2c0,23.5 -14.3,38.7 -28.1,40.5c-3.8,-0.7 -7.4,-2.9 -10.3,-5.4c-4.8,-4 -3.4,-7 -3.5,-24.4Z" style="fill-rule:nonzero;"/><path d="M508.9,80.4c0.3,1.5 1.6,2.7 3.2,2.7c2.3,0 4,-2.4 3.1,-4.6c-1.5,-3.7 -7.1,-2.1 -6.3,1.9Z" style="fill-rule:nonzero;"/></g><path d="M46.5,161l17,36l8,-71l13,75l8,-91l0,53l16,-20l0,18l9,-9l4,12l3,-9l0,-16l4,13l28,11l12,-66l8,123l13,-62l6,10l7,-12l4,12l8,-12l6,12l29,-71l15,68l13,-9l0,17l11,31l14,29l11,-42l0,-56l24,33l-3,24l28,-53l0,29l4,25l20,-9l4,-19l36,0" style="fill:none;fill-rule:nonzero;stroke:#000;stroke-width:7px;"/><path d="M12.5,166l401,0" style="fill:none;fill-rule:nonzero;stroke:#000;stroke-width:2px;"/></svg>