<?xml version="1.0" encoding="UTF-8" standalone="no"?><!DOCTYPE svg PUBLIC "-//W3C//DTD SVG 1.1//EN" "http://www.w3.org/Graphics/SVG/1.1/DTD/svg11.dtd"><svg width="100%" height="100%" viewBox="0 0 290 290" version="1.1" xmlns="http://www.w3.org/2000/svg" xmlns:xlink="http://www.w3.org/1999/xlink" xml:space="preserve" xmlns:serif="http://www.serif.com/" style="fill-rule:evenodd;clip-rule:evenodd;stroke-linejoin:round;stroke-miterlimit:2;"><g id="outline_2_"><path d="M148,7.5c-75.7,0 -137,61.3 -137,137c0,75.7 61.3,137 137,137c75.7,0 137,-61.3 137,-137c-0.1,-75.6 -61.4,-136.9 -137,-137Zm0,264.9c-70.6,0 -127.9,-57.2 -127.9,-127.9c0,-70.7 57.3,-127.9 127.9,-127.9c70.6,0 127.9,57.2 127.9,127.9c-0.1,70.6 -57.3,127.8 -127.9,127.9Z" style="fill-rule:nonzero;"/><path d="M148,25.8c-65.6,0 -118.7,53.2 -118.7,118.7c0,65.5 53.1,118.7 118.7,118.7c65.6,0 118.7,-53.2 118.7,-118.7c0,-65.5 -53.2,-118.7 -118.7,-118.7Zm109.5,114.1l-23,0c-0.9,-17.8 -7.3,-35 -18.4,-49l7.9,-6.9l-6,-6.9l-7.9,6.9c-5,-5.1 -10.6,-9.6 -16.7,-13.3l11,-20.1c31.6,19 51.5,52.5 53.1,89.3Zm-155.2,-54.8c0,5 -4.1,9.1 -9.1,9.1c-5,0 -9.1,-4.1 -9.1,-9.1c0,-5 4.1,-9.1 9.1,-9.1c5,0 9.1,4.1 9.1,9.1Zm-18.4,15.7c2.8,1.7 6,2.6 9.3,2.6c10.1,0 18.3,-8.2 18.3,-18.3c0,-2.8 -0.7,-5.5 -1.9,-8c10.4,-5.9 22,-9.4 33.9,-10.1l0,27.5c-24.1,2.2 -43.2,21.3 -45.4,45.4l-27.5,0c0.7,-14 5.4,-27.5 13.3,-39.1Zm86.9,75.7c0,-5 4.1,-9.1 9.1,-9.1c5,0 9.1,4.1 9.1,9.1c0,5 -4.1,9.1 -9.1,9.1c-5,0 -9.1,-4.1 -9.1,-9.1Zm15.5,-17.1c-9.3,-3.6 -19.8,1.1 -23.4,10.4c-1.6,4.2 -1.6,8.8 0,13c-3.3,1.3 -6.8,2.2 -10.3,2.5l0,-36.3l36.3,0c-0.4,3.6 -1.3,7.1 -2.6,10.4Zm-33.7,-32.8l0,-22.9c3.8,0.4 7.5,1.4 11,2.8l-11,20.1Zm18.9,-15.7c1.5,1 2.8,2.1 4.1,3.3l-11.4,10l7.3,-13.3Zm-28.1,29l-36.3,0c2.2,-19.1 17.2,-34.1 36.3,-36.3l0,36.3Zm0,9.2l0,36.3c-19.1,-2.2 -34.1,-17.2 -36.3,-36.3l36.3,0Zm31,-9.2l13.6,-4.9c0.4,1.6 0.7,3.2 0.9,4.9l-14.5,0Zm-5.3,-7.8l12.6,-11.1c1.2,1.7 2.2,3.5 3.2,5.4l-15.8,5.7Zm13.5,-23.9c-2.1,-2 -4.3,-3.8 -6.6,-5.4l13.1,-24c5.2,3.2 9.9,7 14.2,11.3l-20.7,18.1Zm-14.7,-9.8c-4.9,-2.1 -10.1,-3.4 -15.4,-3.9l0,-27.4c9.9,0.6 19.5,3 28.5,7.3l-13.1,24Zm-15.3,-40.4l0,-23c15.2,0.6 30.2,4.5 43.8,11.3l-11,20.1c-10.3,-5 -21.4,-7.8 -32.8,-8.4Zm-54.6,91.1c2.2,24.1 21.3,43.2 45.4,45.4l0,27.4c-39.2,-2.3 -70.5,-33.6 -72.8,-72.8l27.4,0Zm54.6,45.4c5.4,-0.5 10.7,-1.9 15.7,-4.1c7.6,6.5 19.1,5.6 25.6,-2c5.8,-6.8 5.8,-16.8 0,-23.6c2.2,-5 3.6,-10.3 4.1,-15.7l27.4,0c-2.3,39.2 -33.6,70.5 -72.9,72.9l0,-27.5l0.1,0Zm45.4,-54.6c-0.3,-2.7 -0.7,-5.3 -1.4,-7.9l16.9,-6l-3.1,-8.6l-16.9,6c-1.4,-2.9 -3,-5.7 -4.9,-8.4l20.7,-18c9.6,12.4 15.2,27.3 16.1,43l-27.4,0l0,-0.1Zm-54.6,-104.9l0,22.9c-14.1,0.7 -27.8,4.9 -39.9,12.2c-8.2,-5.8 -19.6,-3.7 -25.3,4.5c-4.1,5.8 -4.4,13.5 -0.8,19.6c-9.6,13.4 -15.2,29.3 -16,45.8l-22.9,0c2.4,-57 48,-102.6 104.9,-105Zm-104.9,114.1l23,0c2.4,44.2 37.7,79.6 82,82l0,23c-57,-2.5 -102.6,-48.1 -105,-105Zm114.1,104.9l0,-23c44.2,-2.4 79.6,-37.7 82,-82l23,0c-2.5,57 -48.1,102.6 -105,105Z" style="fill-rule:nonzero;"/><rect x="88.6" y="171.9" width="9.1" height="9.1"/><rect x="202.8" y="217.6" width="9.1" height="9.1"/><rect x="166.3" y="44" width="9.1" height="9.1"/></g></svg>