<?xml version="1.0" encoding="UTF-8" standalone="no"?><!DOCTYPE svg PUBLIC "-//W3C//DTD SVG 1.1//EN" "http://www.w3.org/Graphics/SVG/1.1/DTD/svg11.dtd"><svg width="100%" height="100%" viewBox="0 0 540 150" version="1.1" xmlns="http://www.w3.org/2000/svg" xmlns:xlink="http://www.w3.org/1999/xlink" xml:space="preserve" xmlns:serif="http://www.serif.com/" style="fill-rule:evenodd;clip-rule:evenodd;stroke-linecap:round;stroke-miterlimit:10;"><g><path d="M318.2,61.9c-0.4,-1.3 -1.7,-2.2 -3.1,-2.2l-12.9,0c-1.8,0 -3.2,1.4 -3.2,3.2l0,16.1l-6.5,0l0,-25.8c0,-1.8 -1.4,-3.2 -3.2,-3.2l-25.8,0l0,-16.1c0,-1.8 -1.4,-3.2 -3.2,-3.2l-22.6,0l0,-6.5l42,0c1.8,0 3.2,-1.4 3.2,-3.2l0,-12.9c0,-1.8 -1.4,-3.2 -3.2,-3.2l-103.3,0c-1.8,0 -3.2,1.4 -3.2,3.2l0,12.9c0,1.8 1.4,3.2 3.2,3.2l42,0l0,6.5l-22.6,0c-1.8,0 -3.2,1.4 -3.2,3.2l0,17.6l-17.1,11.4l-18.5,0c-1.8,0 -3.2,1.4 -3.2,3.2l0,9.7l-6.5,0l0,-25.8c0,-1.8 -1.4,-3.2 -3.2,-3.2l-12.9,0c-1.8,0 -3.2,1.4 -3.2,3.2l0,80.7c0,1.8 1.4,3.2 3.2,3.2l12.9,0c1.8,0 3.2,-1.4 3.2,-3.2l0,-22.6l6.5,0l0,9.7c0,1.8 1.4,3.2 3.2,3.2l18.4,0l18.6,12.4c0.5,0.4 1.1,0.5 1.8,0.5l6.5,0l0,9.7c0,1.8 1.4,3.2 3.2,3.2l45.2,0c1.8,0 3.2,-1.4 3.2,-3.2l0,-9.7l35.5,0c1.8,0 3.2,-1.4 3.2,-3.2l0,-25.8l6.5,0l0,16.1c0,1.8 1.4,3.2 3.2,3.2l12.9,0c1.4,0 2.6,-0.9 3.1,-2.2l3.2,-9.7c0.1,-0.3 0.2,-0.7 0.2,-1l0,-38.7c0,-0.3 -0.1,-0.7 -0.2,-1l-3.3,-9.7Zm-138.6,-50.6l96.8,0l0,6.5l-96.8,0l0,-6.5Zm45.2,12.9l6.5,0l0,6.5l-6.5,0l0,-6.5Zm-83.9,103.3l-6.5,0l0,-74.3l6.5,0l0,74.3Zm6.5,-25.8l0,-19.4l6.5,0l0,19.4l-6.5,0Zm30.8,13.4c-0.5,-0.4 -1.2,-0.5 -1.8,-0.5l-16.1,0l0,-45.2l12.9,0l0,19.4c0,1.8 1.4,3.2 3.2,3.2c1.8,0 3.2,-1.4 3.2,-3.2l0,-20.9l17.9,-11.9c0.9,-0.6 1.4,-1.6 1.4,-2.7l0,-16.2l58.1,0l0,12.9l-32.3,0c-1.8,0 -3.2,1.4 -3.2,3.2c0,1.8 1.4,3.2 3.2,3.2l48.4,0l0,71l-76.5,0l-18.4,-12.3Zm69.2,25.3l-38.7,0l0,-6.5l38.7,0l0,6.5Zm38.7,-12.9l-6.5,0l0,-71l6.5,0l0,71Zm6.5,-29.1l0,-12.9l6.5,0l0,12.9l-6.5,0Zm22.6,12.4l-2.3,7l-7.4,0l0,-51.6l7.4,0l2.3,7l0,37.6Z" style="fill-rule:nonzero;"/><path d="M208.7,56.5l3.2,0c1.8,0 3.2,-1.4 3.2,-3.2c0,-1.8 -1.4,-3.2 -3.2,-3.2l-3.2,0c-1.8,0 -3.2,1.4 -3.2,3.2c0,1.8 1.4,3.2 3.2,3.2Z" style="fill-rule:nonzero;"/><path d="M176.4,98.4c-1.8,0 -3.2,1.4 -3.2,3.2l0,3.2c0,1.8 1.4,3.2 3.2,3.2c1.8,0 3.2,-1.4 3.2,-3.2l0,-3.2c0,-1.7 -1.4,-3.2 -3.2,-3.2Z" style="fill-rule:nonzero;"/><path d="M189.3,75.8l74.2,0c1.8,0 3.2,-1.4 3.2,-3.2c0,-1.8 -1.4,-3.2 -3.2,-3.2l-74.2,0c-1.8,0 -3.2,1.4 -3.2,3.2c0,1.8 1.4,3.2 3.2,3.2Z" style="fill-rule:nonzero;"/><path d="M189.3,88.7l74.2,0c1.8,0 3.2,-1.4 3.2,-3.2c0,-1.8 -1.4,-3.2 -3.2,-3.2l-74.2,0c-1.8,0 -3.2,1.4 -3.2,3.2c0,1.8 1.4,3.2 3.2,3.2Z" style="fill-rule:nonzero;"/><path d="M189.3,101.7l74.2,0c1.8,0 3.2,-1.4 3.2,-3.2c0,-1.8 -1.4,-3.2 -3.2,-3.2l-74.2,0c-1.8,0 -3.2,1.4 -3.2,3.2c0,1.8 1.4,3.2 3.2,3.2Z" style="fill-rule:nonzero;"/><path d="M266.8,111.3c0,-1.8 -1.4,-3.2 -3.2,-3.2l-74.2,0c-1.8,0 -3.2,1.4 -3.2,3.2c0,1.8 1.4,3.2 3.2,3.2l74.2,0c1.7,0.1 3.2,-1.4 3.2,-3.2Z" style="fill-rule:nonzero;"/></g><rect x="5.7" y="49.9" width="141.3" height="90.9" style="fill:none;"/><g><path d="M62.312,99.441c0,3.4 -0.7,6.466 -2.1,9.2c-1.4,2.733 -3.283,5.083 -5.65,7.05c-2.366,1.966 -5.15,3.483 -8.35,4.55c-3.2,1.066 -6.6,1.6 -10.2,1.6c-3.533,0 -6.883,-0.55 -10.05,-1.65c-3.166,-1.1 -5.95,-2.65 -8.35,-4.65c-2.4,-2 -4.3,-4.417 -5.7,-7.25c-1.4,-2.834 -2.1,-5.984 -2.1,-9.45c0,-1.867 0.3,-3.617 0.9,-5.25c0.6,-1.634 1.367,-3.117 2.3,-4.45c0.934,-1.334 2,-2.5 3.2,-3.5c1.2,-1 2.367,-1.867 3.5,-2.6c-2.2,-1.2 -4.05,-2.967 -5.55,-5.3c-1.5,-2.334 -2.25,-4.8 -2.25,-7.4c0,-3.267 0.75,-6.184 2.25,-8.75c1.5,-2.567 3.417,-4.7 5.75,-6.4c2.334,-1.7 4.917,-3 7.75,-3.9c2.834,-0.9 5.617,-1.35 8.35,-1.35c2.734,0 5.534,0.433 8.4,1.3c2.867,0.866 5.484,2.15 7.85,3.85c2.367,1.7 4.3,3.816 5.8,6.35c1.5,2.533 2.25,5.433 2.25,8.7c0,1.333 -0.216,2.633 -0.65,3.9c-0.433,1.266 -1,2.483 -1.7,3.65c-0.7,1.166 -1.55,2.2 -2.55,3.1c-1,0.9 -2.033,1.65 -3.1,2.25c1.2,0.733 2.4,1.633 3.6,2.7c1.2,1.066 2.284,2.283 3.25,3.65c0.967,1.366 1.734,2.883 2.3,4.55c0.567,1.666 0.85,3.5 0.85,5.5Zm-16.2,-1c0,-1.4 -0.283,-2.65 -0.85,-3.75c-0.566,-1.1 -1.316,-2.017 -2.25,-2.75c-0.933,-0.734 -2,-1.3 -3.2,-1.7c-1.2,-0.4 -2.466,-0.6 -3.8,-0.6c-2.8,0 -5.166,0.8 -7.1,2.4c-1.933,1.6 -2.9,3.766 -2.9,6.5c0,1.333 0.284,2.533 0.85,3.6c0.567,1.066 1.317,1.983 2.25,2.75c0.934,0.766 2,1.366 3.2,1.8c1.2,0.433 2.467,0.65 3.8,0.65c1.334,0 2.617,-0.217 3.85,-0.65c1.234,-0.434 2.3,-1.05 3.2,-1.85c0.9,-0.8 1.617,-1.75 2.15,-2.85c0.534,-1.1 0.8,-2.284 0.8,-3.55Zm-18,-27.8c0,1.2 0.234,2.233 0.7,3.1c0.467,0.866 1.084,1.583 1.85,2.15c0.767,0.566 1.617,1 2.55,1.3c0.934,0.3 1.867,0.45 2.8,0.45c0.934,0 1.884,-0.15 2.85,-0.45c0.967,-0.3 1.834,-0.75 2.6,-1.35c0.767,-0.6 1.384,-1.334 1.85,-2.2c0.467,-0.867 0.7,-1.867 0.7,-3c0,-1.934 -0.783,-3.517 -2.35,-4.75c-1.566,-1.234 -3.45,-1.85 -5.65,-1.85c-2.2,0 -4.066,0.616 -5.6,1.85c-1.533,1.233 -2.3,2.816 -2.3,4.75Z" style="fill-rule:nonzero;"/><path d="M86.756,67.7l7.6,11.84l0.8,1.52l0.8,-1.52l7.52,-11.84l13.12,0l-14.56,21.04l14.88,20.96l-13.12,0l-7.92,-11.76l-0.72,-1.52l-0.72,1.52l-7.92,11.76l-13.12,0l14.88,-20.96l-14.56,-21.04l13.04,0Z" style="fill-rule:nonzero;"/></g><rect x="370.7" y="42.9" width="257.3" height="120.9" style="fill:none;"/><g><path d="M406.516,88.1c2.067,0.4 3.967,1.117 5.7,2.15c1.734,1.033 3.217,2.333 4.45,3.9c1.234,1.567 2.184,3.367 2.85,5.4c0.667,2.033 1,4.217 1,6.55c0,3.133 -0.633,5.95 -1.9,8.45c-1.266,2.5 -3.083,4.633 -5.45,6.4c-2.366,1.767 -5.216,3.133 -8.55,4.1c-3.333,0.967 -7.066,1.45 -11.2,1.45c-10.133,0 -18.066,-2.967 -23.8,-8.9l8.6,-11.4c1.8,1.867 3.85,3.283 6.15,4.25c2.3,0.967 5.05,1.45 8.25,1.45c7.534,0 11.3,-2.767 11.3,-8.3c0,-3 -1.116,-5.267 -3.35,-6.8c-2.233,-1.533 -5.75,-2.3 -10.55,-2.3l-3,0l0,-11.5l3.3,0c3.734,0 6.65,-0.767 8.75,-2.3c2.1,-1.533 3.15,-3.567 3.15,-6.1c0,-2.2 -0.766,-3.867 -2.3,-5c-1.533,-1.133 -3.566,-1.7 -6.1,-1.7c-2.733,0 -5.216,0.65 -7.45,1.95c-2.233,1.3 -4.116,3.15 -5.65,5.55l-10.1,-11.6c1.067,-1.4 2.467,-2.7 4.2,-3.9c1.734,-1.2 3.7,-2.217 5.9,-3.05c2.2,-0.833 4.567,-1.483 7.1,-1.95c2.534,-0.467 5.134,-0.7 7.8,-0.7c3.534,0 6.767,0.417 9.7,1.25c2.934,0.833 5.434,2.033 7.5,3.6c2.067,1.567 3.667,3.433 4.8,5.6c1.134,2.167 1.7,4.583 1.7,7.25c0,2 -0.316,3.9 -0.95,5.7c-0.633,1.8 -1.516,3.433 -2.65,4.9c-1.133,1.467 -2.483,2.683 -4.05,3.65c-1.566,0.967 -3.283,1.617 -5.15,1.95Z" style="fill-rule:nonzero;"/><path d="M453.631,113.26l-8.55,-13.169l-3.495,3.62l0,9.549l-9.986,0l0,-45.56l9.986,0l0,26.4l11.047,-13.606l10.61,0l-11.796,14.105l12.794,18.661l-10.61,0Z" style="fill-rule:nonzero;"/><path d="M481.155,69.011l9.424,0l4.493,14.167l4.494,-14.167l9.486,0l-7.426,20.595l4.493,11.921l11.109,-32.579l11.172,0l-17.725,44.312l-8.55,0l-7.053,-17.35l-6.99,17.35l-8.612,0l-17.663,-44.312l11.109,0l11.172,32.579l4.369,-11.921l-7.302,-20.595Z" style="fill-rule:nonzero;"/></g><path d="M360,78.8l-24,0" style="fill:none;fill-rule:nonzero;stroke:#000;stroke-width:10px;"/><path d="M360,98.8l-24,0" style="fill:none;fill-rule:nonzero;stroke:#000;stroke-width:10px;"/></svg>