<?xml version="1.0" encoding="UTF-8" standalone="no"?><!DOCTYPE svg PUBLIC "-//W3C//DTD SVG 1.1//EN" "http://www.w3.org/Graphics/SVG/1.1/DTD/svg11.dtd"><svg width="100%" height="100%" viewBox="0 0 330 330" version="1.1" xmlns="http://www.w3.org/2000/svg" xmlns:xlink="http://www.w3.org/1999/xlink" xml:space="preserve" xmlns:serif="http://www.serif.com/" style="fill-rule:evenodd;clip-rule:evenodd;stroke-miterlimit:10;"><path d="M282.3,319l-234.6,0c-17.5,0 -31.7,-14.2 -31.7,-31.7l0,-234.6c0,-9 36.5,-57.1 53,-29.7c35,58 50.8,-32.4 76,2c33,45 53,-23 72,3c28.6,39.2 53.4,-8.2 65.3,-7c20.7,2 31.7,14.2 31.7,31.7l0,234.6c0,17.5 -14.2,31.7 -31.7,31.7Z" style="fill:none;fill-rule:nonzero;stroke:#000;stroke-width:10px;"/><rect x="78" y="77" width="236" height="203" style="fill:none;"/><g><path d="M140.8,150l0,-42.5l-15.4,30.9l-8.8,0l-15.4,-30.9l0,42.5l-16.4,0l0,-71l17.8,0l18.4,37.1l18.5,-37.1l17.7,0l0,71l-16.4,0Z" style="fill-rule:nonzero;"/><path d="M190.1,79l14.8,0l25.9,71l-16.8,0l-5.5,-15.9l-22.1,0l-5.4,15.9l-16.8,0l25.9,-71Zm15.7,43.8l-8.3,-25.101l-8.5,25.1l16.8,0.001Z" style="fill-rule:nonzero;"/><path d="M248.1,79l15.5,24.5l15.5,-24.5l17.7,0l-24.6,36l23.8,35l-17.7,0l-14.7,-23.5l-14.7,23.5l-17.8,0l23.8,-35l-24.6,-36l17.8,0Z" style="fill-rule:nonzero;"/><path d="M122.46,245.04l0,12.96l-38.88,0l0,-12.96l12.78,0l0,-22.95c-0.54,0.72 -1.38,1.454 -2.52,2.205c-1.14,0.749 -2.415,1.44 -3.825,2.07c-1.41,0.63 -2.85,1.139 -4.32,1.53c-1.47,0.389 -2.775,0.584 -3.915,0.584l0,-13.32c0.96,0 2.205,-0.33 3.735,-0.989c1.53,-0.661 3.045,-1.456 4.545,-2.386c1.5,-0.93 2.85,-1.875 4.05,-2.835c1.2,-0.96 1.95,-1.74 2.25,-2.339l14.67,0l0,38.429l11.43,0Z" style="fill:#acd9b8;fill-rule:nonzero;"/><path d="M175.74,231.63c0,3.96 -0.6,7.605 -1.8,10.935c-1.2,3.33 -2.85,6.21 -4.95,8.64c-2.1,2.43 -4.575,4.32 -7.425,5.67c-2.85,1.349 -5.955,2.024 -9.315,2.024c-3.36,0 -6.48,-0.675 -9.36,-2.024c-2.88,-1.35 -5.37,-3.24 -7.47,-5.67c-2.1,-2.43 -3.735,-5.31 -4.905,-8.641c-1.17,-3.329 -1.755,-6.975 -1.755,-10.935c0,-3.96 0.585,-7.605 1.755,-10.935c1.17,-3.329 2.805,-6.209 4.905,-8.639c2.1,-2.43 4.59,-4.336 7.47,-5.715c2.88,-1.381 6,-2.07 9.36,-2.07c3.36,0 6.465,0.689 9.315,2.07c2.85,1.379 5.325,3.285 7.425,5.715c2.1,2.43 3.75,5.31 4.95,8.639c1.2,3.331 1.8,6.975 1.8,10.935Zm-14.49,0c0,-4.2 -0.84,-7.605 -2.52,-10.215c-1.68,-2.609 -3.84,-3.915 -6.48,-3.915c-2.76,0 -4.965,1.305 -6.615,3.915c-1.65,2.611 -2.475,6.015 -2.475,10.215c0,4.2 0.825,7.59 2.475,10.171c1.65,2.579 3.855,3.869 6.615,3.869c2.64,0 4.8,-1.29 6.48,-3.869c1.68,-2.581 2.52,-5.971 2.52,-10.171Z" style="fill:#acd9b8;fill-rule:nonzero;"/><path d="M231,231.63c0,3.96 -0.6,7.605 -1.8,10.935c-1.2,3.33 -2.85,6.21 -4.95,8.64c-2.1,2.43 -4.575,4.32 -7.425,5.67c-2.85,1.349 -5.955,2.024 -9.315,2.024c-3.36,0 -6.48,-0.675 -9.36,-2.024c-2.88,-1.35 -5.37,-3.24 -7.47,-5.67c-2.1,-2.43 -3.735,-5.31 -4.905,-8.641c-1.17,-3.329 -1.755,-6.975 -1.755,-10.935c0,-3.96 0.585,-7.605 1.755,-10.935c1.17,-3.329 2.805,-6.209 4.905,-8.639c2.1,-2.43 4.59,-4.336 7.47,-5.715c2.88,-1.381 6,-2.07 9.36,-2.07c3.36,0 6.465,0.689 9.315,2.07c2.85,1.379 5.325,3.285 7.425,5.715c2.1,2.43 3.75,5.31 4.95,8.639c1.2,3.331 1.8,6.975 1.8,10.935Zm-14.49,0c0,-4.2 -0.84,-7.605 -2.52,-10.215c-1.68,-2.609 -3.84,-3.915 -6.48,-3.915c-2.76,0 -4.965,1.305 -6.615,3.915c-1.65,2.611 -2.475,6.015 -2.475,10.215c0,4.2 0.825,7.59 2.475,10.171c1.65,2.579 3.855,3.869 6.615,3.869c2.64,0 4.8,-1.29 6.48,-3.869c1.68,-2.581 2.52,-5.971 2.52,-10.171Z" style="fill:#acd9b8;fill-rule:nonzero;"/><path d="M297.35,258l-11.2,0l0,-20.65c0,-2.427 -0.443,-4.189 -1.33,-5.285c-0.887,-1.097 -2.03,-1.645 -3.43,-1.645c-0.747,0 -1.505,0.163 -2.275,0.49c-0.77,0.326 -1.482,0.781 -2.135,1.365c-0.653,0.583 -1.248,1.271 -1.785,2.065c-0.537,0.793 -0.968,1.656 -1.295,2.59l0,21.07l-11.2,0l0,-20.65c0,-2.427 -0.443,-4.189 -1.33,-5.285c-0.887,-1.097 -2.03,-1.645 -3.43,-1.645c-1.493,0 -2.952,0.595 -4.375,1.785c-1.423,1.19 -2.462,2.765 -3.115,4.725l0,21.07l-11.2,0l0,-36.75l10.08,0l0,6.16c1.353,-2.24 3.185,-3.944 5.495,-5.11c2.31,-1.167 5.005,-1.75 8.085,-1.75c1.54,0 2.882,0.186 4.025,0.56c1.143,0.373 2.135,0.886 2.975,1.54c0.84,0.653 1.517,1.411 2.03,2.275c0.513,0.863 0.887,1.785 1.12,2.765c1.4,-2.287 3.243,-4.049 5.53,-5.285c2.287,-1.237 4.9,-1.855 7.84,-1.855c2.333,0 4.212,0.431 5.635,1.295c1.423,0.863 2.532,1.983 3.325,3.36c0.793,1.376 1.318,2.881 1.575,4.515c0.257,1.633 0.385,3.22 0.385,4.76l0,23.52Z" style="fill:#acd9b8;fill-rule:nonzero;"/></g><path d="M33,52l27,23l0,9l-9,-8l0,197l9,7l0,8l-25,-20l0.1,-6.1l8,6l-0.1,-197.9l-10,-10l0,-8Z" style="fill-rule:nonzero;"/></svg>