<?xml version="1.0" encoding="UTF-8" standalone="no"?><!DOCTYPE svg PUBLIC "-//W3C//DTD SVG 1.1//EN" "http://www.w3.org/Graphics/SVG/1.1/DTD/svg11.dtd"><svg width="100%" height="100%" viewBox="0 0 320 320" version="1.1" xmlns="http://www.w3.org/2000/svg" xmlns:xlink="http://www.w3.org/1999/xlink" xml:space="preserve" xmlns:serif="http://www.serif.com/" style="fill-rule:evenodd;clip-rule:evenodd;stroke-miterlimit:10;"><g><g><path d="M123.5,218.3l-42,0l0,-7l35,0l0,-7l-35,0l0,-14l-7,0l0,28c0,3.9 3.1,7 7,7l42,0c3.9,0 7,-3.1 7,-7l0,-28l-7,0l0,28Z" style="fill-rule:nonzero;"/><path d="M74.5,141.3c0,-15.4 12.6,-28 28,-28c3.2,0 6.3,0.5 9.3,1.6l2.3,-6.6c-3.7,-1.3 -7.7,-2 -11.7,-2c-19.3,0 -35,15.7 -35,35c0,11.7 5.8,22.6 15.6,29.1l3.9,-5.8c-7.7,-5.2 -12.4,-13.9 -12.4,-23.3Z" style="fill-rule:nonzero;"/><path d="M121.9,112.2l-3.9,5.8c7.8,5.2 12.4,13.9 12.4,23.3c0,15.4 -12.6,28 -28,28c-3.2,0 -6.3,-0.5 -9.3,-1.6l-2.3,6.6c3.7,1.3 7.7,2 11.7,2c19.3,0 35,-15.7 35,-35c0,-11.7 -5.8,-22.6 -15.6,-29.1Z" style="fill-rule:nonzero;"/><path d="M102.5,155.3c7.7,0 14,-6.3 14,-14c0,-7.7 -6.3,-14 -14,-14c-7.7,0 -14,6.3 -14,14c0,7.7 6.3,14 14,14Zm0,-21c3.9,0 7,3.1 7,7c0,3.9 -3.1,7 -7,7c-3.9,0 -7,-3.1 -7,-7c0,-3.9 3.1,-7 7,-7Z" style="fill-rule:nonzero;"/><path d="M260,155.3l-84,0c-5.8,0 -10.5,4.7 -10.5,10.5l0,3.5l-14,0l0,-28c0,-27 -22,-49 -49,-49c-27,0 -49,22 -49,49l0,80.5c0,9.6 7.9,17.5 17.5,17.5l63,0c9.6,0 17.5,-7.9 17.5,-17.5l0,-10.5l14,0l0,3.5c0,5.8 4.7,10.5 10.5,10.5l84,0c5.8,0 10.5,-4.7 10.5,-10.5l0,-49c0,-5.8 -4.7,-10.5 -10.5,-10.5Zm-115.5,14l0,52.5c0,5.8 -4.7,10.5 -10.5,10.5l-63,0c-5.8,0 -10.5,-4.7 -10.5,-10.5l0,-55.4c8.6,14.3 24.2,23.9 42,23.9c17.8,0 33.4,-9.6 42,-23.9l0,2.9Zm-42,14c-23.2,0 -42,-18.8 -42,-42c0,-23.2 18.8,-42 42,-42c23.2,0 42,18.8 42,42c0,23.2 -18.8,42 -42,42Zm63,21l-14,0l0,-28l14,0l0,28Zm98,10.5c0,1.9 -1.6,3.5 -3.5,3.5l-84,0c-1.9,0 -3.5,-1.6 -3.5,-3.5l0,-3.5l0,-42l0,-3.5c0,-1.9 1.6,-3.5 3.5,-3.5l84,0c1.9,0 3.5,1.6 3.5,3.5l0,49Z" style="fill-rule:nonzero;"/><path d="M200.5,186.8l-14,0l0,-17.5l-7,0l0,42l7,0l0,-17.5l14,0l0,17.5l7,0l0,-42l-7,0l0,17.5Z" style="fill-rule:nonzero;"/><path d="M221.5,169.3l-7,0l0,42l7,0c11.6,0 21,-9.4 21,-21c0,-11.6 -9.4,-21 -21,-21Zm0,35l0,-28c7.7,0 14,6.3 14,14c0,7.7 -6.3,14 -14,14Z" style="fill-rule:nonzero;"/><rect x="249.5" y="169.3" width="7" height="7"/><rect x="249.5" y="204.3" width="7" height="7"/></g><path d="M278.8,309l-234.6,0c-17.5,0 -31.7,-14.2 -31.7,-31.7l0,-234.6c0,-17.5 14.2,-31.7 31.7,-31.7l234.6,0c17.5,0 31.7,14.2 31.7,31.7l0,234.6c0,17.5 -14.2,31.7 -31.7,31.7Z" style="fill:none;fill-rule:nonzero;stroke:#000;stroke-width:10px;"/><rect x="169.8" y="79.3" width="200.7" height="95.3" style="fill:none;"/><path d="M194.738,143.179l0,-11.645l-23.375,0l0,-12.155l27.71,-35.53l9.265,0l0,35.445l7.48,0l0,12.24l-7.48,0l0,11.645l-13.6,0Zm-9.945,-23.885l11.56,0l0,-15.045l-11.56,15.045Z" style="fill-rule:nonzero;"/><path d="M239.023,87.759l8.075,12.58l0.85,1.615l0.85,-1.615l7.991,-12.58l13.94,0l-15.471,22.355l15.81,22.27l-13.94,0l-8.415,-12.495l-0.765,-1.615l-0.765,1.615l-8.415,12.495l-13.94,0l15.81,-22.27l-15.47,-22.355l13.855,0Z" style="fill-rule:nonzero;"/></g></svg>