<?xml version="1.0" encoding="UTF-8" standalone="no"?><!DOCTYPE svg PUBLIC "-//W3C//DTD SVG 1.1//EN" "http://www.w3.org/Graphics/SVG/1.1/DTD/svg11.dtd"><svg width="100%" height="100%" viewBox="0 0 320 320" version="1.1" xmlns="http://www.w3.org/2000/svg" xmlns:xlink="http://www.w3.org/1999/xlink" xml:space="preserve" xmlns:serif="http://www.serif.com/" style="fill-rule:evenodd;clip-rule:evenodd;stroke-miterlimit:10;"><g id="surface1_1_"><path d="M118.9,258.6l-23.5,-40.8c3.6,-5.3 5.5,-11.7 5.5,-18.1c0,-0.9 -0.1,-1.9 -0.1,-2.8l70.1,-40.5c1.7,0.5 3.5,0.8 5.3,0.8c5.1,0 9.9,-2 13.6,-5.5c0,0 2.9,-2 4.5,-6.8c2.4,-7.3 0.9,-12.1 0.9,-12.1c-0.8,-3.2 -2.4,-6.2 -4.7,-8.6l3.2,-12.1l12.7,3.4c1.7,0.5 3.5,-0.6 4,-2.3l3.4,-12.6c0.5,-1.7 -0.6,-3.5 -2.3,-4l-22.1,-5.9c-5.2,-1.4 -10.6,1.7 -12,6.9l-5.6,21c-7.6,1.8 -13.4,8 -14.7,15.7l-68.8,39.7c-14.2,-11.1 -34.8,-8.5 -45.9,5.7c-11.1,14.2 -8.5,34.8 5.7,45.9c5.1,4 11.4,6.4 17.9,6.8l15.2,26.3l-45.7,0l0,26.2l196.2,0l0,-26.2l-112.8,0l0,-0.1Zm64.7,-159.2c0.5,-1.7 2.3,-2.8 4,-2.3l19,5.1l-1.7,6.3l-12.7,-3.4c-1.7,-0.5 -3.5,0.6 -4,2.3l-3.4,12.7c-0.3,-0.2 -0.7,-0.2 -1,-0.4c-0.5,-0.2 -1,-0.4 -1.4,-0.6c-0.6,-0.2 -1.2,-0.3 -1.8,-0.5c-0.5,-0.1 -1,-0.2 -1.5,-0.3c-0.2,0 -0.4,-0.1 -0.6,-0.1l5.1,-18.8Zm-8.9,25.2c0.6,-0.1 1.2,-0.1 1.8,-0.1c0.6,0 1.2,0.1 1.8,0.2c0.2,0 0.3,0.1 0.5,0.1c0.6,0.1 1.2,0.3 1.7,0.5c0.3,0.1 0.6,0.3 0.9,0.4c0.4,0.2 0.8,0.4 1.2,0.6c0.7,0.4 1.4,0.9 2,1.4c2.5,2.2 4.1,5.2 4.5,8.5c0.1,0.5 0.1,1 0.1,1.5c0,7.2 -5.8,13.1 -13,13.1c-1.6,0 -3.2,-0.3 -4.6,-0.8c-5.1,-1.9 -8.5,-6.8 -8.5,-12.2l0,-0.6l0,-0.2l0.4,-2.5c1.4,-5.4 5.9,-9.3 11.2,-9.9Zm-17.7,17.2c0.1,0.3 0.2,0.5 0.2,0.7c0.2,0.6 0.3,1.2 0.6,1.8c0.1,0.4 0.3,0.8 0.5,1.2c0.3,0.6 0.6,1.2 0.9,1.7c0.2,0.4 0.4,0.7 0.6,1.1c0.4,0.6 0.8,1.1 1.2,1.6c0.2,0.3 0.4,0.6 0.7,0.8c0.6,0.6 1.2,1.2 1.8,1.7c0.1,0.1 0.3,0.3 0.4,0.4l-64.4,37.2c0,-0.1 -0.1,-0.2 -0.1,-0.4c-0.2,-0.7 -0.5,-1.4 -0.7,-2c-0.1,-0.3 -0.2,-0.6 -0.3,-0.8c-0.4,-0.9 -0.8,-1.9 -1.3,-2.8c-0.1,-0.2 -0.2,-0.3 -0.3,-0.4c-0.4,-0.7 -0.9,-1.5 -1.3,-2.2c-0.2,-0.3 -0.4,-0.6 -0.6,-0.8c-0.4,-0.6 -0.8,-1.1 -1.2,-1.6c-0.1,-0.1 -0.2,-0.3 -0.3,-0.4l63.6,-36.8Zm-115,58c0,-14.4 11.7,-26.2 26.2,-26.2c6.5,0 12.7,2.4 17.5,6.7c4.5,4 7.4,9.4 8.3,15.3c0.2,1.4 0.3,2.7 0.3,4.1c0,14.5 -11.8,26.2 -26.3,26.2l-0.1,0c-14.3,-0.1 -25.8,-11.8 -25.9,-26.1Zm31.4,32.3c0.7,-0.1 1.4,-0.3 2.1,-0.4l0.3,-0.1c1.1,-0.3 2.1,-0.6 3.2,-0.9c0.3,-0.1 0.5,-0.2 0.8,-0.3c0.9,-0.3 1.8,-0.7 2.7,-1.2c0.1,-0.1 0.2,-0.1 0.3,-0.2c1,-0.5 1.9,-1 2.8,-1.6c0.2,-0.1 0.5,-0.3 0.7,-0.5c0.8,-0.5 1.6,-1.1 2.3,-1.7c0.1,-0.1 0.2,-0.2 0.4,-0.3c0.7,-0.6 1.4,-1.2 2,-1.8l20.4,35.4l-22.7,0l-15.3,-26.4Zm151.8,46.2l-183.2,0l0,-13.1l183.1,0l0,13.1l0.1,0Z" style="fill-rule:nonzero;"/><path d="M68.2,219.4c10.8,0 19.6,-8.8 19.6,-19.6c0,-1 -0.1,-2.1 -0.2,-3.1c-1.7,-10.7 -11.8,-18 -22.5,-16.3c-10.7,1.7 -18,11.8 -16.3,22.5c1.5,9.4 9.6,16.4 19.1,16.5l0.3,0Zm-13.1,-19.6c0,-7.2 5.9,-13.1 13.1,-13.1c3.2,0 6.3,1.2 8.7,3.4c2.2,2 3.7,4.7 4.2,7.6c0.1,0.7 0.2,1.4 0.2,2.1c0,7.2 -5.9,13 -13.1,13.1l-0.2,0c-7.2,-0.2 -12.9,-6 -12.9,-13.1Z" style="fill-rule:nonzero;"/><path d="M185.1,152.7c3.8,5.3 7.6,10.6 11.4,15.8c1.2,1.6 3,2.6 5.1,2.1c8,-2.2 15.9,-4.4 23.9,-6.6c5.6,-1.5 3.2,-10.2 -2.4,-8.7c-8,2.2 -15.9,4.4 -23.9,6.6c1.7,0.7 3.4,1.4 5.1,2.1c-3.8,-5.3 -7.6,-10.6 -11.4,-15.8c-3.4,-4.7 -11.2,-0.2 -7.8,4.5Z" style="fill-rule:nonzero;"/><g><path d="M193.8,133.1l12.4,-9.5l16.5,1.3" style="fill-rule:nonzero;"/><path d="M196,137c2.1,-1.6 4.2,-3.2 6.2,-4.8c1.4,-1.1 2.9,-2.2 4.3,-3.3c0.2,-0.2 1.3,-0.8 1.4,-1.1c0.1,-0.1 0.3,-0.2 0.4,-0.3c0.7,-0.5 0,-0.3 -2,0.5c0,0.2 14.8,1.2 16.4,1.3c5.8,0.5 5.7,-8.5 0,-9c-2.9,-0.2 -5.8,-0.5 -8.7,-0.7c-2.6,-0.2 -5.8,-1 -8.3,-0.5c-2.7,0.5 -5.1,3.1 -7.1,4.7c-2.3,1.8 -4.7,3.6 -7,5.4c-4.6,3.5 -0.2,11.3 4.4,7.8Z" style="fill-rule:nonzero;"/></g></g><path d="M120.5,93.2c-2.1,1.8 -4,3.6 -5.9,5.6c-1.8,1.9 -3.6,4 -5,6.1c-1.4,2.2 -2.7,4.4 -3.4,6.7c-0.7,2.3 -0.7,4.6 0.1,6.5c0.7,1.9 2.2,3.6 4.1,5c1.9,1.4 4.1,2.5 6.4,3.4c4.7,1.8 9.8,3 14.9,4c10.3,1.8 20.9,2.7 31.6,3.2c5.3,0.3 10.7,0.4 16,0.5c5.3,0.1 10.7,0.2 16.1,0.1c10.7,0 21.4,-0.2 32.1,-0.7c10.6,-0.5 21.3,-1.4 31.6,-3.2c5.2,-0.9 10.2,-2.1 15,-3.9c2.3,-0.9 4.6,-2 6.5,-3.3c1.9,-1.3 3.5,-3 4.4,-4.9c0.9,-1.9 1,-4.2 0.4,-6.5c-0.6,-2.3 -1.8,-4.6 -3.2,-6.8c-1.4,-2.2 -3.1,-4.3 -4.9,-6.2c-1.8,-2 -3.8,-3.8 -5.8,-5.6c4.7,2.7 9.2,6 12.9,10.2c1.9,2.1 3.5,4.5 4.6,7.3c0.5,1.4 0.9,2.9 1,4.5c0.1,1.6 -0.1,3.3 -0.6,4.8c-1,3.2 -3.1,5.7 -5.4,7.7c-2.3,2 -4.9,3.5 -7.4,4.8c-5.2,2.6 -10.6,4.2 -16,5.6c-5.4,1.3 -10.8,2.4 -16.3,3.1c-5.4,0.8 -10.9,1.4 -16.4,1.8c-10.9,0.9 -21.8,1.2 -32.7,1.2c-5.4,0 -10.9,-0.1 -16.3,-0.3c-5.4,-0.2 -10.9,-0.5 -16.4,-0.9c-5.5,-0.5 -10.9,-1 -16.4,-1.8c-5.4,-0.8 -10.9,-1.8 -16.3,-3.1c-5.4,-1.4 -10.8,-3.1 -16,-5.7c-2.6,-1.3 -5.1,-2.9 -7.4,-4.9c-2.3,-2.1 -4.3,-4.8 -5.1,-8c-0.4,-1.6 -0.5,-3.3 -0.3,-4.9c0.2,-1.6 0.7,-3.1 1.3,-4.5c1.2,-2.7 3,-5.1 4.9,-7.1c4.1,-3.9 8.5,-7.1 13.3,-9.8Z" style="fill:url(#_Linear1);fill-rule:nonzero;"/><path d="M216.5,48.6c-1.8,-2 -3.8,-3.9 -5.8,-5.6c-2,-1.8 -4.1,-3.4 -6.3,-4.8c-2.2,-1.4 -4.5,-2.5 -6.9,-3.1c-2.3,-0.6 -4.6,-0.5 -6.5,0.3c-1.9,0.8 -3.5,2.4 -4.8,4.3c-1.3,1.9 -2.3,4.2 -3.1,6.6c-1.6,4.8 -2.6,9.9 -3.3,15.1c-1.3,10.4 -1.7,21 -1.8,31.7c0,5.3 0,10.7 0.2,16c0.1,5.3 0.3,10.7 0.6,16.1c0.5,10.7 1.1,21.4 2.1,32c1,10.6 2.3,21.2 4.5,31.4c1.1,5.1 2.6,10.1 4.6,14.8c1,2.3 2.2,4.5 3.6,6.4c1.4,1.9 3.1,3.4 5.1,4.2c1.9,0.8 4.2,0.8 6.5,0.2c2.3,-0.7 4.5,-2 6.7,-3.5c2.1,-1.5 4.1,-3.3 6,-5.2c1.9,-1.9 3.7,-3.9 5.4,-6.1c-2.5,4.8 -5.6,9.4 -9.6,13.3c-2,2 -4.3,3.7 -7.1,5c-1.4,0.6 -2.9,1.1 -4.5,1.2c-1.6,0.2 -3.3,0.1 -4.9,-0.4c-3.2,-0.9 -5.9,-2.9 -7.9,-5.1c-2.1,-2.2 -3.7,-4.7 -5.1,-7.2c-2.8,-5.1 -4.7,-10.4 -6.3,-15.7c-1.6,-5.3 -2.8,-10.7 -3.8,-16.1c-1,-5.4 -1.8,-10.8 -2.5,-16.3c-1.4,-10.9 -2.2,-21.7 -2.7,-32.6c-0.2,-5.4 -0.4,-10.9 -0.5,-16.3c0,-5.5 0,-10.9 0.2,-16.4c0.2,-5.5 0.5,-10.9 1.1,-16.4c0.5,-5.5 1.3,-11 2.4,-16.4c1.1,-5.5 2.6,-10.9 5,-16.2c1.2,-2.6 2.6,-5.2 4.6,-7.6c1.9,-2.3 4.6,-4.5 7.8,-5.5c1.6,-0.5 3.3,-0.6 4.9,-0.5c1.6,0.1 3.1,0.5 4.5,1.1c2.8,1.1 5.2,2.7 7.3,4.6c4,3.7 7.4,8 10.3,12.7Z" style="fill:url(#_Linear2);fill-rule:nonzero;"/><circle cx="198.3" cy="123.2" r="75.8" style="fill:none;stroke:url(#_Linear3);stroke-width:7px;"/><path d="M278.3,310.5l-234.6,0c-17.5,0 -31.7,-14.2 -31.7,-31.7l0,-234.6c0,-17.5 14.2,-31.7 31.7,-31.7l234.6,0c17.5,0 31.7,14.2 31.7,31.7l0,234.6c0,17.5 -14.2,31.7 -31.7,31.7Z" style="fill:none;fill-rule:nonzero;stroke:#000;stroke-width:10px;"/><defs><linearGradient id="_Linear1" x1="0" y1="0" x2="1" y2="0" gradientUnits="userSpaceOnUse" gradientTransform="matrix(3.38752e-15,-55.3224,55.3224,3.38752e-15,195.617,144.375)"><stop offset="0" style="stop-color:#acd9b8;stop-opacity:1"/><stop offset="0.06" style="stop-color:#acd9b8;stop-opacity:1"/><stop offset="0.69" style="stop-color:#fff;stop-opacity:0.91"/><stop offset="1" style="stop-color:#fff;stop-opacity:0"/></linearGradient><linearGradient id="_Linear2" x1="0" y1="0" x2="1" y2="0" gradientUnits="userSpaceOnUse" gradientTransform="matrix(59.2866,0,0,59.2866,168.058,124.662)"><stop offset="0" style="stop-color:#acd9b8;stop-opacity:1"/><stop offset="0.06" style="stop-color:#acd9b8;stop-opacity:1"/><stop offset="0.71" style="stop-color:#fff;stop-opacity:0.7"/><stop offset="1" style="stop-color:#fff;stop-opacity:0"/></linearGradient><linearGradient id="_Linear3" x1="0" y1="0" x2="1" y2="0" gradientUnits="userSpaceOnUse" gradientTransform="matrix(9.71095e-15,158.592,-158.592,9.71095e-15,198.311,43.8721)"><stop offset="0" style="stop-color:#fff;stop-opacity:0"/><stop offset="0.53" style="stop-color:#acd9b8;stop-opacity:1"/><stop offset="1" style="stop-color:#acd9b8;stop-opacity:1"/></linearGradient></defs></svg>