<?xml version="1.0" encoding="UTF-8" standalone="no"?><!DOCTYPE svg PUBLIC "-//W3C//DTD SVG 1.1//EN" "http://www.w3.org/Graphics/SVG/1.1/DTD/svg11.dtd"><svg width="100%" height="100%" viewBox="0 0 322 320" version="1.1" xmlns="http://www.w3.org/2000/svg" xmlns:xlink="http://www.w3.org/1999/xlink" xml:space="preserve" xmlns:serif="http://www.serif.com/" style="fill-rule:evenodd;clip-rule:evenodd;stroke-miterlimit:10;"><path d="M265.9,79.7c-31.2,-23.4 -68.2,-35.7 -107.2,-35.7c-39,0 -76.1,12.3 -107.3,35.7c-2,1.5 -3.3,3.7 -3.6,6.1c-0.3,2.4 0.3,4.9 1.8,6.9l49.1,65.3c1.8,2.4 4.6,3.7 7.4,3.7c1.9,0 3.9,-0.6 5.6,-1.9c13.7,-10.2 29.9,-15.7 47,-15.7c17.1,0 33.3,5.4 47,15.7c4.1,3.1 9.9,2.2 13,-1.9l49.1,-65.3c1.5,-2 2.1,-4.5 1.8,-6.9c-0.4,-2.4 -1.8,-4.6 -3.7,-6Zm-56.8,60c-12.5,-7.7 -26.5,-12.3 -41.2,-13.7l0,-28.3c0,-5.1 -4.2,-9.3 -9.3,-9.3c-5.1,0 -9.3,4.2 -9.3,9.3l0,28.3c-14.6,1.4 -28.6,6 -41.2,13.7l-38,-50.6c26.3,-17.5 56.7,-26.6 88.5,-26.6c31.8,0 62.2,9.2 88.5,26.6l-38,50.6Z" style="fill-rule:nonzero;"/><rect x="56" y="192.2" width="304" height="153.3" style="fill:none;"/><path d="M92.309,228.289c1.587,0.267 3.045,0.747 4.376,1.439c1.331,0.691 2.47,1.561 3.417,2.61c0.948,1.049 1.677,2.253 2.189,3.614c0.512,1.361 0.768,2.823 0.768,4.385c0,2.097 -0.487,3.982 -1.459,5.655c-0.973,1.674 -2.368,3.102 -4.185,4.284c-1.817,1.183 -4.006,2.097 -6.565,2.744c-2.56,0.647 -5.427,0.971 -8.601,0.971c-7.781,0 -13.872,-1.986 -18.275,-5.957l6.604,-7.631c1.382,1.25 2.956,2.198 4.722,2.845c1.766,0.647 3.878,0.971 6.335,0.971c5.785,0 8.677,-1.852 8.677,-5.556c0,-2.008 -0.857,-3.525 -2.572,-4.551c-1.715,-1.027 -4.415,-1.54 -8.101,-1.54l-2.304,0l0,-7.697l2.534,0c2.867,0 5.106,-0.513 6.719,-1.54c1.612,-1.026 2.419,-2.387 2.419,-4.082c0,-1.473 -0.589,-2.588 -1.766,-3.347c-1.178,-0.759 -2.739,-1.138 -4.684,-1.138c-2.099,0 -4.006,0.435 -5.721,1.305c-1.715,0.87 -3.161,2.109 -4.338,3.715l-7.756,-7.764c0.819,-0.937 1.894,-1.807 3.225,-2.611c1.331,-0.803 2.841,-1.483 4.531,-2.041c1.689,-0.558 3.506,-0.993 5.451,-1.305c1.946,-0.313 3.942,-0.469 5.99,-0.469c2.713,0 5.196,0.279 7.448,0.837c2.253,0.558 4.172,1.361 5.759,2.409c1.587,1.049 2.816,2.299 3.686,3.749c0.87,1.45 1.305,3.068 1.305,4.852c0,1.339 -0.243,2.611 -0.729,3.816c-0.486,1.204 -1.165,2.298 -2.035,3.279c-0.87,0.982 -1.907,1.796 -3.11,2.443c-1.203,0.647 -2.521,1.082 -3.954,1.306Z" style="fill:#acd9b8;fill-rule:nonzero;"/><path d="M129.627,214.835l-22.959,0l0,-9.772l42.309,0l-26.875,47.522l-13.898,0l21.423,-37.75Z" style="fill:#acd9b8;fill-rule:nonzero;"/><path d="M189.431,253.924l-12.139,-14.123l-4.962,3.882l0,10.241l-14.177,0l0,-48.861l14.177,0l0,28.312l15.683,-14.591l15.063,0l-16.747,15.127l18.164,20.013l-15.062,0Z" style="fill:#acd9b8;fill-rule:nonzero;"/><path d="M224.341,254.058c-3.072,0 -5.878,-0.469 -8.418,-1.406c-2.54,-0.937 -4.71,-2.209 -6.512,-3.815c-1.802,-1.606 -3.205,-3.481 -4.209,-5.622c-1.004,-2.142 -1.506,-4.44 -1.506,-6.894c0,-2.589 0.532,-4.987 1.595,-7.196c1.063,-2.209 2.54,-4.127 4.43,-5.756c1.89,-1.629 4.164,-2.912 6.823,-3.849c2.658,-0.937 5.582,-1.405 8.771,-1.405c3.545,0 6.631,0.569 9.26,1.707c2.628,1.137 4.74,2.71 6.335,4.718l0,-5.756l12.316,0l0,32.73c0,2.678 -0.665,5.087 -1.994,7.229c-1.329,2.142 -3.175,3.96 -5.538,5.455c-2.362,1.495 -5.198,2.644 -8.506,3.447c-3.307,0.803 -6.94,1.205 -10.898,1.205c-5.021,0 -9.303,-0.602 -12.848,-1.807c-3.544,-1.205 -6.645,-2.945 -9.303,-5.221l7.62,-5.823c1.713,1.472 3.839,2.644 6.379,3.514c2.54,0.87 5.258,1.305 8.152,1.305c1.713,0 3.338,-0.178 4.873,-0.535c1.536,-0.357 2.895,-0.904 4.076,-1.64c1.182,-0.737 2.112,-1.696 2.791,-2.878c0.679,-1.183 1.019,-2.6 1.019,-4.251l0,-3.413c-1.418,1.963 -3.455,3.447 -6.114,4.451c-2.658,1.004 -5.523,1.506 -8.594,1.506Zm4.873,-8.501c2.186,0 4.135,-0.457 5.848,-1.372c1.713,-0.915 3.042,-2.086 3.987,-3.514l0,-7.362c-0.945,-1.875 -2.392,-3.358 -4.341,-4.452c-1.95,-1.093 -4.017,-1.639 -6.203,-1.639c-1.536,0 -2.939,0.256 -4.209,0.769c-1.27,0.514 -2.362,1.205 -3.278,2.075c-0.915,0.87 -1.624,1.874 -2.126,3.012c-0.502,1.138 -0.754,2.309 -0.754,3.514c0,1.294 0.281,2.488 0.842,3.581c0.561,1.093 1.344,2.042 2.348,2.845c1.004,0.803 2.171,1.428 3.5,1.874c1.329,0.446 2.791,0.669 4.386,0.669Z" style="fill:#acd9b8;fill-rule:nonzero;"/><path d="M277.3,310.5l-234.6,0c-17.5,0 -31.7,-14.2 -31.7,-31.7l0,-234.6c0,-17.5 14.2,-31.7 31.7,-31.7l234.6,0c17.5,0 31.7,14.2 31.7,31.7l0,234.6c0,17.5 -14.2,31.7 -31.7,31.7Z" style="fill:none;fill-rule:nonzero;stroke:#000;stroke-width:10px;"/></svg>