<?xml version="1.0" encoding="UTF-8" standalone="no"?><!DOCTYPE svg PUBLIC "-//W3C//DTD SVG 1.1//EN" "http://www.w3.org/Graphics/SVG/1.1/DTD/svg11.dtd"><svg width="100%" height="100%" viewBox="0 0 149 111" version="1.1" xmlns="http://www.w3.org/2000/svg" xmlns:xlink="http://www.w3.org/1999/xlink" xml:space="preserve" xmlns:serif="http://www.serif.com/" style="fill-rule:evenodd;clip-rule:evenodd;stroke-linejoin:round;stroke-miterlimit:1.41421;"><circle cx="72.168" cy="55.406" r="55.406"/><g><path d="M101.316,37.438c-0.447,-1.117 -1.006,-2.235 -1.621,-3.297l-1.062,0.615c0.615,1.006 1.118,2.068 1.565,3.185l1.118,-0.503Z" style="fill:#fff;fill-rule:nonzero;"/><path d="M97.627,31.067c-0.726,-0.95 -1.565,-1.901 -2.459,-2.795l-0.838,0.838c0.838,0.839 1.621,1.733 2.347,2.683l0.95,-0.726Z" style="fill:#fff;fill-rule:nonzero;"/><path d="M92.429,25.813c-0.95,-0.727 -2.012,-1.453 -3.074,-2.068l-0.615,1.062c1.006,0.615 2.013,1.229 2.963,1.956l0.726,-0.95Z" style="fill:#fff;fill-rule:nonzero;"/><path d="M78.736,21.453l0.167,-1.229c-1.229,-0.168 -2.459,-0.224 -3.689,-0.224l0,1.23c1.174,0 2.348,0.056 3.522,0.223Z" style="fill:#fff;fill-rule:nonzero;"/><path d="M103.217,44.537c-0.168,-1.23 -0.392,-2.459 -0.727,-3.633l-1.174,0.335c0.28,1.118 0.559,2.292 0.671,3.465l1.23,-0.167Z" style="fill:#fff;fill-rule:nonzero;"/><path d="M100.254,58.566l1.118,0.447c0.447,-1.118 0.894,-2.292 1.174,-3.521l-1.174,-0.336c-0.335,1.23 -0.671,2.348 -1.118,3.41Z" style="fill:#fff;fill-rule:nonzero;"/><path d="M48.442,51.859l-1.23,0.167c0.168,1.23 0.392,2.46 0.727,3.633l1.174,-0.335c-0.336,-1.118 -0.559,-2.292 -0.671,-3.465Z" style="fill:#fff;fill-rule:nonzero;"/><path d="M86.002,22.124c-1.118,-0.447 -2.292,-0.894 -3.522,-1.174l-0.279,1.174c1.118,0.279 2.292,0.671 3.354,1.118l0.447,-1.118Z" style="fill:#fff;fill-rule:nonzero;"/><path d="M71.693,21.453l-0.168,-1.229c-1.229,0.167 -2.459,0.391 -3.633,0.726l0.336,1.174c1.118,-0.28 2.291,-0.503 3.465,-0.671Z" style="fill:#fff;fill-rule:nonzero;"/><path d="M50.23,37.886l-1.117,-0.448c-0.448,1.118 -0.895,2.292 -1.174,3.522l1.174,0.335c0.279,-1.174 0.67,-2.292 1.117,-3.409Z" style="fill:#fff;fill-rule:nonzero;"/><path d="M102.266,48.226c0,1.173 -0.056,2.403 -0.223,3.521l1.229,0.168c0.168,-1.23 0.224,-2.46 0.224,-3.633l0,-0.056l-1.23,0Z" style="fill:#fff;fill-rule:nonzero;"/><path d="M48.162,48.282c0,-1.174 0.056,-2.348 0.224,-3.522l-1.174,-0.167c-0.167,1.229 -0.223,2.459 -0.223,3.689l0,0.055l1.229,0l0,-0.055l-0.056,0Z" style="fill:#fff;fill-rule:nonzero;"/><path d="M64.874,23.298l-0.447,-1.118c-1.118,0.447 -2.236,1.006 -3.298,1.621l0.615,1.062c0.95,-0.615 2.012,-1.118 3.13,-1.565Z" style="fill:#fff;fill-rule:nonzero;"/><path d="M53.752,31.793l-0.95,-0.726c-0.727,0.95 -1.454,2.012 -2.069,3.074l1.062,0.615c0.615,-1.006 1.23,-2.013 1.957,-2.963Z" style="fill:#fff;fill-rule:nonzero;"/><path d="M58.782,26.819l-0.727,-0.95c-0.95,0.726 -1.9,1.565 -2.794,2.459l0.838,0.838c0.839,-0.838 1.733,-1.621 2.683,-2.347Z" style="fill:#fff;fill-rule:nonzero;"/><path d="M32.513,81.482l-0.895,-0.783l23.363,-26.493l8.887,14.7l-1.006,0.615l-8.104,-13.247l-22.245,25.208Z" style="fill:#fff;fill-rule:nonzero;"/><path d="M89.579,67.732l-13.862,-23.028l-17.214,17.215l-0.839,-0.838l18.333,-18.333l14.644,24.369l-1.062,0.615Z" style="fill:#fff;fill-rule:nonzero;"/><path d="M111.88,74.495l-21.295,-21.239l-5.198,5.198l-0.839,-0.894l6.037,-6.037l22.133,22.134l-0.838,0.838Z" style="fill:#fff;fill-rule:nonzero;"/><path d="M73.787,31.511l-1.258,0.264l2.491,11.87l1.258,-0.264l-2.491,-11.87Z" style="fill:#fff;"/><path d="M73.314,31.682l8.049,-1.677l0.838,3.856l-8.104,1.677" style="fill:#91ffba;fill-rule:nonzero;"/></g></svg>