<?xml version="1.0" encoding="UTF-8" standalone="no"?><!DOCTYPE svg PUBLIC "-//W3C//DTD SVG 1.1//EN" "http://www.w3.org/Graphics/SVG/1.1/DTD/svg11.dtd"><svg width="100%" height="100%" viewBox="0 0 149 111" version="1.1" xmlns="http://www.w3.org/2000/svg" xmlns:xlink="http://www.w3.org/1999/xlink" xml:space="preserve" xmlns:serif="http://www.serif.com/" style="fill-rule:evenodd;clip-rule:evenodd;stroke-linejoin:round;stroke-miterlimit:2;"><circle cx="72.168" cy="55.406" r="55.406" style="fill-opacity:0;"/><g><path d="M127.035,31.429c-0.806,-2.013 -1.813,-4.028 -2.922,-5.942l-1.914,1.108c1.109,1.814 2.015,3.728 2.821,5.741l2.015,-0.907Z" style="fill:#132142;fill-rule:nonzero;"/><path d="M120.386,19.947c-1.309,-1.713 -2.821,-3.427 -4.432,-5.038l-1.51,1.51c1.51,1.513 2.921,3.124 4.23,4.836l1.712,-1.308Z" style="fill:#132142;fill-rule:nonzero;"/><path d="M111.017,10.477c-1.712,-1.31 -3.626,-2.619 -5.54,-3.727l-1.108,1.914c1.813,1.108 3.628,2.215 5.34,3.525l1.308,-1.712Z" style="fill:#132142;fill-rule:nonzero;"/><path d="M86.338,2.619l0.301,-2.215c-2.215,-0.303 -4.432,-0.404 -6.649,-0.404l0,2.217c2.116,0 4.232,0.101 6.348,0.402Z" style="fill:#132142;fill-rule:nonzero;"/><path d="M130.461,44.224c-0.303,-2.217 -0.706,-4.432 -1.31,-6.548l-2.116,0.604c0.505,2.015 1.007,4.131 1.209,6.245l2.217,-0.301Z" style="fill:#132142;fill-rule:nonzero;"/><path d="M125.121,69.509l2.015,0.806c0.805,-2.015 1.611,-4.131 2.116,-6.346l-2.116,-0.606c-0.604,2.217 -1.21,4.232 -2.015,6.146Z" style="fill:#132142;fill-rule:nonzero;"/><path d="M31.737,57.421l-2.216,0.301c0.302,2.217 0.706,4.434 1.31,6.548l2.116,-0.604c-0.606,-2.015 -1.008,-4.131 -1.21,-6.245Z" style="fill:#132142;fill-rule:nonzero;"/><path d="M99.434,3.828c-2.015,-0.805 -4.131,-1.611 -6.348,-2.116l-0.503,2.116c2.015,0.503 4.131,1.21 6.045,2.015l0.806,-2.015Z" style="fill:#132142;fill-rule:nonzero;"/><path d="M73.644,2.619l-0.303,-2.215c-2.215,0.301 -4.432,0.704 -6.548,1.308l0.606,2.116c2.015,-0.504 4.129,-0.906 6.245,-1.209Z" style="fill:#132142;fill-rule:nonzero;"/><path d="M34.96,32.237l-2.013,-0.808c-0.808,2.015 -1.613,4.131 -2.116,6.348l2.116,0.604c0.503,-2.116 1.207,-4.131 2.013,-6.144Z" style="fill:#132142;fill-rule:nonzero;"/><path d="M128.747,50.873c0,2.114 -0.101,4.331 -0.402,6.346l2.215,0.303c0.303,-2.217 0.404,-4.434 0.404,-6.548l0,-0.101l-2.217,0Z" style="fill:#132142;fill-rule:nonzero;"/><path d="M31.233,50.974c0,-2.116 0.101,-4.232 0.404,-6.348l-2.116,-0.301c-0.301,2.215 -0.402,4.432 -0.402,6.649l0,0.099l2.215,0l0,-0.099l-0.101,0Z" style="fill:#132142;fill-rule:nonzero;"/><path d="M61.354,5.944l-0.806,-2.015c-2.015,0.806 -4.03,1.813 -5.944,2.922l1.108,1.914c1.713,-1.109 3.627,-2.015 5.642,-2.821Z" style="fill:#132142;fill-rule:nonzero;"/><path d="M41.308,21.255l-1.712,-1.308c-1.311,1.712 -2.621,3.626 -3.729,5.54l1.914,1.108c1.108,-1.813 2.217,-3.628 3.527,-5.34Z" style="fill:#132142;fill-rule:nonzero;"/><path d="M50.374,12.29l-1.311,-1.712c-1.712,1.308 -3.424,2.821 -5.035,4.432l1.51,1.51c1.512,-1.51 3.124,-2.921 4.836,-4.23Z" style="fill:#132142;fill-rule:nonzero;"/><path d="M3.028,110.812l-1.613,-1.411l42.108,-47.75l16.018,26.495l-1.814,1.108l-14.606,-23.876l-40.093,45.434Z" style="fill:#132142;fill-rule:nonzero;"/><path d="M105.881,86.03l-24.984,-41.505l-31.026,31.028l-1.512,-1.511l33.042,-33.042l26.394,43.921l-1.914,1.109Z" style="fill:#132142;fill-rule:nonzero;"/><path d="M146.075,98.219l-38.381,-38.28l-9.369,9.369l-1.512,-1.612l10.881,-10.881l39.891,39.894l-1.51,1.51Z" style="fill:#132142;fill-rule:nonzero;"/><path d="M77.418,20.747l-2.267,0.476l4.489,21.394l2.268,-0.476l-4.49,-21.394Z" style="fill:#132142;"/><path d="M76.565,21.055l14.508,-3.023l1.51,6.95l-14.606,3.023" style="fill:#1f9baa;fill-rule:nonzero;"/></g></svg>