<?xml version="1.0" encoding="utf-8"?>
<!-- Generator: Adobe Illustrator 21.0.0, SVG Export Plug-In . SVG Version: 6.00 Build 0)  -->
<svg version="1.1" id="Warstwa_1" xmlns="http://www.w3.org/2000/svg" xmlns:xlink="http://www.w3.org/1999/xlink" x="0px" y="0px"
	 viewBox="0 0 149 111" style="enable-background:new 0 0 149 111;" xml:space="preserve">
<style type="text/css">
	.st0{fill:#FFFFFF;}
	.st1{fill:#91FFBA;}
</style>
<g>
	<polygon class="st0" points="3.1,110 1.5,108.6 43.3,61.2 59.2,87.5 57.4,88.6 42.9,64.9 	"/>
</g>
<g>
	<polygon class="st0" points="105.2,85.4 80.4,44.2 49.6,75 48.1,73.5 80.9,40.7 107.1,84.3 	"/>
</g>
<g>
	<polygon class="st0" points="145.1,97.5 107,59.5 97.7,68.8 96.2,67.2 107,56.4 146.6,96 	"/>
</g>
<g>
	
		<rect x="76.9" y="20.6" transform="matrix(0.9787 -0.2054 0.2054 0.9787 -4.7986 16.7008)" class="st0" width="2.3" height="21.7"/>
</g>
<polyline class="st1" points="76.1,20.9 90.5,17.9 92,24.8 77.5,27.8 "/>
<g>
	<path class="st0" d="M126.2,31.2c-0.8-2-1.8-4-2.9-5.9l-1.9,1.1c1.1,1.8,2,3.7,2.8,5.7L126.2,31.2z"/>
	<path class="st0" d="M119.6,19.8c-1.3-1.7-2.8-3.4-4.4-5l-1.5,1.5c1.5,1.5,2.9,3.1,4.2,4.8L119.6,19.8z"/>
	<path class="st0" d="M110.3,10.4c-1.7-1.3-3.6-2.6-5.5-3.7l-1.1,1.9c1.8,1.1,3.6,2.2,5.3,3.5L110.3,10.4z"/>
	<path class="st0" d="M85.8,2.6l0.3-2.2C83.9,0.1,81.7,0,79.5,0h0l0,2.2C81.6,2.2,83.7,2.3,85.8,2.6z"/>
	<path class="st0" d="M129.6,43.9c-0.3-2.2-0.7-4.4-1.3-6.5l-2.1,0.6c0.5,2,1,4.1,1.2,6.2L129.6,43.9z"/>
	<path class="st0" d="M124.3,69l2,0.8c0.8-2,1.6-4.1,2.1-6.3l-2.1-0.6C125.7,65.1,125.1,67.1,124.3,69z"/>
	<path class="st0" d="M31.6,57l-2.2,0.3c0.3,2.2,0.7,4.4,1.3,6.5l2.1-0.6C32.2,61.2,31.8,59.1,31.6,57z"/>
	<path class="st0" d="M98.8,3.8c-2-0.8-4.1-1.6-6.3-2.1L92,3.8c2,0.5,4.1,1.2,6,2L98.8,3.8z"/>
	<path class="st0" d="M73.2,2.6l-0.3-2.2c-2.2,0.3-4.4,0.7-6.5,1.3L67,3.8C69,3.3,71.1,2.9,73.2,2.6z"/>
	<path class="st0" d="M34.8,32l-2-0.8c-0.8,2-1.6,4.1-2.1,6.3l2.1,0.6C33.3,36,34,34,34.8,32z"/>
	<path class="st0" d="M127.9,50.5L127.9,50.5c0,2.1-0.1,4.3-0.4,6.3l2.2,0.3c0.3-2.2,0.4-4.4,0.4-6.5v-0.1H127.9z"/>
	<path class="st0" d="M31.1,50.6c0-2.1,0.1-4.2,0.4-6.3L29.4,44c-0.3,2.2-0.4,4.4-0.4,6.6v0.1h2.2V50.6z"/>
	<path class="st0" d="M61,5.9l-0.8-2c-2,0.8-4,1.8-5.9,2.9l1.1,1.9C57.1,7.6,59,6.7,61,5.9z"/>
	<path class="st0" d="M41.1,21.1l-1.7-1.3c-1.3,1.7-2.6,3.6-3.7,5.5l1.9,1.1C38.7,24.6,39.8,22.8,41.1,21.1z"/>
	<path class="st0" d="M50.1,12.2l-1.3-1.7c-1.7,1.3-3.4,2.8-5,4.4l1.5,1.5C46.8,14.9,48.4,13.5,50.1,12.2z"/>
</g>
</svg>
