<?xml version="1.0" encoding="UTF-8" standalone="no"?><!DOCTYPE svg PUBLIC "-//W3C//DTD SVG 1.1//EN" "http://www.w3.org/Graphics/SVG/1.1/DTD/svg11.dtd"><svg width="100%" height="100%" viewBox="0 0 149 111" version="1.1" xmlns="http://www.w3.org/2000/svg" xmlns:xlink="http://www.w3.org/1999/xlink" xml:space="preserve" xmlns:serif="http://www.serif.com/" style="fill-rule:evenodd;clip-rule:evenodd;stroke-linejoin:round;stroke-miterlimit:2;"><circle cx="73.161" cy="55.594" r="55.406" style="fill-opacity:0;"/><g><path d="M58.45,32.964l-19.062,-32.765l39.654,0l-20.592,32.765Zm-14.474,-30.077l14.576,25.013l15.699,-25.013l-30.275,0Z" style="fill:#132142;fill-rule:nonzero;"/><path d="M93.452,32.964l-19.165,-32.765l39.654,0l-20.489,32.765Zm-14.577,-30.077l14.577,25.013l15.697,-25.013l-30.274,0Z" style="fill:#132142;fill-rule:nonzero;"/><path d="M39.388,0.257l-17.085,28.923l2.314,1.366l17.085,-28.923l-2.314,-1.366Z" style="fill:#132142;"/><path d="M113.909,0.188l-2.313,1.367l17.089,28.92l2.313,-1.368l-17.089,-28.919Z" style="fill:#132142;"/><path d="M75.799,111l-53.558,-81.799l2.249,-1.578l51.445,78.541l52.712,-78.436l2.208,1.368l-55.056,81.904Z" style="fill:#132142;fill-rule:nonzero;"/><rect x="24.468" y="28.519" width="104.212" height="2.688" style="fill:#132142;"/><path d="M76.044,109.45l-19.156,-78.701l2.619,-0.678l16.611,68.025l16.247,-67.832l2.667,0.389l-18.988,78.797Z" style="fill:#132142;fill-rule:nonzero;"/></g></svg>