<?xml version="1.0" encoding="UTF-8" standalone="no"?><!DOCTYPE svg PUBLIC "-//W3C//DTD SVG 1.1//EN" "http://www.w3.org/Graphics/SVG/1.1/DTD/svg11.dtd"><svg width="100%" height="100%" viewBox="0 0 149 111" version="1.1" xmlns="http://www.w3.org/2000/svg" xmlns:xlink="http://www.w3.org/1999/xlink" xml:space="preserve" xmlns:serif="http://www.serif.com/" style="fill-rule:evenodd;clip-rule:evenodd;stroke-linejoin:round;stroke-miterlimit:1.41421;"><circle cx="72.168" cy="55.406" r="55.406"/><g><path d="M60.463,42.219l-13.824,-23.761l28.757,0l-14.933,23.761Zm-10.497,-21.812l10.571,18.14l11.385,-18.14l-21.956,0Z" style="fill:#fff;fill-rule:nonzero;"/><path d="M85.846,42.219l-13.898,-23.761l28.757,0l-14.859,23.761Zm-10.571,-21.812l10.571,18.14l11.384,-18.14l-21.955,0Z" style="fill:#fff;fill-rule:nonzero;"/><path d="M46.639,18.5l-12.39,20.975l1.678,0.991l12.39,-20.975l-1.678,-0.991Z" style="fill:#fff;"/><path d="M100.682,18.45l-1.678,0.991l12.393,20.973l1.678,-0.992l-12.393,-20.972Z" style="fill:#fff;"/><path d="M73.044,98.811l-38.84,-59.321l1.631,-1.144l37.308,56.958l38.227,-56.882l1.601,0.992l-39.927,59.397Z" style="fill:#fff;fill-rule:nonzero;"/><rect x="35.819" y="38.996" width="75.575" height="1.949" style="fill:#fff;"/><path d="M73.222,97.687l-13.892,-57.074l1.899,-0.492l12.047,49.332l11.782,-49.192l1.934,0.282l-13.77,57.144Z" style="fill:#fff;fill-rule:nonzero;"/></g></svg>