<?xml version="1.0" encoding="UTF-8" standalone="no"?><!DOCTYPE svg PUBLIC "-//W3C//DTD SVG 1.1//EN" "http://www.w3.org/Graphics/SVG/1.1/DTD/svg11.dtd"><svg width="100%" height="100%" viewBox="0 0 149 111" version="1.1" xmlns="http://www.w3.org/2000/svg" xmlns:xlink="http://www.w3.org/1999/xlink" xml:space="preserve" xmlns:serif="http://www.serif.com/" style="fill-rule:evenodd;clip-rule:evenodd;stroke-linejoin:round;stroke-miterlimit:1.41421;"><g><path d="M56.332,32.776l-19.063,-32.765l39.654,0l-20.591,32.765Zm-14.475,-30.077l14.576,25.012l15.699,-25.012l-30.275,0Z" style="fill:#fff;fill-rule:nonzero;"/><path d="M91.332,32.776l-19.164,-32.765l39.654,0l-20.49,32.765Zm-14.577,-30.077l14.577,25.012l15.699,-25.012l-30.276,0Z" style="fill:#fff;fill-rule:nonzero;"/><path d="M37.269,0.069l-17.084,28.922l2.314,1.367l17.084,-28.922l-2.314,-1.367Z" style="fill:#fff;"/><path d="M111.79,0l-2.313,1.367l17.088,28.919l2.313,-1.367l-17.088,-28.919Z" style="fill:#fff;"/><path d="M73.68,110.811l-53.558,-81.799l2.25,-1.577l51.444,78.54l52.712,-78.435l2.207,1.367l-55.055,81.904Z" style="fill:#fff;fill-rule:nonzero;"/><rect x="22.35" y="28.332" width="104.212" height="2.687" style="fill:#fff;"/><path d="M73.925,109.261l-19.156,-78.7l2.619,-0.679l16.612,68.025l16.246,-67.831l2.667,0.388l-18.988,78.797Z" style="fill:#fff;fill-rule:nonzero;"/></g></svg>