<?xml version="1.0" encoding="utf-8"?>
<!-- Generator: Adobe Illustrator 21.0.0, SVG Export Plug-In . SVG Version: 6.00 Build 0)  -->
<svg version="1.1" id="Warstwa_1" xmlns="http://www.w3.org/2000/svg" xmlns:xlink="http://www.w3.org/1999/xlink" x="0px" y="0px"
	 viewBox="0 0 149 111" style="enable-background:new 0 0 149 111;" xml:space="preserve">
<style type="text/css">
	.st0{fill:#FFFFFF;}
	.st1{fill:#91FFBA;}
</style>
<g>
	<path class="st0" d="M27.5,84.8c-10.9,0-20.6,5-27,12.8c0.4,0.4,0.8,0.9,1.1,1.4C7.6,91.5,17,86.6,27.5,86.6
		c10.3,0,19.5,4.7,25.6,12.1c0.3-0.5,0.7-1,1.1-1.4C47.7,89.7,38.2,84.8,27.5,84.8z"/>
</g>
<g>
	<path class="st0" d="M53.8,95.9c-6.1,7.9-15.6,13-26.3,13c-10.1,0-19.1-4.5-25.2-11.7c-0.4,0.4-0.9,0.7-1.4,1
		c6.4,7.5,16,12.3,26.6,12.3c11.2,0,21.1-5.3,27.5-13.4C54.6,96.8,54.2,96.3,53.8,95.9z"/>
</g>
<g>
	<path class="st0" d="M27.5,107.7c-5.4,0-9.9-4.4-9.9-9.9s4.4-9.9,9.9-9.9s9.9,4.4,9.9,9.9S32.9,107.7,27.5,107.7z M27.5,89.8
		c-4.5,0-8.1,3.6-8.1,8.1c0,4.5,3.6,8.1,8.1,8.1s8.1-3.6,8.1-8.1C35.6,93.4,32,89.8,27.5,89.8z"/>
</g>
<g>
	<rect x="8.2" y="78.9" transform="matrix(0.7071 -0.7071 0.7071 0.7071 -55.8351 30.6578)" class="st0" width="1.7" height="7.6"/>
</g>
<g>
	<rect x="26.6" y="74.6" class="st0" width="1.7" height="7.6"/>
</g>
<g>
	
		<rect x="42.1" y="81.9" transform="matrix(0.7071 -0.7071 0.7071 0.7071 -45.0467 56.7034)" class="st0" width="7.6" height="1.7"/>
</g>
<g>
	<path class="st0" d="M73.5,9.8c-10.9,0-20.6,5-27,12.8c0.4,0.4,0.8,0.9,1.1,1.4c6.1-7.6,15.5-12.5,25.9-12.5
		c10.3,0,19.5,4.7,25.6,12.1c0.3-0.5,0.7-1,1.1-1.4C93.7,14.7,84.2,9.8,73.5,9.8z"/>
</g>
<g>
	<path class="st0" d="M99.8,20.9c-6.1,7.9-15.6,13-26.3,13c-10.1,0-19.1-4.5-25.2-11.7c-0.4,0.4-0.9,0.7-1.4,1
		c6.4,7.5,16,12.3,26.6,12.3c11.2,0,21.1-5.3,27.5-13.4C100.6,21.8,100.2,21.3,99.8,20.9z"/>
</g>
<g>
	<path class="st0" d="M73.5,32.7c-5.4,0-9.9-4.4-9.9-9.9s4.4-9.9,9.9-9.9c5.4,0,9.9,4.4,9.9,9.9S78.9,32.7,73.5,32.7z M73.5,14.8
		c-4.5,0-8.1,3.6-8.1,8.1S69,31,73.5,31c4.5,0,8.1-3.6,8.1-8.1S78,14.8,73.5,14.8z"/>
</g>
<g>
	<rect x="54.2" y="3.9" transform="matrix(0.7071 -0.7071 0.7071 0.7071 10.671 41.2177)" class="st0" width="1.7" height="7.6"/>
</g>
<g>
	<rect x="72.6" y="-0.4" class="st0" width="1.7" height="7.6"/>
</g>
<g>
	<rect x="88.1" y="6.9" transform="matrix(0.7071 -0.7071 0.7071 0.7071 21.4594 67.2633)" class="st0" width="7.6" height="1.7"/>
</g>
<g>
	<path class="st0" d="M121.5,54.8c-10.9,0-20.6,5-27,12.8c0.4,0.4,0.8,0.9,1.1,1.4c6.1-7.6,15.5-12.5,25.9-12.5
		c10.3,0,19.5,4.7,25.6,12.1c0.3-0.5,0.7-1,1.1-1.4C141.7,59.7,132.2,54.8,121.5,54.8z"/>
</g>
<g>
	<path class="st0" d="M147.8,65.9c-6.1,7.9-15.6,13-26.3,13c-10.1,0-19.1-4.5-25.2-11.7c-0.4,0.4-0.9,0.7-1.4,1
		c6.4,7.5,16,12.3,26.6,12.3c11.2,0,21.1-5.3,27.5-13.4C148.6,66.8,148.2,66.3,147.8,65.9z"/>
</g>
<g>
	<path class="st0" d="M121.5,77.7c-5.4,0-9.9-4.4-9.9-9.9s4.4-9.9,9.9-9.9c5.4,0,9.9,4.4,9.9,9.9S126.9,77.7,121.5,77.7z
		 M121.5,59.8c-4.5,0-8.1,3.6-8.1,8.1c0,4.5,3.6,8.1,8.1,8.1c4.5,0,8.1-3.6,8.1-8.1C129.6,63.4,126,59.8,121.5,59.8z"/>
</g>
<g>
	<rect x="102.2" y="48.9" transform="matrix(0.7071 -0.7071 0.7071 0.7071 -7.09 88.339)" class="st0" width="1.7" height="7.6"/>
</g>
<g>
	<rect x="120.6" y="44.6" class="st0" width="1.7" height="7.6"/>
</g>
<g>
	
		<rect x="136.1" y="51.9" transform="matrix(0.7071 -0.7071 0.7071 0.7071 3.6985 114.3847)" class="st0" width="7.6" height="1.7"/>
</g>
<g>
	<rect x="27.1" y="53" transform="matrix(0.4903 -0.8715 0.8715 0.4903 -24.3084 67.4337)" class="st1" width="36.7" height="3"/>
</g>
<g>
	<rect x="99.8" y="34.3" transform="matrix(0.7071 -0.7071 0.7071 0.7071 0.1337 83.8229)" class="st1" width="3" height="14.8"/>
</g>
<g>
	<rect x="56.6" y="83.5" transform="matrix(0.8574 -0.5146 0.5146 0.8574 -32.7647 51.7477)" class="st1" width="40.8" height="3"/>
</g>
</svg>
