<?xml version="1.0" encoding="UTF-8" standalone="no"?><!DOCTYPE svg PUBLIC "-//W3C//DTD SVG 1.1//EN" "http://www.w3.org/Graphics/SVG/1.1/DTD/svg11.dtd"><svg width="100%" height="100%" viewBox="0 0 149 111" version="1.1" xmlns="http://www.w3.org/2000/svg" xmlns:xlink="http://www.w3.org/1999/xlink" xml:space="preserve" xmlns:serif="http://www.serif.com/" style="fill-rule:evenodd;clip-rule:evenodd;stroke-linejoin:round;stroke-miterlimit:2;"><circle cx="72.168" cy="55.406" r="55.406" style="fill-opacity:0;"/><g id="Layer1"><path d="M27.289,85.132c-10.892,0 -20.585,4.997 -26.98,12.791c0.4,0.398 0.8,0.898 1.1,1.398c5.995,-7.494 15.387,-12.39 25.88,-12.39c10.291,0 19.483,4.696 25.578,12.09c0.3,-0.5 0.7,-1 1.1,-1.398c-6.495,-7.594 -15.987,-12.491 -26.678,-12.491Z" style="fill:#132142;fill-rule:nonzero;"/><path d="M53.567,96.223c-6.095,7.895 -15.587,12.99 -26.278,12.99c-10.094,0 -19.086,-4.496 -25.18,-11.69c-0.4,0.4 -0.9,0.698 -1.4,0.998c6.395,7.494 15.987,12.291 26.58,12.291c11.189,0 21.083,-5.297 27.477,-13.389c-0.399,-0.3 -0.799,-0.8 -1.199,-1.2Z" style="fill:#132142;fill-rule:nonzero;"/><path d="M27.289,108.015c-5.397,0 -9.894,-4.397 -9.894,-9.894c0,-5.495 4.397,-9.892 9.894,-9.892c5.495,0 9.892,4.397 9.892,9.892c0,5.497 -4.497,9.894 -9.892,9.894Zm0,-17.886c-4.497,0 -8.094,3.597 -8.094,8.092c0,4.497 3.597,8.094 8.094,8.094c4.495,0 8.092,-3.597 8.092,-8.094c0,-4.495 -3.597,-8.092 -8.092,-8.092Z" style="fill:#132142;fill-rule:nonzero;"/><path d="M6.761,79.784l-1.202,1.201l5.369,5.37l1.201,-1.201l-5.368,-5.37Z" style="fill:#132142;"/><rect x="26.389" y="74.94" width="1.699" height="7.594" style="fill:#132142;"/><path d="M47.779,79.809l-5.37,5.37l1.201,1.201l5.37,-5.37l-1.201,-1.201Z" style="fill:#132142;"/><path d="M73.252,10.192c-10.891,0 -20.585,4.996 -26.979,12.79c0.399,0.399 0.799,0.899 1.099,1.398c6.095,-7.594 15.488,-12.489 25.88,-12.489c10.292,0 19.484,4.695 25.578,12.089c0.3,-0.499 0.7,-0.998 1.1,-1.397c-6.495,-7.495 -15.986,-12.391 -26.678,-12.391Z" style="fill:#132142;fill-rule:nonzero;"/><path d="M99.53,21.283c-6.095,7.894 -15.586,12.989 -26.278,12.989c-10.093,0 -19.085,-4.495 -25.18,-11.689c-0.4,0.399 -0.9,0.698 -1.4,0.998c6.395,7.494 15.989,12.291 26.58,12.291c11.19,0 21.083,-5.297 27.478,-13.389c-0.4,-0.3 -0.8,-0.8 -1.2,-1.2Z" style="fill:#132142;fill-rule:nonzero;"/><path d="M73.252,33.074c-5.396,0 -9.893,-4.397 -9.893,-9.893c0,-5.495 4.397,-9.892 9.893,-9.892c5.395,0 9.892,4.397 9.892,9.892c0,5.496 -4.497,9.893 -9.892,9.893Zm0,-17.886c-4.497,0 -8.094,3.598 -8.094,8.093c0,4.497 3.597,8.094 8.094,8.094c4.495,0 8.092,-3.597 8.092,-8.094c0,-4.495 -3.597,-8.093 -8.092,-8.093Z" style="fill:#132142;fill-rule:nonzero;"/><path d="M52.724,4.845l-1.201,1.201l5.369,5.37l1.202,-1.201l-5.37,-5.37Z" style="fill:#132142;"/><rect x="72.352" y="0" width="1.699" height="7.594" style="fill:#132142;"/><path d="M93.744,4.868l-5.37,5.37l1.201,1.202l5.368,-5.37l-1.199,-1.202Z" style="fill:#132142;"/><path d="M121.213,55.157c-10.891,0 -20.583,4.995 -26.978,12.789c0.4,0.4 0.798,0.9 1.098,1.4c6.097,-7.595 15.488,-12.491 25.88,-12.491c10.292,0 19.485,4.696 25.58,12.091c0.3,-0.5 0.7,-1 1.1,-1.4c-6.497,-7.494 -15.988,-12.389 -26.68,-12.389Z" style="fill:#132142;fill-rule:nonzero;"/><path d="M147.493,66.247c-6.097,7.894 -15.588,12.99 -26.28,12.99c-10.092,0 -19.084,-4.497 -25.18,-11.691c-0.4,0.4 -0.9,0.7 -1.398,1c6.395,7.494 15.986,12.289 26.578,12.289c11.191,0 21.083,-5.295 27.478,-13.389c-0.399,-0.3 -0.798,-0.8 -1.198,-1.199Z" style="fill:#132142;fill-rule:nonzero;"/><path d="M121.213,78.038c-5.395,0 -9.892,-4.397 -9.892,-9.892c0,-5.497 4.397,-9.892 9.892,-9.892c5.397,0 9.892,4.395 9.892,9.892c0,5.495 -4.495,9.892 -9.892,9.892Zm0,-17.886c-4.497,0 -8.094,3.597 -8.094,8.094c0,4.497 3.597,8.094 8.094,8.094c4.497,0 8.094,-3.597 8.094,-8.094c0,-4.497 -3.597,-8.094 -8.094,-8.094Z" style="fill:#132142;fill-rule:nonzero;"/><path d="M100.685,49.809l-1.202,1.201l5.37,5.37l1.202,-1.201l-5.37,-5.37Z" style="fill:#132142;"/><rect x="120.313" y="44.964" width="1.699" height="7.594" style="fill:#132142;"/><path d="M141.705,49.834l-5.37,5.37l1.201,1.201l5.37,-5.37l-1.201,-1.201Z" style="fill:#132142;"/><path d="M52.93,38.187l-17.98,31.958l2.612,1.472l17.981,-31.96l-2.613,-1.47Z" style="fill:#1f9baa;"/><path d="M96.809,35.758l-2.119,2.12l10.457,10.456l2.119,-2.119l-10.457,-10.457Z" style="fill:#1f9baa;"/><path d="M93.45,73.559l-34.953,20.98l1.543,2.571l34.953,-20.98l-1.543,-2.571Z" style="fill:#1f9baa;"/></g></svg>