<?xml version="1.0" encoding="UTF-8" standalone="no"?><!DOCTYPE svg PUBLIC "-//W3C//DTD SVG 1.1//EN" "http://www.w3.org/Graphics/SVG/1.1/DTD/svg11.dtd"><svg width="100%" height="100%" viewBox="0 0 149 111" version="1.1" xmlns="http://www.w3.org/2000/svg" xmlns:xlink="http://www.w3.org/1999/xlink" xml:space="preserve" xmlns:serif="http://www.serif.com/" style="fill-rule:evenodd;clip-rule:evenodd;stroke-linejoin:round;stroke-miterlimit:1.41421;"><circle cx="72.168" cy="55.406" r="55.406"/><g id="Layer1"><path d="M43.832,68.696c-6.537,0 -12.355,2.999 -16.193,7.677c0.24,0.239 0.48,0.539 0.66,0.839c3.598,-4.498 9.235,-7.436 15.533,-7.436c6.177,0 11.694,2.818 15.352,7.256c0.18,-0.3 0.42,-0.6 0.66,-0.839c-3.898,-4.558 -9.595,-7.497 -16.012,-7.497Z" style="fill:#fff;fill-rule:nonzero;"/><path d="M59.604,75.353c-3.658,4.738 -9.355,7.796 -15.772,7.796c-6.058,0 -11.455,-2.698 -15.113,-7.016c-0.24,0.24 -0.54,0.419 -0.84,0.599c3.838,4.498 9.595,7.377 15.953,7.377c6.716,0 12.654,-3.179 16.492,-8.036c-0.24,-0.18 -0.48,-0.48 -0.72,-0.72Z" style="fill:#fff;fill-rule:nonzero;"/><path d="M43.832,82.43c-3.239,0 -5.938,-2.639 -5.938,-5.938c0,-3.298 2.639,-5.937 5.938,-5.937c3.298,0 5.937,2.639 5.937,5.937c0,3.299 -2.699,5.938 -5.937,5.938Zm0,-10.735c-2.699,0 -4.858,2.159 -4.858,4.857c0,2.699 2.159,4.858 4.858,4.858c2.698,0 4.857,-2.159 4.857,-4.858c0,-2.698 -2.159,-4.857 -4.857,-4.857Z" style="fill:#fff;fill-rule:nonzero;"/><path d="M31.511,65.486l-0.721,0.721l3.222,3.223l0.721,-0.721l-3.222,-3.223Z" style="fill:#fff;"/><rect x="43.292" y="62.579" width="1.02" height="4.558" style="fill:#fff;"/><path d="M56.13,65.501l-3.223,3.223l0.721,0.721l3.223,-3.223l-0.721,-0.721Z" style="fill:#fff;"/><path d="M71.419,23.717c-6.537,0 -12.355,2.999 -16.193,7.677c0.24,0.239 0.48,0.539 0.66,0.839c3.658,-4.558 9.296,-7.496 15.533,-7.496c6.177,0 11.694,2.818 15.352,7.256c0.18,-0.3 0.42,-0.599 0.66,-0.839c-3.898,-4.498 -9.595,-7.437 -16.012,-7.437Z" style="fill:#fff;fill-rule:nonzero;"/><path d="M87.191,30.374c-3.658,4.738 -9.355,7.796 -15.772,7.796c-6.058,0 -11.455,-2.698 -15.113,-7.016c-0.24,0.24 -0.54,0.419 -0.84,0.599c3.838,4.498 9.596,7.377 15.953,7.377c6.716,0 12.654,-3.179 16.492,-8.036c-0.24,-0.18 -0.48,-0.48 -0.72,-0.72Z" style="fill:#fff;fill-rule:nonzero;"/><path d="M71.419,37.451c-3.239,0 -5.938,-2.639 -5.938,-5.938c0,-3.298 2.639,-5.937 5.938,-5.937c3.238,0 5.937,2.639 5.937,5.937c0,3.299 -2.699,5.938 -5.937,5.938Zm0,-10.735c-2.699,0 -4.858,2.159 -4.858,4.857c0,2.699 2.159,4.858 4.858,4.858c2.698,0 4.857,-2.159 4.857,-4.858c0,-2.698 -2.159,-4.857 -4.857,-4.857Z" style="fill:#fff;fill-rule:nonzero;"/><path d="M59.098,20.508l-0.721,0.721l3.223,3.223l0.721,-0.721l-3.223,-3.223Z" style="fill:#fff;"/><rect x="70.879" y="17.6" width="1.02" height="4.558" style="fill:#fff;"/><path d="M83.718,20.522l-3.223,3.223l0.721,0.721l3.222,-3.223l-0.72,-0.721Z" style="fill:#fff;"/><path d="M100.205,50.705c-6.537,0 -12.354,2.998 -16.192,7.676c0.24,0.24 0.479,0.54 0.659,0.84c3.659,-4.558 9.296,-7.497 15.533,-7.497c6.177,0 11.695,2.819 15.353,7.257c0.18,-0.3 0.42,-0.6 0.66,-0.84c-3.899,-4.498 -9.596,-7.436 -16.013,-7.436Z" style="fill:#fff;fill-rule:nonzero;"/><path d="M115.978,57.361c-3.659,4.738 -9.356,7.797 -15.773,7.797c-6.057,0 -11.454,-2.699 -15.113,-7.017c-0.24,0.24 -0.54,0.42 -0.839,0.6c3.838,4.498 9.595,7.376 15.952,7.376c6.717,0 12.654,-3.178 16.492,-8.036c-0.239,-0.18 -0.479,-0.48 -0.719,-0.72Z" style="fill:#fff;fill-rule:nonzero;"/><path d="M100.205,64.438c-3.238,0 -5.937,-2.639 -5.937,-5.937c0,-3.299 2.639,-5.937 5.937,-5.937c3.239,0 5.937,2.638 5.937,5.937c0,3.298 -2.698,5.937 -5.937,5.937Zm0,-10.735c-2.699,0 -4.858,2.159 -4.858,4.858c0,2.699 2.159,4.858 4.858,4.858c2.699,0 4.858,-2.159 4.858,-4.858c0,-2.699 -2.159,-4.858 -4.858,-4.858Z" style="fill:#fff;fill-rule:nonzero;"/><path d="M87.884,47.495l-0.721,0.721l3.223,3.223l0.721,-0.721l-3.223,-3.223Z" style="fill:#fff;"/><rect x="99.665" y="44.587" width="1.02" height="4.558" style="fill:#fff;"/><path d="M112.504,47.51l-3.223,3.223l0.721,0.721l3.223,-3.223l-0.721,-0.721Z" style="fill:#fff;"/><path d="M59.222,40.52l-10.792,19.181l1.568,0.883l10.792,-19.182l-1.568,-0.882Z" style="fill:#91ffba;"/><path d="M85.558,39.062l-1.272,1.272l6.276,6.276l1.272,-1.272l-6.276,-6.276Z" style="fill:#91ffba;"/><path d="M83.542,61.75l-20.979,12.592l0.926,1.543l20.979,-12.592l-0.926,-1.543Z" style="fill:#91ffba;"/></g></svg>