<?xml version="1.0" encoding="UTF-8" standalone="no"?><!DOCTYPE svg PUBLIC "-//W3C//DTD SVG 1.1//EN" "http://www.w3.org/Graphics/SVG/1.1/DTD/svg11.dtd"><svg width="100%" height="100%" viewBox="0 0 536 34" version="1.1" xmlns="http://www.w3.org/2000/svg" xmlns:xlink="http://www.w3.org/1999/xlink" xml:space="preserve" xmlns:serif="http://www.serif.com/" style="fill-rule:evenodd;clip-rule:evenodd;stroke-linejoin:round;stroke-miterlimit:1.41421;"><clipPath id="_clip1"><rect x="0" y="0" width="67" height="33.5"/></clipPath><g clip-path="url(#_clip1)"><path d="M33.5,0l33.5,33.5l-33.5,33.5l-33.5,-33.5l33.5,-33.5Z" style="fill:#f1ffff;"/></g><clipPath id="_clip2"><rect x="67" y="0" width="67" height="33.5"/></clipPath><g clip-path="url(#_clip2)"><path d="M100.5,0l33.5,33.5l-33.5,33.5l-33.5,-33.5l33.5,-33.5Z" style="fill:#f1ffff;"/></g><clipPath id="_clip3"><rect x="402" y="0" width="67" height="33.5"/></clipPath><g clip-path="url(#_clip3)"><path d="M435.5,0l33.5,33.5l-33.5,33.5l-33.5,-33.5l33.5,-33.5Z" style="fill:#f1ffff;"/></g><clipPath id="_clip4"><rect x="469" y="0" width="67" height="33.5"/></clipPath><g clip-path="url(#_clip4)"><path d="M502.5,0l33.5,33.5l-33.5,33.5l-33.5,-33.5l33.5,-33.5Z" style="fill:#f1ffff;"/></g><rect id="Artboard1" x="0" y="0" width="536" height="33.5" style="fill:none;"/><clipPath id="_clip5"><rect x="134" y="0" width="67" height="33.5"/></clipPath><g clip-path="url(#_clip5)"><path d="M167.5,0l33.5,33.5l-33.5,33.5l-33.5,-33.5l33.5,-33.5Z" style="fill:#f1ffff;"/></g><clipPath id="_clip6"><rect x="201" y="0" width="67" height="33.5"/></clipPath><g clip-path="url(#_clip6)"><path d="M234.5,0l33.5,33.5l-33.5,33.5l-33.5,-33.5l33.5,-33.5Z" style="fill:#f1ffff;"/></g><clipPath id="_clip7"><rect x="268" y="0" width="67" height="33.5"/></clipPath><g clip-path="url(#_clip7)"><path d="M301.5,0l33.5,33.5l-33.5,33.5l-33.5,-33.5l33.5,-33.5Z" style="fill:#f1ffff;"/></g><clipPath id="_clip8"><rect x="335" y="0" width="67" height="33.5"/></clipPath><g clip-path="url(#_clip8)"><path d="M368.5,0l33.5,33.5l-33.5,33.5l-33.5,-33.5l33.5,-33.5Z" style="fill:#f1ffff;"/></g></svg>