<?xml version="1.0" encoding="UTF-8" standalone="no"?><!DOCTYPE svg PUBLIC "-//W3C//DTD SVG 1.1//EN" "http://www.w3.org/Graphics/SVG/1.1/DTD/svg11.dtd"><svg width="100%" height="100%" viewBox="0 0 24 24" version="1.1" xmlns="http://www.w3.org/2000/svg" xmlns:xlink="http://www.w3.org/1999/xlink" xml:space="preserve" xmlns:serif="http://www.serif.com/" style="fill-rule:evenodd;clip-rule:evenodd;stroke-linecap:round;stroke-linejoin:round;"><path d="M22.54,6.42c-0.241,-0.965 -0.983,-1.729 -1.94,-2c-1.72,-0.42 -8.6,-0.42 -8.6,-0.42c0,0 -6.88,0 -8.6,0.46c-0.957,0.271 -1.699,1.035 -1.94,2c-0.315,1.746 -0.469,3.516 -0.46,5.29c-0.011,1.787 0.143,3.571 0.46,5.33c0.266,0.934 1.003,1.664 1.94,1.92c1.72,0.46 8.6,0.46 8.6,0.46c0,0 6.88,0 8.6,-0.46c0.957,-0.271 1.699,-1.035 1.94,-2c0.312,-1.732 0.466,-3.49 0.46,-5.25c0.011,-1.787 -0.143,-3.571 -0.46,-5.33Z" style="fill:none;stroke:#fff;stroke-width:2px;"/><path d="M9.75,15.02l5.75,-3.27l-5.75,-3.27l0,6.54Z" style="fill:none;stroke:#fff;stroke-width:2px;"/></svg>