<?xml version="1.0" encoding="utf-8"?>
<!-- Generator: Adobe Illustrator 21.0.0, SVG Export Plug-In . SVG Version: 6.00 Build 0)  -->
<svg version="1.1" id="Warstwa_1" xmlns="http://www.w3.org/2000/svg" xmlns:xlink="http://www.w3.org/1999/xlink" x="0px" y="0px"
	 viewBox="0 0 153.1 150.2" style="enable-background:new 0 0 153.1 150.2;" xml:space="preserve">
<style type="text/css">
	.st0{fill:#FFFFFF;}
	.st1{fill:#91FFBA;}
</style>
<g>
	<path class="st0" d="M44.5,78.5H32.9l-3-10.7l-4.1-1.7l-9.2,5.7L6.3,62.2L12,53l-1.1-4.4L0.3,46.4V33l11-2.5l2.4-4.1L7.1,16.3
		l10-9.9l8.6,6.5l4.5-1.8l3.2-10.7H44l3.2,10.7l4.5,1.8l8.6-6.5l10,9.9l-6.5,10.1l2.4,4.1l11,2.5v13.4l-10.6,2.1L65.5,53l5.7,9.2
		l-10.3,9.7l-9.2-5.7l-4.1,1.7L44.5,78.5z M35.1,75.7h7.2l2.8-9.9l6.8-2.8l8.5,5.3l7-6.5l-5.1-8.2l1.9-7.4l10-2v-8.8L64.4,33
		l-3.9-6.7l6.2-9.6l-6.6-6.5l-7.9,6l-7.4-3l-2.9-9.9h-6.3l-2.9,9.9l-7.4,3l-7.9-6l-6.6,6.5l6.2,9.6L13.1,33l-9.9,2.3v8.8l10,2
		l1.9,7.4L10,61.7l7,6.5l8.5-5.3l6.8,2.8L35.1,75.7z"/>
</g>
<g>
	<path class="st0" d="M38.7,53.7c-7.9,0-14.3-6.4-14.3-14.3c0-7.9,6.4-14.3,14.3-14.3c7.9,0,14.3,6.4,14.3,14.3
		C53,47.3,46.6,53.7,38.7,53.7z M38.7,28.1c-6.3,0-11.4,5.1-11.4,11.4s5.1,11.4,11.4,11.4s11.4-5.1,11.4-11.4S45,28.1,38.7,28.1z"/>
</g>
<g>
	<path class="st0" d="M65.8,149.8L54.5,147l-0.3-11.1l-3.6-2.7l-10.3,3.2l-7.7-11.9l7.7-7.5l0-4.6l-9.7-4.7l3.3-13l11.2,0.2l3.3-3.4
		l-3.8-11.4l12.1-7.1l6.8,8.4l4.9-0.7l5.7-9.6l10.3,2.6L84.9,85l4,2.9l10-4.2l7.3,12l-8.8,8.2l1.3,4.6l10,5.1l-3.3,13l-10.8-0.5
		l-2.2,4l3.2,10.3l-12.4,6.9l-7.5-7.7l-4.4,0.6L65.8,149.8z M57.4,144.7l7,1.8l5.1-8.9l7.3-1.1l7,7.2l8.4-4.6l-2.9-9.2l3.6-6.7
		l10.2,0.5l2.1-8.5l-9.1-4.7L94,103l8.3-7.8l-4.8-7.9l-9.2,3.9L82,86.5l-0.4-10.3l-6.1-1.5l-5.3,8.9l-7.9,1.1l-6.2-7.8l-7.9,4.7
		l3.6,10.8L46.4,98l-10.2-0.2l-2.1,8.5l9.2,4.4l0,7.6l-6.9,6.7l5.2,8.1l9.6-3l5.9,4.4L57.4,144.7z"/>
</g>
<g>
	<path class="st0" d="M69.7,124.7c-1.2,0-2.3-0.1-3.5-0.4c-3.7-0.9-6.8-3.2-8.8-6.5c-2-3.3-2.5-7.1-1.6-10.8
		c0.9-3.7,3.2-6.8,6.5-8.8c3.3-2,7.1-2.5,10.8-1.6c3.7,0.9,6.8,3.2,8.8,6.5c2,3.3,2.5,7.1,1.6,10.8l0,0c-0.9,3.7-3.2,6.8-6.5,8.8
		C74.8,124.1,72.3,124.7,69.7,124.7z M69.7,99.1c-2,0-4,0.5-5.8,1.6c-2.6,1.6-4.5,4-5.2,7c-0.7,2.9-0.3,6,1.3,8.6
		c1.6,2.6,4,4.4,7,5.2c3,0.7,6,0.3,8.6-1.3c2.6-1.6,4.4-4,5.2-7l0,0c0.7-2.9,0.3-6-1.3-8.6c-1.6-2.6-4-4.4-7-5.2
		C71.6,99.2,70.6,99.1,69.7,99.1z"/>
</g>
<g>
	<path class="st1" d="M114.8,87.5l-4.8-10l-4.4-1l-8,7.1L85.7,76l4-10l-1.9-4.2l-10.8-0.3l-2.3-13.2l10.4-4.4l1.6-4.5l-8.1-8.8
		l8.1-11.5l9.6,4.9l4.2-2.6l1.3-11l10.4-1.8l4.9,10l4.8,1l7.4-7.9l11.5,8l-4.7,11.1l3,3.6l11.2,0.6l2.3,13.2l-10,3.9l-0.4,4.5l7.1,8
		l-8.5,11.3l-10-4l-3.8,2.4l-1.1,11L114.8,87.5z M104.8,73.4L112,75l4.5,9.3l7.1-1.2l1-10.2l6.2-3.9l9.3,3.7l5.8-7.6l-6.4-7.2
		l0.6-7.6l9.5-3.7l-1.5-8.6l-10.2-0.5l-5-6l4.4-10.5l-7.6-5.3l-6.8,7.3l-7.8-1.7l-4.6-9.3l-6.2,1.1l-1.2,10.3l-6.7,4.2l-8.9-4.5
		l-5.3,7.5l7.7,8.4l-2.7,7.3l-9.4,4l1.5,8.6L89.7,59l3.1,6.9l-3.6,8.9l8,5.2L104.8,73.4z"/>
</g>
<g>
	<path class="st1" d="M113.7,62.3c-2.9,0-5.7-0.9-8.2-2.6c-3.1-2.2-5.2-5.5-5.8-9.2c-1.4-7.7,3.8-15.1,11.6-16.5
		c3.8-0.7,7.5,0.2,10.6,2.4c3.1,2.2,5.2,5.5,5.8,9.2c0.7,3.8-0.2,7.5-2.4,10.6c-2.2,3.1-5.5,5.2-9.2,5.8
		C115.4,62.2,114.5,62.3,113.7,62.3z M113.8,36.7c-0.7,0-1.3,0.1-2,0.2c-3,0.5-5.6,2.2-7.3,4.7c-1.7,2.5-2.4,5.5-1.9,8.5
		c0.5,3,2.2,5.6,4.7,7.3c2.5,1.7,5.5,2.4,8.5,1.9c3-0.5,5.6-2.2,7.3-4.7c1.7-2.5,2.4-5.5,1.9-8.5l0,0c-0.5-3-2.2-5.6-4.7-7.3
		C118.3,37.4,116.1,36.7,113.8,36.7z"/>
</g>
</svg>
