<?xml version="1.0" encoding="UTF-8" standalone="no"?><!DOCTYPE svg PUBLIC "-//W3C//DTD SVG 1.1//EN" "http://www.w3.org/Graphics/SVG/1.1/DTD/svg11.dtd"><svg width="100%" height="100%" viewBox="0 0 149 111" version="1.1" xmlns="http://www.w3.org/2000/svg" xmlns:xlink="http://www.w3.org/1999/xlink" xml:space="preserve" xmlns:serif="http://www.serif.com/" style="fill-rule:evenodd;clip-rule:evenodd;stroke-linejoin:round;stroke-miterlimit:1.41421;"><circle cx="74.5" cy="55.5" r="55.5"/><path d="M56.888,61.132l-6.395,0l-1.653,-5.898l-2.26,-0.937l-5.072,3.142l-5.678,-5.292l3.143,-5.072l-0.607,-2.425l-5.843,-1.213l0,-7.386l6.064,-1.379l1.323,-2.26l-3.639,-5.567l5.513,-5.457l4.741,3.583l2.48,-0.993l1.764,-5.898l5.843,0l1.764,5.898l2.481,0.993l4.74,-3.583l5.513,5.457l-3.583,5.567l1.323,2.26l6.063,1.379l0,7.386l-5.843,1.158l-0.606,2.48l3.142,5.072l-5.678,5.347l-5.071,-3.142l-2.26,0.937l-1.709,5.843Zm-5.182,-1.543l3.969,0l1.544,-5.458l3.748,-1.543l4.686,2.921l3.858,-3.583l-2.811,-4.52l1.047,-4.079l5.513,-1.103l0,-4.85l-5.402,-1.323l-2.15,-3.694l3.417,-5.292l-3.638,-3.583l-4.355,3.308l-4.079,-1.654l-1.598,-5.457l-3.473,0l-1.599,5.457l-4.079,1.654l-4.355,-3.308l-3.638,3.583l3.418,5.292l-2.15,3.694l-5.457,1.267l0,4.851l5.512,1.103l1.047,4.079l-2.811,4.52l3.859,3.583l4.685,-2.921l3.749,1.543l1.543,5.513Z" style="fill:#fff;fill-rule:nonzero;"/><path d="M53.691,47.461c-4.355,0 -7.883,-3.528 -7.883,-7.883c0,-4.354 3.528,-7.882 7.883,-7.882c4.354,0 7.882,3.528 7.882,7.882c0,4.355 -3.528,7.883 -7.882,7.883Zm0,-14.112c-3.473,0 -6.284,2.812 -6.284,6.285c0,3.472 2.811,6.284 6.284,6.284c3.472,0 6.284,-2.812 6.284,-6.284c0,-3.473 -2.812,-6.285 -6.284,-6.285Z" style="fill:#fff;fill-rule:nonzero;"/><path d="M68.629,100.435l-6.229,-1.543l-0.165,-6.119l-1.985,-1.488l-5.677,1.764l-4.245,-6.56l4.245,-4.134l0,-2.536l-5.347,-2.591l1.819,-7.166l6.174,0.11l1.819,-1.874l-2.095,-6.284l6.67,-3.914l3.748,4.631l2.702,-0.386l3.142,-5.292l5.677,1.433l0.276,6.229l2.205,1.599l5.512,-2.316l4.024,6.615l-4.851,4.521l0.717,2.535l5.513,2.812l-1.82,7.166l-5.953,-0.276l-1.213,2.205l1.764,5.678l-6.835,3.803l-4.134,-4.244l-2.426,0.331l-3.032,5.291Zm-4.63,-2.811l3.859,0.992l2.811,-4.906l4.024,-0.606l3.859,3.969l4.63,-2.536l-1.599,-5.071l1.985,-3.694l5.623,0.276l1.157,-4.685l-5.016,-2.591l-1.158,-4.135l4.576,-4.299l-2.646,-4.355l-5.072,2.15l-3.473,-2.591l-0.22,-5.678l-3.363,-0.827l-2.921,4.906l-4.355,0.607l-3.418,-4.3l-4.355,2.591l1.985,5.953l-2.977,3.087l-5.622,-0.11l-1.158,4.685l5.071,2.426l0,4.189l-3.803,3.694l2.866,4.465l5.292,-1.654l3.252,2.425l0.166,5.623Z" style="fill:#fff;fill-rule:nonzero;"/><path d="M70.779,86.599c-0.661,0 -1.268,-0.055 -1.929,-0.22c-2.04,-0.496 -3.749,-1.764 -4.851,-3.583c-1.103,-1.819 -1.378,-3.914 -0.882,-5.954c0.496,-2.039 1.764,-3.748 3.583,-4.851c1.819,-1.102 3.914,-1.378 5.953,-0.882c2.04,0.497 3.749,1.764 4.851,3.584c1.103,1.819 1.378,3.913 0.882,5.953c-0.496,2.04 -1.764,3.748 -3.583,4.851c-1.213,0.772 -2.591,1.102 -4.024,1.102Zm0,-14.111c-1.102,0 -2.205,0.275 -3.197,0.882c-1.433,0.882 -2.481,2.204 -2.867,3.858c-0.385,1.599 -0.165,3.308 0.717,4.741c0.882,1.433 2.205,2.425 3.859,2.866c1.653,0.386 3.307,0.166 4.74,-0.716c1.434,-0.882 2.426,-2.205 2.867,-3.859c0.386,-1.599 0.165,-3.307 -0.717,-4.741c-0.882,-1.433 -2.205,-2.425 -3.858,-2.866c-0.497,-0.11 -1.048,-0.165 -1.544,-0.165Z" style="fill:#fff;fill-rule:nonzero;"/><path d="M95.64,66.093l-2.646,-5.512l-2.425,-0.551l-4.41,3.913l-6.56,-4.189l2.205,-5.513l-1.047,-2.315l-5.954,-0.165l-1.268,-7.276l5.733,-2.426l0.882,-2.481l-4.465,-4.85l4.465,-6.34l5.292,2.701l2.315,-1.433l0.717,-6.063l5.733,-0.993l2.701,5.513l2.646,0.551l4.079,-4.355l6.339,4.41l-2.591,6.119l1.654,1.984l6.174,0.331l1.268,7.276l-5.512,2.15l-0.221,2.481l3.914,4.41l-4.686,6.229l-5.512,-2.205l-2.095,1.323l-0.606,6.063l-6.119,1.213Zm-5.512,-7.772l3.969,0.882l2.48,5.126l3.914,-0.661l0.551,-5.623l3.418,-2.15l5.126,2.04l3.198,-4.19l-3.528,-3.969l0.33,-4.189l5.237,-2.04l-0.827,-4.74l-5.622,-0.276l-2.756,-3.307l2.425,-5.788l-4.189,-2.922l-3.749,4.024l-4.3,-0.937l-2.535,-5.127l-3.418,0.607l-0.661,5.678l-3.694,2.315l-4.906,-2.481l-2.921,4.135l4.244,4.63l-1.488,4.024l-5.182,2.205l0.827,4.741l5.733,0.055l1.709,3.803l-1.985,4.906l4.41,2.867l4.19,-3.638Z" style="fill:#91ffba;fill-rule:nonzero;"/><path d="M95.034,52.202c-1.599,0 -3.142,-0.496 -4.52,-1.433c-1.709,-1.213 -2.867,-3.032 -3.198,-5.072c-0.771,-4.244 2.095,-8.323 6.395,-9.095c2.094,-0.386 4.134,0.11 5.843,1.323c1.709,1.212 2.866,3.032 3.197,5.071c0.386,2.095 -0.11,4.134 -1.323,5.843c-1.213,1.709 -3.032,2.867 -5.071,3.198c-0.386,0.11 -0.882,0.165 -1.323,0.165Zm0.055,-14.112c-0.386,0 -0.717,0.055 -1.103,0.11c-1.653,0.276 -3.087,1.213 -4.024,2.591c-0.937,1.378 -1.323,3.032 -1.047,4.686c0.276,1.653 1.213,3.087 2.591,4.024c1.378,0.937 3.032,1.323 4.685,1.047c1.654,-0.275 3.087,-1.213 4.024,-2.591c0.937,-1.378 1.323,-3.031 1.048,-4.685c-0.276,-1.654 -1.213,-3.087 -2.591,-4.024c-1.103,-0.772 -2.315,-1.158 -3.583,-1.158Z" style="fill:#91ffba;fill-rule:nonzero;"/></svg>