<?xml version="1.0" encoding="utf-8"?>
<!-- Generator: Adobe Illustrator 21.0.0, SVG Export Plug-In . SVG Version: 6.00 Build 0)  -->
<svg version="1.1" id="Warstwa_1" xmlns="http://www.w3.org/2000/svg" xmlns:xlink="http://www.w3.org/1999/xlink" x="0px" y="0px"
	 viewBox="0 0 158.7 155.9" style="enable-background:new 0 0 158.7 155.9;" xml:space="preserve">
<style type="text/css">
	.st0{fill:#91FFBA;}
	.st1{fill:#FFFFFF;}
</style>
<g>
	<path class="st0" d="M156.2,102.8"/>
</g>
<g>
	<path class="st1" d="M126.2,32.4c-1.8,0-3.7-0.7-5.1-2.1c-2.8-2.8-2.8-7.4,0-10.2c2.8-2.8,7.4-2.8,10.2,0c2.8,2.8,2.8,7.4,0,10.2
		l0,0C129.9,31.7,128,32.4,126.2,32.4z M126.2,20.8c-1.1,0-2.2,0.4-3.1,1.3c-1.7,1.7-1.7,4.5,0,6.2c1.7,1.7,4.5,1.7,6.2,0
		c1.7-1.7,1.7-4.5,0-6.2C128.4,21.2,127.3,20.8,126.2,20.8z"/>
</g>
<g>
	<rect x="101.6" y="36.3" transform="matrix(0.7071 -0.7071 0.7071 0.7071 6.5897 91.4071)" class="st1" width="24" height="2.8"/>
</g>
<g>
	<path class="st1" d="M100.8,56.9c-1.9,0-3.7-0.7-5.1-2.1c-1.4-1.4-2.1-3.2-2.1-5.1c0-1.9,0.7-3.7,2.1-5.1c2.8-2.8,7.4-2.8,10.2,0
		c2.8,2.8,2.8,7.4,0,10.2l0,0l0,0l0,0C104.6,56.1,102.7,56.9,100.8,56.9z M100.8,45.3c-1.1,0-2.2,0.4-3.1,1.3
		c-0.8,0.8-1.3,1.9-1.3,3.1c0,1.2,0.5,2.3,1.3,3.1c1.7,1.6,4.5,1.6,6.2,0l0,0c1.7-1.7,1.7-4.5,0-6.2
		C103.1,45.7,101.9,45.3,100.8,45.3z"/>
</g>
<g>
	<polygon class="st0" points="81.5,39.3 55.4,13.2 57.4,11.2 81.5,35.3 89.4,27.4 91.4,29.4 	"/>
</g>
<g>
	<path class="st0" d="M92.7,31.9c-1.8,0-3.7-0.7-5.1-2.1c-1.4-1.4-2.1-3.2-2.1-5.1c0-1.9,0.7-3.7,2.1-5.1c2.7-2.7,7.5-2.7,10.2,0
		c2.8,2.8,2.8,7.4,0,10.2l0,0C96.4,31.2,94.5,31.9,92.7,31.9z M92.7,20.4c-1.2,0-2.3,0.5-3.1,1.3c-0.8,0.8-1.3,1.9-1.3,3.1
		c0,1.2,0.5,2.3,1.3,3.1c1.7,1.7,4.5,1.7,6.2,0c1.7-1.7,1.7-4.5,0-6.2C95,20.8,93.9,20.4,92.7,20.4z"/>
</g>
<g>
	<path class="st0" d="M53,15.5c-1.9,0-3.7-0.7-5.1-2.1s-2.1-3.2-2.1-5.1c0-1.9,0.7-3.7,2.1-5.1c2.8-2.8,7.4-2.8,10.2,0
		c2.8,2.8,2.8,7.4,0,10.2l0,0l0,0l0,0C56.7,14.8,54.9,15.5,53,15.5z M53,4c-1.1,0-2.2,0.4-3.1,1.3c-0.8,0.8-1.3,1.9-1.3,3.1
		c0,1.2,0.5,2.3,1.3,3.1c1.7,1.6,4.5,1.6,6.2,0l0,0c1.7-1.7,1.7-4.5,0-6.2C55.2,4.4,54.1,4,53,4z"/>
</g>
<g>
	<path class="st1" d="M64.7,70.8c-1.8,0-3.7-0.7-5.1-2.1c-1.4-1.4-2.1-3.2-2.1-5.1c0-1.9,0.7-3.7,2.1-5.1c2.7-2.7,7.5-2.7,10.2,0
		c2.8,2.8,2.8,7.4,0,10.2l0,0C68.4,70.1,66.5,70.8,64.7,70.8z M64.7,59.2c-1.2,0-2.3,0.5-3.1,1.3c-0.8,0.8-1.3,1.9-1.3,3.1
		c0,1.2,0.5,2.3,1.3,3.1c1.7,1.7,4.5,1.7,6.2,0c1.7-1.7,1.7-4.5,0-6.2C66.9,59.7,65.8,59.2,64.7,59.2z"/>
</g>
<g>
	<polygon class="st1" points="68,93.8 12.8,38.2 14.8,36.2 68,89.8 89.7,68.1 75.9,54.4 69.8,60.5 67.8,58.5 75.9,50.3 93.7,68.1 	
		"/>
</g>
<g>
	<path class="st1" d="M8.8,39.9c-1.8,0-3.7-0.7-5.1-2.1c-2.8-2.8-2.8-7.4,0-10.2c2.8-2.8,7.4-2.8,10.2,0c2.8,2.8,2.8,7.4,0,10.2l0,0
		C12.5,39.2,10.7,39.9,8.8,39.9z M8.8,28.4c-1.1,0-2.2,0.4-3.1,1.3c-1.7,1.7-1.7,4.5,0,6.2c1.7,1.7,4.5,1.7,6.2,0
		c1.7-1.7,1.7-4.5,0-6.2C11,28.8,9.9,28.4,8.8,28.4z"/>
</g>
<g>
	
		<rect x="27.2" y="95.1" transform="matrix(0.7071 -0.7071 0.7071 0.7071 -43.7375 87.5466)" class="st1" width="113.3" height="2.8"/>
</g>
<g>
	<path class="st1" d="M127.7,60.3c-1.8,0-3.7-0.7-5.1-2.1c-2.8-2.8-2.8-7.4,0-10.2c2.8-2.8,7.4-2.8,10.2,0c2.8,2.8,2.8,7.4,0,10.2
		l0,0C131.4,59.6,129.6,60.3,127.7,60.3z M127.7,48.8c-1.1,0-2.2,0.4-3.1,1.3c-1.7,1.7-1.7,4.5,0,6.2c1.7,1.7,4.5,1.7,6.2,0
		c1.7-1.7,1.7-4.5,0-6.2C130,49.2,128.9,48.8,127.7,48.8z"/>
</g>
<g>
	<path class="st1" d="M37.6,148.2c-1.8,0-3.7-0.7-5.1-2.1c-2.8-2.8-2.8-7.4,0-10.2c2.8-2.8,7.4-2.8,10.2,0c2.8,2.8,2.8,7.4,0,10.2h0
		C41.3,147.5,39.4,148.2,37.6,148.2z M37.6,136.6c-1.1,0-2.2,0.4-3.1,1.3c-1.7,1.7-1.7,4.5,0,6.2c1.7,1.7,4.5,1.7,6.2,0
		c1.7-1.7,1.7-4.5,0-6.2C39.8,137.1,38.7,136.6,37.6,136.6z"/>
</g>
<g>
	
		<rect x="96.5" y="88.7" transform="matrix(0.7071 -0.7071 0.7071 0.7071 -41.604 98.3775)" class="st1" width="2.8" height="21.5"/>
</g>
<g>
	<path class="st1" d="M110,117.8c-1.8,0-3.7-0.7-5.1-2.1c-1.4-1.4-2.1-3.2-2.1-5.1c0-1.9,0.7-3.7,2.1-5.1c2.7-2.7,7.5-2.7,10.2,0
		c1.4,1.4,2.1,3.2,2.1,5.1c0,1.9-0.7,3.7-2.1,5.1C113.7,117.1,111.9,117.8,110,117.8z M110,106.2c-1.2,0-2.3,0.5-3.1,1.3
		c-0.8,0.8-1.3,1.9-1.3,3.1c0,1.2,0.5,2.3,1.3,3.1c1.7,1.7,4.5,1.7,6.2,0c0.8-0.8,1.3-1.9,1.3-3.1c0-1.2-0.5-2.3-1.3-3.1
		C112.3,106.7,111.2,106.2,110,106.2z"/>
</g>
<g>
	
		<rect x="32.3" y="73.1" transform="matrix(0.7071 -0.7071 0.7071 0.7071 -52.6078 49.7603)" class="st0" width="2.8" height="30.5"/>
</g>
<g>
	<path class="st0" d="M19.2,79.5c-1.9,0-3.7-0.7-5.1-2.1c-2.8-2.8-2.8-7.4,0-10.2c2.8-2.8,7.4-2.8,10.2,0c1.4,1.4,2.1,3.2,2.1,5.1
		c0,1.9-0.7,3.7-2.1,5.1l0,0l0,0l0,0C22.9,78.8,21.1,79.5,19.2,79.5z M19.2,68c-1.1,0-2.2,0.4-3.1,1.3c-1.7,1.7-1.7,4.5,0,6.2
		c1.6,1.6,4.5,1.6,6.2,0l0,0c0.8-0.8,1.3-1.9,1.3-3.1c0-1.2-0.5-2.3-1.3-3.1C21.4,68.4,20.3,68,19.2,68z"/>
</g>
<g>
	<path class="st0" d="M48.4,111.5c-1.8,0-3.7-0.7-5.1-2.1c-2.8-2.8-2.8-7.4,0-10.2c2.8-2.8,7.4-2.8,10.2,0c2.8,2.8,2.8,7.4,0,10.2
		l0,0C52.1,110.8,50.3,111.5,48.4,111.5z M48.4,100c-1.1,0-2.2,0.4-3.1,1.3c-1.7,1.7-1.7,4.5,0,6.2c1.7,1.7,4.5,1.7,6.2,0
		c1.7-1.7,1.7-4.5,0-6.2C50.7,100.4,49.6,100,48.4,100z"/>
</g>
<g>
	<path class="st1" d="M149.9,116.1c-1.8,0-3.7-0.7-5.1-2.1h0c-2.8-2.8-2.8-7.4,0-10.2c2.8-2.8,7.4-2.8,10.2,0
		c2.8,2.8,2.8,7.4,0,10.2C153.6,115.4,151.7,116.1,149.9,116.1z M146.8,112c1.7,1.7,4.5,1.7,6.2,0c1.7-1.7,1.7-4.5,0-6.2
		c-1.7-1.7-4.5-1.7-6.2,0C145.1,107.5,145.1,110.3,146.8,112L146.8,112z"/>
</g>
<g>
	
		<rect x="135.9" y="84.3" transform="matrix(0.7071 -0.7071 0.7071 0.7071 -27.8799 125.3179)" class="st1" width="2.8" height="24"/>
</g>
<g>
	<path class="st1" d="M125.4,90.7c-1.8,0-3.7-0.7-5.1-2.1l0,0c-2.8-2.8-2.8-7.4,0-10.2c2.8-2.8,7.4-2.8,10.2,0
		c2.8,2.8,2.8,7.4,0,10.2C129.1,90,127.2,90.7,125.4,90.7z M122.3,86.6c1.7,1.7,4.5,1.7,6.2,0c1.7-1.7,1.7-4.5,0-6.2
		c-1.7-1.7-4.5-1.7-6.2,0C120.6,82.1,120.6,84.9,122.3,86.6L122.3,86.6z"/>
</g>
<g>
	<path class="st0" d="M71.5,143.2c-1.8,0-3.7-0.7-5.1-2.1c-2.8-2.8-2.8-7.4,0-10.2c2.7-2.7,7.5-2.7,10.2,0c1.4,1.4,2.1,3.2,2.1,5.1
		c0,1.9-0.7,3.7-2.1,5.1C75.2,142.5,73.4,143.2,71.5,143.2z M71.6,131.6c-1.2,0-2.3,0.5-3.1,1.3c-1.7,1.7-1.7,4.5,0,6.2
		c1.7,1.7,4.5,1.7,6.2,0c0.8-0.8,1.3-1.9,1.3-3.1c0-1.2-0.5-2.3-1.3-3.1C73.8,132.1,72.7,131.6,71.6,131.6z"/>
</g>
<g>
	<polygon class="st0" points="111.1,144.3 88.1,121.4 76.6,132.9 74.6,130.9 88.1,117.4 113.1,142.3 	"/>
</g>
<g>
	<path class="st0" d="M114.6,154.8c-1.9,0-3.7-0.7-5.1-2.1l0,0l0,0l0,0c-1.4-1.4-2.1-3.2-2.1-5.1c0-1.9,0.7-3.7,2.1-5.1
		c2.8-2.8,7.4-2.8,10.2,0c2.8,2.8,2.8,7.4,0,10.2C118.4,154,116.6,154.8,114.6,154.8z M114.6,143.2c-1.1,0-2.2,0.4-3.1,1.3
		c-0.8,0.8-1.3,1.9-1.3,3.1c0,1.2,0.5,2.3,1.3,3.1l0,0c1.7,1.6,4.5,1.6,6.2,0c1.7-1.7,1.7-4.5,0-6.2
		C116.9,143.6,115.8,143.2,114.6,143.2z"/>
</g>
</svg>
