<?xml version="1.0" encoding="UTF-8" standalone="no"?><!DOCTYPE svg PUBLIC "-//W3C//DTD SVG 1.1//EN" "http://www.w3.org/Graphics/SVG/1.1/DTD/svg11.dtd"><svg width="100%" height="100%" viewBox="0 0 149 111" version="1.1" xmlns="http://www.w3.org/2000/svg" xmlns:xlink="http://www.w3.org/1999/xlink" xml:space="preserve" xmlns:serif="http://www.serif.com/" style="fill-rule:evenodd;clip-rule:evenodd;stroke-linejoin:round;stroke-miterlimit:1.41421;"><circle cx="74.5" cy="55.5" r="55.5"/><path d="M99.92,30.785c-0.977,0 -2.008,-0.379 -2.767,-1.139c-1.519,-1.519 -1.519,-4.015 0,-5.534c1.519,-1.52 4.015,-1.52 5.534,0c1.519,1.519 1.519,4.015 0,5.534c-0.76,0.76 -1.79,1.139 -2.767,1.139Zm0,-6.294c-0.597,0 -1.194,0.218 -1.682,0.706c-0.922,0.922 -0.922,2.441 0,3.364c0.922,0.922 2.442,0.922 3.364,0c0.922,-0.923 0.922,-2.442 0,-3.364c-0.488,-0.488 -1.085,-0.706 -1.682,-0.706Z" style="fill:#fff;fill-rule:nonzero;"/><path d="M97.136,28.541l-9.208,9.208l1.074,1.074l9.208,-9.208l-1.074,-1.074Z" style="fill:#fff;"/><path d="M86.138,44.079c-1.031,0 -2.007,-0.38 -2.767,-1.14c-0.759,-0.759 -1.139,-1.736 -1.139,-2.767c0,-1.031 0.38,-2.007 1.139,-2.767c1.519,-1.519 4.015,-1.519 5.535,0c1.519,1.519 1.519,4.015 0,5.534c-0.706,0.706 -1.737,1.14 -2.768,1.14Zm0,-6.294c-0.596,0 -1.193,0.217 -1.682,0.705c-0.434,0.434 -0.705,1.031 -0.705,1.682c0,0.651 0.271,1.248 0.705,1.682c0.923,0.868 2.442,0.868 3.364,0c0.923,-0.922 0.923,-2.442 0,-3.364c-0.434,-0.488 -1.085,-0.705 -1.682,-0.705Z" style="fill:#fff;fill-rule:nonzero;"/><path d="M75.667,34.529l-14.162,-14.161l1.085,-1.085l13.077,13.076l4.286,-4.286l1.085,1.085l-5.371,5.371Z" style="fill:#91ffba;fill-rule:nonzero;"/><path d="M81.743,30.514c-0.976,0 -2.007,-0.38 -2.767,-1.139c-0.759,-0.76 -1.139,-1.737 -1.139,-2.767c0,-1.031 0.38,-2.008 1.139,-2.768c1.465,-1.465 4.07,-1.465 5.535,0c1.519,1.52 1.519,4.015 0,5.535c-0.76,0.759 -1.791,1.139 -2.768,1.139Zm0,-6.24c-0.651,0 -1.247,0.272 -1.682,0.706c-0.434,0.434 -0.705,1.031 -0.705,1.682c0,0.651 0.271,1.248 0.705,1.682c0.923,0.922 2.442,0.922 3.364,0c0.923,-0.923 0.923,-2.442 0,-3.364c-0.434,-0.489 -1.03,-0.706 -1.682,-0.706Z" style="fill:#91ffba;fill-rule:nonzero;"/><path d="M60.203,21.616c-1.031,0 -2.008,-0.38 -2.767,-1.14c-0.76,-0.759 -1.14,-1.736 -1.14,-2.767c0,-1.031 0.38,-2.007 1.14,-2.767c1.519,-1.519 4.015,-1.519 5.534,0c1.519,1.519 1.519,4.015 0,5.534c-0.759,0.76 -1.736,1.14 -2.767,1.14Zm0,-6.24c-0.597,0 -1.194,0.217 -1.682,0.705c-0.434,0.435 -0.705,1.031 -0.705,1.682c0,0.652 0.271,1.248 0.705,1.682c0.922,0.869 2.442,0.869 3.364,0c0.922,-0.922 0.922,-2.441 0,-3.364c-0.488,-0.488 -1.085,-0.705 -1.682,-0.705Z" style="fill:#91ffba;fill-rule:nonzero;"/><path d="M66.551,51.621c-0.976,0 -2.007,-0.38 -2.767,-1.14c-0.76,-0.759 -1.139,-1.736 -1.139,-2.767c0,-1.031 0.379,-2.008 1.139,-2.767c1.465,-1.465 4.069,-1.465 5.534,0c1.52,1.519 1.52,4.015 0,5.534c-0.759,0.76 -1.79,1.14 -2.767,1.14Zm0,-6.294c-0.651,0 -1.248,0.271 -1.682,0.705c-0.434,0.434 -0.705,1.031 -0.705,1.682c0,0.651 0.271,1.248 0.705,1.682c0.923,0.922 2.442,0.922 3.364,0c0.923,-0.922 0.923,-2.442 0,-3.364c-0.488,-0.434 -1.085,-0.705 -1.682,-0.705Z" style="fill:#fff;fill-rule:nonzero;"/><path d="M68.342,64.1l-29.951,-30.168l1.085,-1.085l28.866,29.083l11.774,-11.774l-7.488,-7.434l-3.31,3.31l-1.085,-1.085l4.395,-4.449l9.658,9.658l-13.944,13.944Z" style="fill:#fff;fill-rule:nonzero;"/><path d="M36.221,34.855c-0.977,0 -2.008,-0.38 -2.767,-1.14c-1.52,-1.519 -1.52,-4.015 0,-5.534c1.519,-1.519 4.015,-1.519 5.534,0c1.519,1.519 1.519,4.015 0,5.534c-0.76,0.76 -1.736,1.14 -2.767,1.14Zm0,-6.24c-0.597,0 -1.194,0.217 -1.682,0.705c-0.923,0.923 -0.923,2.442 0,3.364c0.922,0.923 2.442,0.923 3.364,0c0.922,-0.922 0.922,-2.441 0,-3.364c-0.488,-0.488 -1.085,-0.705 -1.682,-0.705Z" style="fill:#fff;fill-rule:nonzero;"/><path d="M98.105,43.289l-43.468,43.468l1.074,1.075l43.468,-43.469l-1.074,-1.074Z" style="fill:#fff;"/><path d="M100.734,45.923c-0.977,0 -2.008,-0.379 -2.767,-1.139c-1.52,-1.519 -1.52,-4.015 0,-5.534c1.519,-1.52 4.015,-1.52 5.534,0c1.519,1.519 1.519,4.015 0,5.534c-0.76,0.76 -1.736,1.139 -2.767,1.139Zm0,-6.239c-0.597,0 -1.194,0.217 -1.682,0.705c-0.923,0.922 -0.923,2.442 0,3.364c0.922,0.923 2.441,0.923 3.364,0c0.922,-0.922 0.922,-2.442 0,-3.364c-0.434,-0.488 -1.031,-0.705 -1.682,-0.705Z" style="fill:#fff;fill-rule:nonzero;"/><path d="M51.847,93.616c-0.976,0 -2.007,-0.379 -2.767,-1.139c-1.519,-1.519 -1.519,-4.015 0,-5.534c1.519,-1.52 4.015,-1.52 5.534,0c1.52,1.519 1.52,4.015 0,5.534c-0.759,0.76 -1.79,1.139 -2.767,1.139Zm0,-6.294c-0.597,0 -1.193,0.217 -1.682,0.706c-0.922,0.922 -0.922,2.441 0,3.364c0.923,0.922 2.442,0.922 3.364,0c0.923,-0.923 0.923,-2.442 0,-3.364c-0.488,-0.434 -1.085,-0.706 -1.682,-0.706Z" style="fill:#fff;fill-rule:nonzero;"/><path d="M81.001,62.517l-1.075,1.074l8.249,8.249l1.074,-1.075l-8.248,-8.248Z" style="fill:#fff;"/><path d="M91.13,77.122c-0.977,0 -2.007,-0.38 -2.767,-1.14c-0.76,-0.759 -1.139,-1.736 -1.139,-2.767c0,-1.031 0.379,-2.007 1.139,-2.767c1.465,-1.465 4.069,-1.465 5.534,0c0.76,0.76 1.14,1.736 1.14,2.767c0,1.031 -0.38,2.008 -1.14,2.767c-0.759,0.76 -1.736,1.14 -2.767,1.14Zm0,-6.294c-0.651,0 -1.248,0.271 -1.682,0.705c-0.434,0.434 -0.705,1.031 -0.705,1.682c0,0.651 0.271,1.248 0.705,1.682c0.923,0.923 2.442,0.923 3.364,0c0.434,-0.434 0.705,-1.031 0.705,-1.682c0,-0.651 -0.271,-1.248 -0.705,-1.682c-0.434,-0.434 -1.031,-0.705 -1.682,-0.705Z" style="fill:#fff;fill-rule:nonzero;"/><path d="M44.414,54.784l-1.074,1.074l11.701,11.702l1.075,-1.075l-11.702,-11.701Z" style="fill:#91ffba;"/><path d="M41.864,56.341c-1.031,0 -2.008,-0.38 -2.767,-1.139c-1.52,-1.52 -1.52,-4.016 0,-5.535c1.519,-1.519 4.015,-1.519 5.534,0c0.76,0.76 1.139,1.737 1.139,2.767c0,1.031 -0.379,2.008 -1.139,2.768c-0.76,0.759 -1.736,1.139 -2.767,1.139Zm0,-6.24c-0.597,0 -1.194,0.217 -1.682,0.706c-0.923,0.922 -0.923,2.441 0,3.364c0.868,0.868 2.441,0.868 3.364,0c0.434,-0.434 0.705,-1.031 0.705,-1.682c0,-0.651 -0.271,-1.248 -0.705,-1.682c-0.489,-0.489 -1.085,-0.706 -1.682,-0.706Z" style="fill:#91ffba;fill-rule:nonzero;"/><path d="M57.707,73.704c-0.977,0 -2.007,-0.38 -2.767,-1.14c-1.519,-1.519 -1.519,-4.015 0,-5.534c1.519,-1.519 4.015,-1.519 5.534,0c1.52,1.519 1.52,4.015 0,5.534c-0.759,0.76 -1.736,1.14 -2.767,1.14Zm0,-6.24c-0.597,0 -1.194,0.217 -1.682,0.705c-0.922,0.923 -0.922,2.442 0,3.364c0.922,0.923 2.442,0.923 3.364,0c0.922,-0.922 0.922,-2.441 0,-3.364c-0.434,-0.488 -1.031,-0.705 -1.682,-0.705Z" style="fill:#91ffba;fill-rule:nonzero;"/><path d="M112.779,76.199c-0.977,0 -2.007,-0.379 -2.767,-1.139c-1.519,-1.519 -1.519,-4.015 0,-5.534c1.519,-1.52 4.015,-1.52 5.534,0c1.52,1.519 1.52,4.015 0,5.534c-0.759,0.76 -1.79,1.139 -2.767,1.139Zm-1.682,-2.224c0.922,0.922 2.442,0.922 3.364,0c0.923,-0.922 0.923,-2.442 0,-3.364c-0.922,-0.922 -2.442,-0.922 -3.364,0c-0.922,0.922 -0.922,2.442 0,3.364Z" style="fill:#fff;fill-rule:nonzero;"/><path d="M101.875,60.33l-1.074,1.074l9.208,9.208l1.074,-1.074l-9.208,-9.208Z" style="fill:#fff;"/><path d="M99.486,62.418c-0.977,0 -2.008,-0.38 -2.767,-1.14c-1.52,-1.519 -1.52,-4.015 0,-5.534c1.519,-1.519 4.015,-1.519 5.534,0c1.519,1.519 1.519,4.015 0,5.534c-0.76,0.76 -1.79,1.14 -2.767,1.14Zm-1.682,-2.225c0.922,0.923 2.441,0.923 3.364,0c0.922,-0.922 0.922,-2.441 0,-3.364c-0.923,-0.922 -2.442,-0.922 -3.364,0c-0.923,0.923 -0.923,2.442 0,3.364Z" style="fill:#fff;fill-rule:nonzero;"/><path d="M70.241,90.903c-0.977,0 -2.008,-0.379 -2.767,-1.139c-1.52,-1.519 -1.52,-4.015 0,-5.534c1.465,-1.465 4.069,-1.465 5.534,0c0.76,0.759 1.139,1.736 1.139,2.767c0,1.031 -0.379,2.007 -1.139,2.767c-0.76,0.76 -1.736,1.139 -2.767,1.139Zm0.054,-6.294c-0.651,0 -1.248,0.272 -1.682,0.706c-0.922,0.922 -0.922,2.441 0,3.364c0.922,0.922 2.442,0.922 3.364,0c0.434,-0.434 0.705,-1.031 0.705,-1.682c0,-0.651 -0.271,-1.248 -0.705,-1.682c-0.488,-0.434 -1.085,-0.706 -1.682,-0.706Z" style="fill:#91ffba;fill-rule:nonzero;"/><path d="M91.727,91.5l-12.479,-12.425l-6.24,6.24l-1.085,-1.085l7.325,-7.325l13.564,13.51l-1.085,1.085Z" style="fill:#91ffba;fill-rule:nonzero;"/><path d="M93.626,97.197c-1.031,0 -2.008,-0.379 -2.767,-1.139c-0.76,-0.76 -1.14,-1.736 -1.14,-2.767c0,-1.031 0.38,-2.008 1.14,-2.767c1.519,-1.52 4.015,-1.52 5.534,0c1.519,1.519 1.519,4.015 0,5.534c-0.705,0.705 -1.682,1.139 -2.767,1.139Zm0,-6.294c-0.597,0 -1.194,0.217 -1.682,0.706c-0.434,0.434 -0.705,1.031 -0.705,1.682c0,0.651 0.271,1.248 0.705,1.682c0.922,0.868 2.442,0.868 3.364,0c0.922,-0.923 0.922,-2.442 0,-3.364c-0.434,-0.489 -1.031,-0.706 -1.682,-0.706Z" style="fill:#91ffba;fill-rule:nonzero;"/></svg>