<?xml version="1.0" encoding="utf-8"?>
<!-- Generator: Adobe Illustrator 22.0.0, SVG Export Plug-In . SVG Version: 6.00 Build 0)  -->
<svg version="1.1" xmlns="http://www.w3.org/2000/svg" xmlns:xlink="http://www.w3.org/1999/xlink" x="0px" y="0px"
	 viewBox="0 0 1138 1126" style="enable-background:new 0 0 1138 1126;" xml:space="preserve">
<style type="text/css">
	.st0{fill:#FFFFFF;}
	.st1{fill:#1F9BAA;}
	.st2{fill-opacity:0;}
	.st3{fill:none;stroke:#1F9BAA;stroke-width:22;stroke-miterlimit:10;}
</style>
<g id="Capa_1">
	<g>
		<g>
			<g>
				<path d="M165.5,771.1l-33.8,14.8c48.8,112.2,138.8,201.5,251.5,249.4l14.5-33.9C293.7,957.1,210.6,874.7,165.5,771.1z"/>
			</g>
		</g>
		<g>
			<g>
				<path d="M977.5,771.1c-44.6,102.5-126.4,184.2-228.9,228.8l14.8,33.8c111-48.3,199.6-136.9,247.9-247.9L977.5,771.1z"/>
			</g>
		</g>
		<g>
			<g>
				<path d="M799.5,171.8L782,204.3c75.9,41,138.2,103.3,179.2,179.2l32.5-17.6C949.2,283.7,881.7,216.2,799.5,171.8z"/>
			</g>
		</g>
		<g>
			<g>
				<path d="M343.5,171.8c-82.2,44.4-149.7,111.9-194.1,194.1l32.5,17.6c41-75.9,103.3-138.2,179.2-179.2L343.5,171.8z"/>
			</g>
		</g>
	</g>
	<circle class="st0" cx="571.9" cy="595.1" r="456.6"/>
	<g>
		<g>
			<path d="M571.5,464.8c-71.3,0-129.1,57.8-129.1,129.2c0.1,71.3,57.9,129.1,129.1,129.1c71.3,0,129.2-57.8,129.2-129.1
				S642.8,464.8,571.5,464.8z M571.5,686.2c-50.9,0-92.3-41.3-92.3-92.3c0.1-50.9,41.3-92.2,92.3-92.3c50.9,0,92.3,41.3,92.3,92.3
				S622.4,686.2,571.5,686.2z"/>
		</g>
	</g>
	<g>
		<g>
			<path d="M166.2,530.8c11.4-13.2,17.7-30.1,17.8-47.5c0-40.8-33-73.8-73.8-73.8s-73.8,33-73.8,73.8c0.1,17.5,6.4,34.3,17.8,47.5
				C31.9,543.9,18.1,568,18,594v129.1c0,10.2,8.3,18.4,18.4,18.5c0,0,0,0,0,0h147.6c10.2,0,18.4-8.3,18.4-18.4c0,0,0,0,0,0V594
				C202.4,568,188.6,543.9,166.2,530.8z M110.3,446.4c20.4,0,36.9,16.5,36.9,36.9s-16.5,36.9-36.9,36.9s-36.9-16.5-36.9-36.9
				C73.4,462.9,89.9,446.4,110.3,446.4z M165.6,704.7H54.9V594c0-20.4,16.5-36.9,36.9-36.9h36.9c20.4,0,36.9,16.5,36.9,36.9V704.7z"
				/>
		</g>
	</g>
	<g>
		<g>
			<path class="st1" d="M680.5,981.4c-7.9-46.4-44.2-82.7-90.6-90.6v-20.1H553v20.1c-46.4,7.9-82.7,44.2-90.6,90.6h-20.1v36.9h20.1
				c7.9,46.4,44.2,82.7,90.6,90.6v20.1H590v-20.1c46.4-7.9,82.7-44.2,90.6-90.6h20.1v-36.9H680.5z M642.7,1018.3
				c-6.7,25.8-26.9,46-52.7,52.7v-15.8h-36.9v15.8c-25.8-6.7-46-26.9-52.7-52.7h15.8v-36.9h-15.8c6.7-25.8,26.9-46,52.7-52.7v15.8
				H590v-15.8c25.8,6.7,46,26.9,52.7,52.7h-15.8v36.9H642.7z"/>
		</g>
	</g>
	<g>
		<g>
			<path class="st1" d="M567.8,22.1c-58.3,2-105,48.7-107,107c0.3,38.6,21.5,74.1,55.4,92.6v77.1c0,10.2,8.3,18.4,18.4,18.5
				c0,0,0,0,0,0h73.8c10.2,0,18.4-8.3,18.4-18.4c0,0,0,0,0,0v-77.1c33.9-18.5,55.1-54,55.4-92.6C680.1,67.9,628.9,20,567.8,22.1z
				 M590,280.3H553v-36.9H590V280.3z M601.2,193.1c-5.6,2.4-9.6,7.4-10.8,13.4h-38c-1.1-6-5.2-11-10.8-13.4
				c-26.3-10.5-43.6-35.8-44.1-64.1c2.1-40.8,36.8-72.1,77.6-70c37.9,1.9,68.1,32.2,70,70C644.9,157.3,627.5,182.6,601.2,193.1z"/>
		</g>
	</g>
	<g>
		<g>
			<rect x="387" y="114.3" width="36.9" height="36.9"/>
		</g>
	</g>
	<g>
		<g>
			<rect x="719.1" y="114.3" width="36.9" height="36.9"/>
		</g>
	</g>
	<g>
		<g>
			<rect x="700.6" y="35" transform="matrix(0.7071 -0.7071 0.7071 0.7071 172.7673 524.0879)" width="36.9" height="36.9"/>
		</g>
	</g>
	<g>
		<g>
			<rect x="405.4" y="35.1" transform="matrix(0.7071 -0.7071 0.7071 0.7071 86.2805 315.4284)" width="36.9" height="36.9"/>
		</g>
	</g>
	<g>
		<g>
			<rect x="405.4" y="188" transform="matrix(0.7071 -0.7071 0.7071 0.7071 -21.8569 360.2194)" width="36.9" height="36.9"/>
		</g>
	</g>
	<g>
		<g>
			<rect x="700.6" y="188.1" transform="matrix(0.7071 -0.7071 0.7071 0.7071 64.5971 568.9564)" width="36.9" height="36.9"/>
		</g>
	</g>
	<g>
		<g>
			<path d="M1051.2,557h-55.3c-20.4,0-36.9-16.5-36.9-36.9c0-20.4,16.5-36.9,36.9-36.9h110.7v-36.9h-55.4v-36.9h-36.9v36.9h-18.5
				c-40.8,0-73.8,33-73.8,73.8s33,73.8,73.8,73.8h55.3c20.4,0,36.9,16.5,36.9,36.9c0,20.4-16.5,36.9-36.9,36.9H940.5v36.9h73.8v36.9
				h36.9v-36.9c40.8,0,73.8-33,73.8-73.8S1092,557,1051.2,557z"/>
		</g>
	</g>
</g>
<g id="Warstwa_2">
	<path class="st3" d="M747.2,557.5L747.2,557.5c-4-25.8-13.8-41.8-27.7-62.8l25.8-33.8l-45.7-43.7l-31,26.6
		c-18.7-12.3-39.8-21.2-62.4-25.9l-4.7-43.2l-63.2,0L534,418c-22.3,4.6-43.1,13.4-61.5,25.5l-33.4-25.6l-43.7,45.8l26.1,30.5
		c-12.5,18.8-21.5,40.1-26.2,63l-44.8,4.5l0,63.3l44.9,4.9c4.8,23.1,14,44.6,26.7,63.5l-27.4,32l43.7,45.8l35.4-27.1
		c17.8,11.5,37.9,19.9,59.3,24.5l4.6,45.8l63.2,0l4.5-45.4c22.2-4.4,43-13,61.4-24.8L699,772l45.7-43.7l-26.3-34.4
		c12.9-19,22.2-40.7,27-64l43.6-4.7l0-63.3L747.2,557.5z"/>
</g>
</svg>
