<?xml version="1.0" encoding="UTF-8" standalone="no"?><!DOCTYPE svg PUBLIC "-//W3C//DTD SVG 1.1//EN" "http://www.w3.org/Graphics/SVG/1.1/DTD/svg11.dtd"><svg width="100%" height="100%" viewBox="0 0 149 111" version="1.1" xmlns="http://www.w3.org/2000/svg" xmlns:xlink="http://www.w3.org/1999/xlink" xml:space="preserve" xmlns:serif="http://www.serif.com/" style="fill-rule:evenodd;clip-rule:evenodd;stroke-linejoin:round;stroke-miterlimit:1.41421;"><circle cx="72.168" cy="55.406" r="55.406"/><path d="M103.075,77.854l-61.814,0c-2.883,0 -5.198,-2.316 -5.198,-5.199l0,-43.525c0,-2.882 2.315,-5.198 5.198,-5.198l61.814,0c2.883,0 5.198,2.316 5.198,5.198l0,43.478c0,2.93 -2.315,5.246 -5.198,5.246Zm-61.814,-52.552c-2.127,0 -3.828,1.702 -3.828,3.828l0,43.478c0,2.127 1.701,3.828 3.828,3.828l61.814,0c2.127,0 3.828,-1.701 3.828,-3.828l0,-43.478c0,-2.126 -1.701,-3.828 -3.828,-3.828l-61.814,0Z" style="fill:#fff;fill-rule:nonzero;"/><rect x="36.771" y="66.039" width="70.84" height="1.37" style="fill:#fff;"/><path d="M67.292,76.834l-2.526,9.157l1.321,0.364l2.526,-9.157l-1.321,-0.364Z" style="fill:#fff;"/><path d="M78.217,86.36l-2.505,-9.121l1.324,-0.378l2.504,9.168l-1.323,0.331Z" style="fill:#fff;fill-rule:nonzero;"/><rect x="61.251" y="85.51" width="21.833" height="1.37" style="fill:#fff;"/><path d="M49.72,31.115l-6.994,0c-0.284,0 -0.52,-0.236 -0.52,-0.52l0,-0.283c0,-0.284 0.236,-0.52 0.52,-0.52l7.042,0c0.283,0 0.519,0.236 0.519,0.52l0,0.283c0,0.284 -0.236,0.52 -0.567,0.52Z" style="fill:#91ffba;fill-rule:nonzero;"/><path d="M54.021,35.227l-11.2,0c-0.331,0 -0.662,-0.284 -0.662,-0.662l0,-0.094c0,-0.331 0.283,-0.662 0.662,-0.662l11.2,0c0.331,0 0.661,0.283 0.661,0.662l0,0.094c-0.047,0.378 -0.33,0.662 -0.661,0.662Z" style="fill:#fff;fill-rule:nonzero;"/><path d="M60.826,39.338l-18.053,0c-0.331,0 -0.614,-0.283 -0.614,-0.614l0,-0.142c0,-0.331 0.283,-0.614 0.614,-0.614l18.006,0c0.331,0 0.614,0.283 0.614,0.614l0,0.189c0,0.331 -0.236,0.567 -0.567,0.567Z" style="fill:#91ffba;fill-rule:nonzero;"/><path d="M66.544,43.45l-23.818,0c-0.331,0 -0.567,-0.237 -0.567,-0.567l0,-0.237c0,-0.331 0.236,-0.567 0.567,-0.567l23.818,0c0.331,0 0.567,0.236 0.567,0.567l0,0.237c0,0.33 -0.236,0.567 -0.567,0.567Z" style="fill:#fff;fill-rule:nonzero;"/><path d="M55.675,58.525l-12.807,0c-0.378,0 -0.662,0.284 -0.662,0.662c0,0.378 0.284,0.661 0.662,0.661l12.807,0c0.378,0 0.661,-0.283 0.661,-0.661c0.048,-0.378 -0.283,-0.662 -0.661,-0.662Z" style="fill:#fff;fill-rule:nonzero;"/><path d="M65.316,54.414l-22.448,0c-0.378,0 -0.662,0.283 -0.662,0.661c0,0.378 0.284,0.662 0.662,0.662l22.448,0c0.378,0 0.661,-0.284 0.661,-0.662c0,-0.378 -0.283,-0.661 -0.661,-0.661Z" style="fill:#91ffba;fill-rule:nonzero;"/><path d="M71.743,50.208l-28.922,0c-0.331,0 -0.615,0.283 -0.615,0.614l0,0.142c0,0.331 0.284,0.614 0.615,0.614l28.922,0c0.33,0 0.614,-0.283 0.614,-0.614l0,-0.142c0,-0.331 -0.284,-0.614 -0.614,-0.614Z" style="fill:#fff;fill-rule:nonzero;"/><path d="M52.934,47.514l-10.113,0c-0.331,0 -0.615,-0.284 -0.615,-0.615l0,-0.094c0,-0.331 0.284,-0.614 0.615,-0.614l10.113,0c0.331,0 0.614,0.283 0.614,0.614l0,0.094c0,0.331 -0.283,0.615 -0.614,0.615Z" style="fill:#fff;fill-rule:nonzero;"/><path d="M65.316,35.227l-7.94,0c-0.378,0 -0.661,-0.284 -0.661,-0.662c0,-0.378 0.283,-0.662 0.661,-0.662l7.892,0c0.378,0 0.662,0.284 0.662,0.662c0.047,0.378 -0.236,0.662 -0.614,0.662Z" style="fill:#fff;fill-rule:nonzero;"/><path d="M62.196,47.514l-5.576,0c-0.331,0 -0.567,-0.284 -0.567,-0.567l0,-0.189c0,-0.331 0.283,-0.567 0.567,-0.567l5.576,0c0.331,0 0.568,0.283 0.568,0.567l0,0.189c0,0.283 -0.237,0.567 -0.568,0.567Z" style="fill:#fff;fill-rule:nonzero;"/><path d="M68.765,39.338l-3.922,0c-0.284,0 -0.473,-0.236 -0.473,-0.472l0,-0.379c0,-0.283 0.237,-0.472 0.473,-0.472l3.922,0c0.284,0 0.473,0.236 0.473,0.472l0,0.379c0.047,0.283 -0.189,0.472 -0.473,0.472Z" style="fill:#fff;fill-rule:nonzero;"/><path d="M76.705,55.737l-7.94,0c-0.378,0 -0.661,-0.284 -0.661,-0.662c0,-0.378 0.283,-0.661 0.661,-0.661l7.893,0c0.378,0 0.661,0.283 0.661,0.661c0.047,0.378 -0.236,0.662 -0.614,0.662Z" style="fill:#fff;fill-rule:nonzero;"/><path d="M78.17,51.578l-3.923,0c-0.283,0 -0.472,-0.236 -0.472,-0.473l0,-0.378c0,-0.283 0.236,-0.472 0.472,-0.472l3.923,0c0.283,0 0.472,0.236 0.472,0.472l0,0.378c0.048,0.237 -0.189,0.473 -0.472,0.473Z" style="fill:#fff;fill-rule:nonzero;"/><path d="M62.669,59.848l-3.922,0c-0.284,0 -0.473,-0.236 -0.473,-0.472l0,-0.378c0,-0.284 0.236,-0.473 0.473,-0.473l3.922,0c0.284,0 0.473,0.236 0.473,0.473l0,0.378c0,0.283 -0.237,0.472 -0.473,0.472Z" style="fill:#fff;fill-rule:nonzero;"/><path d="M79.399,43.45l-10.256,0c-0.378,0 -0.661,-0.284 -0.661,-0.662c0,-0.378 0.283,-0.662 0.661,-0.662l10.256,0c0.378,0 0.661,0.284 0.661,0.662c0,0.378 -0.283,0.662 -0.661,0.662Z" style="fill:#fff;fill-rule:nonzero;"/><path d="M73.255,35.227l-3.923,0c-0.283,0 -0.472,-0.237 -0.472,-0.473l0,-0.378c0,-0.284 0.236,-0.473 0.472,-0.473l3.923,0c0.283,0 0.473,0.237 0.473,0.473l0,0.378c0.047,0.236 -0.19,0.473 -0.473,0.473Z" style="fill:#91ffba;fill-rule:nonzero;"/><path d="M79.399,39.338l-7.94,0c-0.378,0 -0.661,-0.283 -0.661,-0.661c0,-0.379 0.283,-0.662 0.661,-0.662l7.94,0c0.378,0 0.661,0.283 0.661,0.662c0,0.378 -0.283,0.661 -0.661,0.661Z" style="fill:#fff;fill-rule:nonzero;"/><path d="M69.663,47.514l-3.922,0c-0.284,0 -0.473,-0.236 -0.473,-0.473l0,-0.378c0,-0.283 0.237,-0.472 0.473,-0.472l3.922,0c0.284,0 0.473,0.236 0.473,0.472l0,0.378c0.047,0.237 -0.189,0.473 -0.473,0.473Z" style="fill:#91ffba;fill-rule:nonzero;"/><path d="M75.901,59.848l-10.207,0c-0.378,0 -0.662,-0.283 -0.662,-0.661c0,-0.378 0.284,-0.662 0.662,-0.662l10.207,0c0.378,0 0.662,0.284 0.662,0.662c0.047,0.378 -0.284,0.661 -0.662,0.661Z" style="fill:#91ffba;fill-rule:nonzero;"/><path d="M56.62,31.115l-3.922,0c-0.284,0 -0.473,-0.236 -0.473,-0.472l0,-0.378c0,-0.284 0.236,-0.473 0.473,-0.473l3.922,0c0.284,0 0.473,0.236 0.473,0.473l0,0.378c0,0.236 -0.189,0.472 -0.473,0.472Z" style="fill:#fff;fill-rule:nonzero;"/></svg>