<?xml version="1.0" encoding="utf-8"?>
<!-- Generator: Adobe Illustrator 21.0.0, SVG Export Plug-In . SVG Version: 6.00 Build 0)  -->
<svg version="1.1" id="Warstwa_1" xmlns="http://www.w3.org/2000/svg" xmlns:xlink="http://www.w3.org/1999/xlink" x="0px" y="0px"
	 viewBox="0 0 161.6 133.2" style="enable-background:new 0 0 161.6 133.2;" xml:space="preserve">
<style type="text/css">
	.st0{fill:#FFFFFF;}
	.st1{fill:#91FFBA;}
</style>
<g>
	<path class="st0" d="M145.1,114.1H14.3c-6.1,0-11-4.9-11-11V11c0-6.1,4.9-11,11-11h130.8c6.1,0,11,4.9,11,11v92
		C156.1,109.2,151.2,114.1,145.1,114.1z M14.3,2.9c-4.5,0-8.1,3.6-8.1,8.1v92c0,4.5,3.6,8.1,8.1,8.1h130.8c4.5,0,8.1-3.6,8.1-8.1V11
		c0-4.5-3.6-8.1-8.1-8.1H14.3z"/>
</g>
<g>
	<rect x="4.8" y="89.1" class="st0" width="149.9" height="2.9"/>
</g>
<g>
	<g>
		
			<rect x="58.1" y="120.6" transform="matrix(0.2659 -0.964 0.964 0.2659 -67.6696 155.2596)" class="st0" width="20.1" height="2.9"/>
	</g>
	<g>
		<polygon class="st0" points="92.5,132.1 87.2,112.8 90,112 95.3,131.4 		"/>
	</g>
</g>
<g>
	<rect x="56.6" y="130.3" class="st0" width="46.2" height="2.9"/>
</g>
<g>
	<path class="st1" d="M32.2,15.2H17.4c-0.6,0-1.1-0.5-1.1-1.1v-0.6c0-0.6,0.5-1.1,1.1-1.1h14.9c0.6,0,1.1,0.5,1.1,1.1v0.6
		C33.4,14.7,32.9,15.2,32.2,15.2z"/>
</g>
<g>
	<path class="st0" d="M41.3,23.9H17.6c-0.7,0-1.4-0.6-1.4-1.4v-0.2c0-0.7,0.6-1.4,1.4-1.4h23.7c0.7,0,1.4,0.6,1.4,1.4v0.2
		C42.6,23.3,42,23.9,41.3,23.9z"/>
</g>
<g>
	<path class="st1" d="M55.7,32.6H17.5c-0.7,0-1.3-0.6-1.3-1.3V31c0-0.7,0.6-1.3,1.3-1.3h38.1c0.7,0,1.3,0.6,1.3,1.3v0.4
		C56.9,32.1,56.4,32.6,55.7,32.6z"/>
</g>
<g>
	<path class="st0" d="M67.8,41.3H17.4c-0.7,0-1.2-0.5-1.2-1.2v-0.5c0-0.7,0.5-1.2,1.2-1.2h50.4c0.7,0,1.2,0.5,1.2,1.2v0.5
		C69,40.8,68.5,41.3,67.8,41.3z"/>
</g>
<g>
	<path class="st0" d="M44.8,73.2H17.7c-0.8,0-1.4,0.6-1.4,1.4v0c0,0.8,0.6,1.4,1.4,1.4h27.1c0.8,0,1.4-0.6,1.4-1.4v0
		C46.3,73.8,45.6,73.2,44.8,73.2z"/>
</g>
<g>
	<path class="st1" d="M65.2,64.5H17.7c-0.8,0-1.4,0.6-1.4,1.4l0,0c0,0.8,0.6,1.4,1.4,1.4h47.5c0.8,0,1.4-0.6,1.4-1.4l0,0
		C66.6,65.1,66,64.5,65.2,64.5z"/>
</g>
<g>
	<path class="st0" d="M78.8,55.6H17.6c-0.7,0-1.3,0.6-1.3,1.3v0.3c0,0.7,0.6,1.3,1.3,1.3h61.2c0.7,0,1.3-0.6,1.3-1.3v-0.3
		C80.1,56.2,79.5,55.6,78.8,55.6z"/>
</g>
<g>
	<path class="st0" d="M39,49.9H17.6c-0.7,0-1.3-0.6-1.3-1.3v-0.2c0-0.7,0.6-1.3,1.3-1.3H39c0.7,0,1.3,0.6,1.3,1.3v0.2
		C40.3,49.3,39.7,49.9,39,49.9z"/>
</g>
<g>
	<path class="st0" d="M65.2,23.9H48.4c-0.8,0-1.4-0.6-1.4-1.4v0c0-0.8,0.6-1.4,1.4-1.4h16.7c0.8,0,1.4,0.6,1.4,1.4v0
		C66.6,23.3,66,23.9,65.2,23.9z"/>
</g>
<g>
	<path class="st0" d="M58.6,49.9H46.8c-0.7,0-1.2-0.6-1.2-1.2v-0.4c0-0.7,0.6-1.2,1.2-1.2h11.8c0.7,0,1.2,0.6,1.2,1.2v0.4
		C59.8,49.3,59.3,49.9,58.6,49.9z"/>
</g>
<g>
	<path class="st0" d="M72.5,32.6h-8.3c-0.6,0-1-0.5-1-1v-0.8c0-0.6,0.5-1,1-1h8.3c0.6,0,1,0.5,1,1v0.8
		C73.6,32.2,73.1,32.6,72.5,32.6z"/>
</g>
<g>
	<path class="st0" d="M89.3,67.3H72.5c-0.8,0-1.4-0.6-1.4-1.4l0,0c0-0.8,0.6-1.4,1.4-1.4h16.7c0.8,0,1.4,0.6,1.4,1.4l0,0
		C90.7,66.7,90.1,67.3,89.3,67.3z"/>
</g>
<g>
	<path class="st0" d="M92.4,58.5h-8.3c-0.6,0-1-0.5-1-1v-0.8c0-0.6,0.5-1,1-1h8.3c0.6,0,1,0.5,1,1v0.8C93.5,58,93,58.5,92.4,58.5z"
		/>
</g>
<g>
	<path class="st0" d="M59.6,76h-8.3c-0.6,0-1-0.5-1-1v-0.8c0-0.6,0.5-1,1-1h8.3c0.6,0,1,0.5,1,1V75C60.6,75.6,60.1,76,59.6,76z"/>
</g>
<g>
	<path class="st0" d="M95,41.3H73.3c-0.8,0-1.4-0.6-1.4-1.4v0c0-0.8,0.6-1.4,1.4-1.4H95c0.8,0,1.4,0.6,1.4,1.4v0
		C96.4,40.7,95.8,41.3,95,41.3z"/>
</g>
<g>
	<path class="st1" d="M82,23.9h-8.3c-0.6,0-1-0.5-1-1v-0.8c0-0.6,0.5-1,1-1H82c0.6,0,1,0.5,1,1v0.8C83.1,23.4,82.6,23.9,82,23.9z"/>
</g>
<g>
	<path class="st0" d="M95,32.6H78.2c-0.8,0-1.4-0.6-1.4-1.4v0c0-0.8,0.6-1.4,1.4-1.4H95c0.8,0,1.4,0.6,1.4,1.4v0
		C96.4,32,95.8,32.6,95,32.6z"/>
</g>
<g>
	<path class="st1" d="M74.4,49.9h-8.3c-0.6,0-1-0.5-1-1v-0.8c0-0.6,0.5-1,1-1h8.3c0.6,0,1,0.5,1,1v0.8C75.5,49.4,75,49.9,74.4,49.9z
		"/>
</g>
<g>
	<path class="st1" d="M87.6,76H66c-0.8,0-1.4-0.6-1.4-1.4v0c0-0.8,0.6-1.4,1.4-1.4h21.6c0.8,0,1.4,0.6,1.4,1.4v0
		C89.1,75.4,88.4,76,87.6,76z"/>
</g>
<g>
	<path class="st0" d="M46.8,15.2h-8.3c-0.6,0-1-0.5-1-1v-0.8c0-0.6,0.5-1,1-1h8.3c0.6,0,1,0.5,1,1v0.8
		C47.8,14.7,47.4,15.2,46.8,15.2z"/>
</g>
</svg>
