<?xml version="1.0" encoding="UTF-8" standalone="no"?><!DOCTYPE svg PUBLIC "-//W3C//DTD SVG 1.1//EN" "http://www.w3.org/Graphics/SVG/1.1/DTD/svg11.dtd"><svg width="100%" height="100%" viewBox="0 0 536 34" version="1.1" xmlns="http://www.w3.org/2000/svg" xmlns:xlink="http://www.w3.org/1999/xlink" xml:space="preserve" xmlns:serif="http://www.serif.com/" style="fill-rule:evenodd;clip-rule:evenodd;stroke-linejoin:round;stroke-miterlimit:1.41421;"><path d="M33.5,0l33.5,33.5l-33.5,33.5l-33.5,-33.5l33.5,-33.5Z" style="fill:#f5ffff;"/><path d="M100.5,0l33.5,33.5l-33.5,33.5l-33.5,-33.5l33.5,-33.5Z" style="fill:#f5ffff;"/><path d="M435.5,0l33.5,33.5l-33.5,33.5l-33.5,-33.5l33.5,-33.5Z" style="fill:#f5ffff;"/><path d="M502.5,0l33.5,33.5l-33.5,33.5l-33.5,-33.5l33.5,-33.5Z" style="fill:#f5ffff;"/><rect id="Artboard1" x="0" y="0" width="536" height="33.5" style="fill:none;"/><path d="M167.5,0l33.5,33.5l-33.5,33.5l-33.5,-33.5l33.5,-33.5Z" style="fill:#f5ffff;"/><path d="M234.5,0l33.5,33.5l-33.5,33.5l-33.5,-33.5l33.5,-33.5Z" style="fill:#f5ffff;"/><path d="M301.5,0l33.5,33.5l-33.5,33.5l-33.5,-33.5l33.5,-33.5Z" style="fill:#f5ffff;"/><path d="M368.5,0l33.5,33.5l-33.5,33.5l-33.5,-33.5l33.5,-33.5Z" style="fill:#f5ffff;"/></svg>