<?xml version="1.0" encoding="UTF-8" standalone="no"?><!DOCTYPE svg PUBLIC "-//W3C//DTD SVG 1.1//EN" "http://www.w3.org/Graphics/SVG/1.1/DTD/svg11.dtd"><svg width="100%" height="100%" viewBox="0 0 1924 153" version="1.1" xmlns="http://www.w3.org/2000/svg" xmlns:xlink="http://www.w3.org/1999/xlink" xml:space="preserve" xmlns:serif="http://www.serif.com/" style="fill-rule:evenodd;clip-rule:evenodd;stroke-linejoin:round;stroke-miterlimit:2;"><g id="Group_2"><clipPath id="_clip1"><rect x="0.73" y="0" width="1923.27" height="153.784"/></clipPath><g clip-path="url(#_clip1)"><path id="Subtraction_16" d="M1924,596.784l-1923.27,0l0,-521.889l0.02,0c1.453,0.041 36.081,1.032 78.34,4.156c25.4,1.879 48.638,4.148 69.081,6.745c25.6,3.251 46.917,7.03 63.355,11.232c34.409,8.826 69.292,15.694 104.479,20.569c18.069,2.48 36.175,4.38 53.814,5.648c18.3,1.312 36.512,1.977 54.142,1.977c4.818,0 9.743,-0.051 14.639,-0.151c31.537,-0.656 84.718,-17.922 146.3,-37.914l0.009,0l0.133,-0.043l0.05,-0.017l0.015,0l0.065,-0.021l0.063,-0.02l0.015,-0.005l0.007,0c22.304,-7.251 45.373,-14.734 69.356,-22.076c27.244,-8.335 51.149,-15.07 73.082,-20.587c12.673,-3.189 25.022,-6.049 36.7,-8.5c12.567,-2.634 24.756,-4.875 36.227,-6.664c12.243,-1.907 24.122,-3.372 35.308,-4.351c11.843,-1.033 23.264,-1.556 33.949,-1.556c8.668,0 17.74,0.312 26.964,0.927c8.8,0.586 18.033,1.469 27.452,2.624c17.419,2.137 35.814,5.216 56.236,9.413c17.073,3.508 35.976,7.895 57.79,13.411c19.411,4.91 39.309,10.246 58.552,15.407l0.038,0.01l0.032,0.009l0.066,0.017l0.124,0.034l0.018,0l0.19,0.05l0.026,0.008l0.034,0.009c85.507,22.941 173.929,46.658 262.119,46.658c2.214,0 4.333,-0.014 6.478,-0.043c92.695,-1.238 145.5,-13.659 192.091,-24.618l0.044,0l0.033,-0.008l0.02,0c19.284,-4.535 37.5,-8.818 57.1,-11.978c10.507,-1.692 20.565,-2.928 30.748,-3.778c11.327,-0.948 22.638,-1.408 34.58,-1.408c1.967,0 4.013,0.014 6.082,0.04c26.019,0.343 54.685,1.63 85.2,3.827c24.389,1.754 50.035,4.093 76.225,6.953c43.986,4.8 74.587,9.455 75.868,9.651l0,13.357c-2.144,-0.089 -13.5,-0.592 -26.625,-1.657c-7.835,-0.636 -14.858,-1.354 -20.873,-2.134c-5.939,-0.688 -11.828,-1.748 -17.634,-3.174c-8.982,-2.236 -18.07,-4.016 -27.232,-5.333c-9.984,-1.519 -18.682,-2.462 -22.7,-2.462c-1.545,0 -2.354,0.139 -2.4,0.412c-0.046,0.273 0.626,0.655 2,1.16c7.427,2.731 18.791,4.45 29.781,6.112c6.314,0.955 12.839,1.941 18.419,3.1c14.808,3.072 65.13,6.962 67.264,7.126l0.008,489.745l0.003,0Zm-1725.82,-486.661l0.01,0c1.645,0.37 40.824,9.161 87.543,17.581c28.3,5.1 54.231,9.17 77.077,12.09c28.533,3.646 52.254,5.495 70.5,5.495c1.058,0 2.056,-0.006 2.967,-0.017c17.796,-0.181 35.542,-1.895 53.044,-5.122c13.431,-2.477 26.658,-5.95 39.574,-10.389c8.451,-2.894 16.714,-6.307 24.744,-10.22c5.585,-2.754 8.52,-4.594 8.545,-4.611l-0.012,0l-0.02,0.009c-0.921,0.364 -4.34,1.688 -9.648,3.462c-5.7,1.9 -14.95,4.78 -26.635,7.675c-13.177,3.259 -26.512,5.839 -39.954,7.731c-16.445,2.332 -33.029,3.551 -49.639,3.649l-1.162,0c-16.335,0 -38.963,-1.436 -67.256,-4.271c-22.619,-2.268 -48.892,-5.43 -78.09,-9.4c-49.021,-6.655 -89.873,-13.379 -91.588,-13.662Zm1305.5,6.736c-0.022,0.019 -0.781,0.634 -8.377,2.93c-7.034,2.126 -21.512,6.158 -50.545,13.294l0.015,0c0.259,0.023 1,0.075 2.3,0.075c4.253,0 13.8,-0.556 29.973,-4.283c4.656,-1.037 9.234,-2.399 13.7,-4.075c2.811,-1.05 5.522,-2.35 8.1,-3.886c3.742,-2.3 4.8,-3.985 4.842,-4.056l-0.008,0.001Zm-229.022,1.7l0.01,0.006c0.589,0.368 3.757,2.321 8.227,4.625c5.446,2.896 11.185,5.204 17.119,6.885c7.006,1.779 21.439,2.254 28.862,2.254c3.671,0 6.143,-0.111 6.152,-0.275c-1.157,-0.279 -2.346,-0.406 -3.536,-0.376c-5.052,-0.449 -10.068,-1.247 -15.01,-2.388c-5.327,-1.125 -11.671,-2.63 -18.857,-4.473c-12.002,-3.077 -22.817,-6.213 -22.963,-6.256l-0.004,-0.002Zm91.251,5.664c-4.639,0 -6.68,0.231 -7.044,0.8c-0.312,0.393 -0.293,0.96 0.044,1.331c1.411,1.67 8.449,2.589 19.817,2.589c13.957,-0.141 27.895,-1.049 41.752,-2.72c8.522,-1.082 16.96,-2.748 25.254,-4.986c7.46,-1.95 15.473,-4.392 23.815,-7.258c13.616,-4.676 23.547,-8.915 24.635,-9.382l-0.009,0l-0.01,0l-0.01,0c-1.656,0.562 -10.555,3.542 -23.159,7.023c-8.046,2.222 -16,4.2 -23.634,5.893c-9.526,2.106 -18.57,3.753 -26.88,4.894c-5.573,0.765 -11.64,1.319 -18.031,1.648c-5.156,0.265 -10.585,0.394 -16.6,0.394c-4.222,0 -8.008,-0.06 -11.226,-0.117l-1.278,-0.021l-0.017,0c-2.836,-0.042 -5.288,-0.086 -7.415,-0.086l-0.004,-0.002Zm-507.486,-71.606c-18.416,-0.087 -36.822,0.866 -55.131,2.853c-17.552,2.01 -37.328,6.062 -58.778,12.043c-17.153,4.783 -35.418,10.806 -54.287,17.9c-16.81,6.322 -30.955,12.326 -39.861,16.25c-8.875,3.909 -14.446,6.579 -15.473,7.074l-0.022,0.011l0.046,-0.016c2.521,-0.866 25.577,-8.724 58.185,-17.948c19.957,-5.648 39.413,-10.649 57.83,-14.867c23.013,-5.27 44.433,-9.321 63.665,-12.039c30.159,-4.163 60.571,-6.213 91.016,-6.136c20.606,0 37.619,0.906 48.262,1.667c11.237,0.8 18.3,1.655 18.369,1.664l-0.034,-0.005c-1.456,-0.224 -14.8,-2.244 -34.424,-4.225c-12.2,-1.229 -24.417,-2.208 -36.323,-2.908c-14.9,-0.877 -29.366,-1.322 -43,-1.322l-0.04,0.004Zm-782.666,42.961c7.548,0 21.094,1.463 31.129,2.691c9.888,1.209 18.515,2.451 20.145,2.687l0.018,0l-0.01,0l-0.016,0c-0.523,-0.122 -12.958,-3.032 -26.724,-5.756c-8.433,-1.67 -15.966,-3 -22.389,-3.963c-6.145,-1.024 -12.352,-1.626 -18.579,-1.8c-3.678,0 -6.014,0.441 -6.943,1.31c-1.339,1.255 -1.7,2.377 -1.081,3.336c0.583,0.9 2.056,1.645 4.259,2.15c2.337,0.489 4.72,0.724 7.107,0.7c2.749,0.04 5.492,-0.278 8.159,-0.946c1.619,-0.335 3.273,-0.472 4.925,-0.409Zm1670.28,-15.117c-2.325,0 -3.551,0.351 -3.644,1.044c-0.014,0.296 0.128,0.579 0.375,0.744c0.907,0.767 3.46,1.458 7.588,2.054c3.3,0.476 7.614,0.893 12.818,1.239c8.166,0.542 15.921,0.736 17.392,0.77l0.032,0l-0.018,0c-0.656,-0.153 -6.612,-1.533 -13.68,-2.922c-6.794,-1.338 -15.929,-2.929 -20.863,-2.929Z" style="fill:#fff;fill-rule:nonzero;"/><path id="Path_44" d="M37.33,31.384c0,0 54.4,-3.6 97.067,4.267c42.667,7.867 95.467,25.6 95.467,25.6c0,0 -56.534,-16 -95.467,-21.333c-38.933,-5.333 -97.067,-8.534 -97.067,-8.534Z" style="fill:#fff;fill-rule:nonzero;"/><path id="Path_43" d="M445.85,76.936c0,0 -26.128,15.911 -57.721,7.914c-31.593,-7.996 -49.067,-7.914 -49.067,-7.914c0,0 20.575,-0.372 49.067,4.181c28.493,4.552 57.721,-4.181 57.721,-4.181Z" style="fill:#fff;fill-rule:nonzero;"/><path id="Path_45" d="M793.43,14.584c0,0 50.474,-20.747 82.068,-12.75c31.594,7.996 63.527,12.753 63.527,12.753c0,0 -35.04,-4.463 -63.532,-9.017c-28.492,-4.553 -82.063,9.014 -82.063,9.014Z" style="fill:#fff;fill-rule:nonzero;"/><path id="Path_47" d="M1606.09,55.973c0,0 -22.248,20.996 -54.814,19.743c-32.565,-1.253 -49.64,2.46 -49.64,2.46c0,0 20.048,-4.642 48.864,-6.113c28.816,-1.47 55.59,-16.09 55.59,-16.09Z" style="fill:#fff;fill-rule:nonzero;"/><path id="Path_46" d="M1489.93,83.851c0,0 -63.984,17.916 -131.732,15.999c-67.749,-1.917 -139.267,-22.733 -139.267,-23.667c0,-0.934 71.517,15.35 139.266,17.266c67.75,1.917 131.733,-9.598 131.733,-9.598Z" style="fill:#fff;fill-rule:nonzero;"/><path id="Path_48" d="M1837.83,66.884c0,0 -30.163,3.664 -61.2,-5.599c-31.037,-9.264 -49.195,-10.295 -49.195,-10.295c0,0 23.627,-1.59 52.397,6.694c28.771,8.285 57.998,9.2 57.998,9.2Z" style="fill:#fff;fill-rule:nonzero;"/></g></g></svg>