<?xml version="1.0" encoding="utf-8"?>
<!-- Generator: Adobe Illustrator 22.0.0, SVG Export Plug-In . SVG Version: 6.00 Build 0)  -->
<svg version="1.1" id="Warstwa_1" xmlns="http://www.w3.org/2000/svg" xmlns:xlink="http://www.w3.org/1999/xlink" x="0px" y="0px"
	 viewBox="0 0 440 230" style="enable-background:new 0 0 440 230;" xml:space="preserve">
<style type="text/css">
	.st0{fill:none;stroke:#000000;stroke-width:10;stroke-miterlimit:10;}
	.st1{fill:#76B843;}
	.st2{display:none;fill:#FFFFFF;}
	.st3{fill:url(#SVGID_1_);}
	.st4{fill:url(#SVGID_2_);}
	.st5{fill:none;stroke:url(#SVGID_3_);stroke-width:7;stroke-miterlimit:10;}
	.st6{display:none;}
	.st7{fill:none;stroke:url(#SVGID_4_);stroke-width:7;stroke-miterlimit:10;}
	.st8{stroke:#000000;stroke-width:10;stroke-linecap:round;stroke-miterlimit:10;}
	.st9{fill:none;stroke:#000000;stroke-width:5;stroke-miterlimit:10;}
	.st10{stroke:#000000;stroke-width:3;stroke-miterlimit:10;}
	.st11{fill:none;stroke:#000000;stroke-width:7;stroke-miterlimit:10;}
	.st12{fill:#ACD9B8;}
	.st13{fill:none;stroke:#000000;stroke-width:2;stroke-miterlimit:10;}
</style>
<g>
	<circle class="st0" cx="337.5" cy="111.2" r="89.5"/>
	<ellipse transform="matrix(0.9259 -0.3777 0.3777 0.9259 -1.911 150.3428)" class="st9" cx="382.4" cy="80" rx="15.4" ry="15.8"/>
	
		<ellipse transform="matrix(0.9259 -0.3777 0.3777 0.9259 -21.5095 155.0401)" class="st9" cx="384.5" cy="132.4" rx="15.4" ry="15.8"/>
	
		<ellipse transform="matrix(0.9259 -0.3777 0.3777 0.9259 -35.0446 140.6613)" class="st9" cx="341.1" cy="159.7" rx="15.4" ry="15.8"/>
	
		<ellipse transform="matrix(0.9259 -0.3777 0.3777 0.9259 -28.9813 121.5853)" class="st9" cx="295.5" cy="134.7" rx="15.4" ry="15.8"/>
	
		<ellipse transform="matrix(0.9259 -0.3777 0.3777 0.9259 -9.3828 116.888)" class="st9" cx="293.3" cy="82.4" rx="15.4" ry="15.8"/>
	<ellipse transform="matrix(0.9259 -0.3777 0.3777 0.9259 4.1524 131.2668)" class="st9" cx="336.8" cy="55" rx="15.4" ry="15.8"/>
</g>
<rect x="83.3" y="111.6" transform="matrix(0.8656 0.5007 -0.5007 0.8656 72.5691 -39.4753)" class="st10" width="53.1" height="7.7"/>
<path class="st11" d="M137.7,31.2l32.6,18.9c0,0,16.6-28.6-0.1-38.2C152.2,1.4,137.7,31.2,137.7,31.2z"/>
<rect x="89.8" y="62.3" transform="matrix(0.5007 -0.8656 0.8656 0.5007 -7.4599 153.1455)" class="st11" width="78.4" height="41.5"/>
<path class="st11" d="M92.2,118.1l25.1,14.5c2.5,1.4,2.9,4.8,0.8,6.8L80,176.1c-3.1,3-8.2,0-7.1-4.2l13-51.1
	C86.6,118,89.7,116.7,92.2,118.1z"/>
<path class="st11" d="M28.9,173.4l38.6-16.1l8.7-36.5c0.3-1.1-1.1-1.8-1.8-1l-47.9,50.1C24.8,171.5,26.7,174.3,28.9,173.4z"/>
<path class="st11" d="M100.9,215.8l-6.1-41.4l26.5-25.9c0.9-0.9,2.3,0,2,1.2l-18.2,66.5C104.6,218.3,101.3,218.1,100.9,215.8z"/>
<rect x="127.6" y="35.1" transform="matrix(0.8656 0.5007 -0.5007 0.8656 40.1964 -71.9273)" class="st10" width="53.1" height="7.7"/>
<g>
	<g>
		<path class="st12" d="M68.2,30.6C56.7,50.1,45.2,69.6,33.8,89.2c-3.3,5.6,5.4,10.6,8.6,5c11.5-19.5,22.9-39.1,34.4-58.6
			C80.1,30.1,71.4,25,68.2,30.6L68.2,30.6z"/>
	</g>
</g>
<g>
	<g>
		<path class="st12" d="M111.7,13.9C97.4,38.3,83.1,62.7,68.8,87.1c-3.3,5.6,5.4,10.6,8.6,5c14.3-24.4,28.6-48.8,42.9-73.1
			C123.6,13.4,115,8.4,111.7,13.9L111.7,13.9z"/>
	</g>
</g>
<g>
	<g>
		<path class="st12" d="M186.5,81.9c-11.5,19.5-22.9,39.1-34.4,58.6c-3.3,5.6,5.4,10.6,8.6,5c11.5-19.5,22.9-39.1,34.4-58.6
			C198.4,81.4,189.8,76.4,186.5,81.9L186.5,81.9z"/>
	</g>
</g>
<g>
	<g>
		<path class="st12" d="M188.5,131.9c-11.5,19.5-22.9,39.1-34.4,58.6c-3.3,5.6,5.4,10.6,8.6,5c11.5-19.5,22.9-39.1,34.4-58.6
			C200.4,131.4,191.8,126.4,188.5,131.9L188.5,131.9z"/>
	</g>
</g>
</svg>
