<?xml version="1.0" encoding="utf-8"?>
<!-- Generator: Adobe Illustrator 22.0.0, SVG Export Plug-In . SVG Version: 6.00 Build 0)  -->
<svg version="1.1" id="Warstwa_1" xmlns="http://www.w3.org/2000/svg" xmlns:xlink="http://www.w3.org/1999/xlink" x="0px" y="0px"
	 viewBox="0 0 540 150" style="enable-background:new 0 0 540 150;" xml:space="preserve">
<style type="text/css">
	.st0{fill:none;stroke:#000000;stroke-width:10;stroke-miterlimit:10;}
	.st1{fill:#76B843;}
	.st2{display:none;fill:#FFFFFF;}
	.st3{fill:url(#SVGID_1_);}
	.st4{fill:url(#SVGID_2_);}
	.st5{fill:none;stroke:url(#SVGID_3_);stroke-width:7;stroke-miterlimit:10;}
	.st6{display:none;}
	.st7{fill:none;stroke:url(#SVGID_4_);stroke-width:7;stroke-miterlimit:10;}
	.st8{fill:none;}
	.st9{font-family:'MyriadPro-Regular';}
	.st10{font-size:100px;}
	.st11{font-size:80px;}
	.st12{letter-spacing:-2;}
	.st13{font-size:70px;}
	.st14{letter-spacing:-1;}
	.st15{stroke:#000000;stroke-width:10;stroke-linecap:round;stroke-miterlimit:10;}
	.st16{fill:none;stroke:#000000;stroke-width:5;stroke-miterlimit:10;}
	.st17{stroke:#000000;stroke-width:3;stroke-miterlimit:10;}
	.st18{fill:none;stroke:#000000;stroke-width:7;stroke-miterlimit:10;}
	.st19{fill:#ACD9B8;}
	.st20{fill:none;stroke:#000000;stroke-width:2;stroke-miterlimit:10;}
</style>
<g>
	<path d="M318.2,61.9c-0.4-1.3-1.7-2.2-3.1-2.2h-12.9c-1.8,0-3.2,1.4-3.2,3.2v16.1h-6.5V53.2c0-1.8-1.4-3.2-3.2-3.2h-25.8V33.9
		c0-1.8-1.4-3.2-3.2-3.2h-22.6v-6.5h42c1.8,0,3.2-1.4,3.2-3.2V8.1c0-1.8-1.4-3.2-3.2-3.2H176.4c-1.8,0-3.2,1.4-3.2,3.2V21
		c0,1.8,1.4,3.2,3.2,3.2h42v6.5h-22.6c-1.8,0-3.2,1.4-3.2,3.2v17.6l-17.1,11.4H157c-1.8,0-3.2,1.4-3.2,3.2v9.7h-6.5V50
		c0-1.8-1.4-3.2-3.2-3.2h-12.9c-1.8,0-3.2,1.4-3.2,3.2v80.7c0,1.8,1.4,3.2,3.2,3.2h12.9c1.8,0,3.2-1.4,3.2-3.2v-22.6h6.5v9.7
		c0,1.8,1.4,3.2,3.2,3.2h18.4l18.6,12.4c0.5,0.4,1.1,0.5,1.8,0.5h6.5v9.7c0,1.8,1.4,3.2,3.2,3.2h45.2c1.8,0,3.2-1.4,3.2-3.2v-9.7
		h35.5c1.8,0,3.2-1.4,3.2-3.2v-25.8h6.5V121c0,1.8,1.4,3.2,3.2,3.2h12.9c1.4,0,2.6-0.9,3.1-2.2l3.2-9.7c0.1-0.3,0.2-0.7,0.2-1V72.6
		c0-0.3-0.1-0.7-0.2-1L318.2,61.9z M179.6,11.3h96.8v6.5h-96.8V11.3z M224.8,24.2h6.5v6.5h-6.5V24.2z M140.9,127.5h-6.5V53.2h6.5
		V127.5z M147.4,101.7V82.3h6.5v19.4H147.4z M178.2,115.1c-0.5-0.4-1.2-0.5-1.8-0.5h-16.1V69.4h12.9v19.4c0,1.8,1.4,3.2,3.2,3.2
		c1.8,0,3.2-1.4,3.2-3.2V67.9l17.9-11.9c0.9-0.6,1.4-1.6,1.4-2.7V37.1h58.1V50h-32.3c-1.8,0-3.2,1.4-3.2,3.2s1.4,3.2,3.2,3.2h48.4
		v71h-76.5L178.2,115.1z M247.4,140.4h-38.7v-6.5h38.7V140.4z M286.1,127.5h-6.5v-71h6.5V127.5z M292.6,98.4V85.5h6.5v12.9H292.6z
		 M315.2,110.8l-2.3,7h-7.4V66.2h7.4l2.3,7V110.8z"/>
	<path d="M208.7,56.5h3.2c1.8,0,3.2-1.4,3.2-3.2s-1.4-3.2-3.2-3.2h-3.2c-1.8,0-3.2,1.4-3.2,3.2S206.9,56.5,208.7,56.5z"/>
	<path d="M176.4,98.4c-1.8,0-3.2,1.4-3.2,3.2v3.2c0,1.8,1.4,3.2,3.2,3.2c1.8,0,3.2-1.4,3.2-3.2v-3.2
		C179.6,99.9,178.2,98.4,176.4,98.4z"/>
	<path d="M189.3,75.8h74.2c1.8,0,3.2-1.4,3.2-3.2c0-1.8-1.4-3.2-3.2-3.2h-74.2c-1.8,0-3.2,1.4-3.2,3.2
		C186.1,74.4,187.5,75.8,189.3,75.8z"/>
	<path d="M189.3,88.7h74.2c1.8,0,3.2-1.4,3.2-3.2s-1.4-3.2-3.2-3.2h-74.2c-1.8,0-3.2,1.4-3.2,3.2S187.5,88.7,189.3,88.7z"/>
	<path d="M189.3,101.7h74.2c1.8,0,3.2-1.4,3.2-3.2s-1.4-3.2-3.2-3.2h-74.2c-1.8,0-3.2,1.4-3.2,3.2S187.5,101.7,189.3,101.7z"/>
	<path d="M266.8,111.3c0-1.8-1.4-3.2-3.2-3.2h-74.2c-1.8,0-3.2,1.4-3.2,3.2s1.4,3.2,3.2,3.2h74.2
		C265.3,114.6,266.8,113.1,266.8,111.3z"/>
</g>
<rect x="5.7" y="49.9" class="st8" width="141.3" height="90.9"/>
<text transform="matrix(1 0 0 1 5.7124 120.9408)"><tspan x="0" y="0" class="st9 st10">8 </tspan><tspan x="72.5" y="-9" class="st9 st11">x</tspan></text>
<rect x="370.7" y="42.9" class="st8" width="257.3" height="120.9"/>
<text transform="matrix(1 0 0 1 370.7124 113.9408)"><tspan x="0" y="0" class="st9 st10 st12">3 </tspan><tspan x="66.9" y="0" class="st9 st13 st14">kW</tspan></text>
<line class="st15" x1="360" y1="78.8" x2="336" y2="78.8"/>
<line class="st15" x1="360" y1="98.8" x2="336" y2="98.8"/>
</svg>
