<?xml version="1.0" encoding="utf-8"?>
<!-- Generator: Adobe Illustrator 22.0.0, SVG Export Plug-In . SVG Version: 6.00 Build 0)  -->
<svg version="1.1" id="Warstwa_1" xmlns="http://www.w3.org/2000/svg" xmlns:xlink="http://www.w3.org/1999/xlink" x="0px" y="0px"
	 viewBox="0 0 330 330" style="enable-background:new 0 0 330 330;" xml:space="preserve">
<style type="text/css">
	.st0{fill:none;stroke:#000000;stroke-width:10;stroke-miterlimit:10;}
	.st1{fill:#76B843;}
	.st2{fill:none;}
	.st3{font-family:'Raleway-ExtraBold';}
	.st4{font-size:100px;}
	.st5{fill:#ACD9B8;}
	.st6{font-size:90px;}
	.st7{font-size:70px;}
	.st8{display:none;fill:#FFFFFF;}
	.st9{fill:url(#SVGID_1_);}
	.st10{fill:url(#SVGID_2_);}
	.st11{fill:none;stroke:url(#SVGID_3_);stroke-width:7;stroke-miterlimit:10;}
	.st12{display:none;}
	.st13{fill:none;stroke:url(#SVGID_4_);stroke-width:7;stroke-miterlimit:10;}
	.st14{stroke:#000000;stroke-width:10;stroke-linecap:round;stroke-miterlimit:10;}
	.st15{fill:none;stroke:#000000;stroke-width:5;stroke-miterlimit:10;}
	.st16{stroke:#000000;stroke-width:3;stroke-miterlimit:10;}
	.st17{fill:none;stroke:#000000;stroke-width:7;stroke-miterlimit:10;}
	.st18{fill:none;stroke:#000000;stroke-width:2;stroke-miterlimit:10;}
</style>
<path class="st0" d="M282.3,319H47.7C30.2,319,16,304.8,16,287.3V52.7c0-9,36.5-57.1,53-29.7c35,58,50.8-32.4,76,2c33,45,53-23,72,3
	c28.6,39.2,53.4-8.2,65.3-7C303,23,314,35.2,314,52.7v234.6C314,304.8,299.8,319,282.3,319z"/>
<rect x="78" y="77" class="st2" width="236" height="203"/>
<text transform="matrix(1 0 0 1 78 149.9995)"><tspan x="0" y="0" class="st3 st4">MAX</tspan><tspan x="0" y="108" class="st5 st3 st6">100</tspan><tspan x="157.4" y="108" class="st5 st3 st7">m</tspan></text>
<polygon points="33,52 60,75 60,84 51,76 51,273 60,280 60,288 35,268 35.1,261.9 43.1,267.9 43,70 33,60 "/>
</svg>
