<?xml version="1.0" encoding="utf-8"?>
<!-- Generator: Adobe Illustrator 22.0.0, SVG Export Plug-In . SVG Version: 6.00 Build 0)  -->
<svg version="1.1" id="Warstwa_1" xmlns="http://www.w3.org/2000/svg" xmlns:xlink="http://www.w3.org/1999/xlink" x="0px" y="0px"
	 viewBox="0 0 580 335" style="enable-background:new 0 0 580 335;" xml:space="preserve">
<style type="text/css">
	.st0{fill:none;stroke:#000000;stroke-width:10;stroke-miterlimit:10;}
	.st1{fill:#76B843;}
	.st2{display:none;fill:#FFFFFF;}
	.st3{fill:url(#SVGID_1_);}
	.st4{fill:url(#SVGID_2_);}
	.st5{fill:none;stroke:url(#SVGID_3_);stroke-width:7;stroke-miterlimit:10;}
	.st6{display:none;}
	.st7{fill:none;stroke:url(#SVGID_4_);stroke-width:7;stroke-miterlimit:10;}
	.st8{stroke:#000000;stroke-width:10;stroke-linecap:round;stroke-miterlimit:10;}
	.st9{fill:none;stroke:#000000;stroke-width:5;stroke-miterlimit:10;}
	.st10{stroke:#000000;stroke-width:3;stroke-miterlimit:10;}
	.st11{fill:none;stroke:#000000;stroke-width:7;stroke-miterlimit:10;}
	.st12{fill:#ACD9B8;}
	.st13{fill:none;stroke:#000000;stroke-width:2;stroke-miterlimit:10;}
</style>
<path class="st0" d="M347.3,320.5H112.7c-17.5,0-31.7-14.2-31.7-31.7V54.2c0-9,36.5-57.1,53-29.7c35,58,50.8-32.4,76,2
	c33,45,53-23,72,3c28.6,39.2,53.4-8.2,65.3-7c20.7,2,31.7,14.2,31.7,31.7v234.6C379,306.3,364.8,320.5,347.3,320.5z"/>
<g>
	<path d="M545.2,68C529,48.3,503,47.2,478.3,53c-32,7.5-54.3,36.1-54.3,68.7v116c0,4.7,2,9.2,5.5,12.3c8.3,7.4,19.1,12.8,30,11.2
		C478.8,258.2,607.2,143.1,545.2,68L545.2,68z M458.5,254.7c-10.3,1.6-19.8-5.3-24.6-9.6c-2.1-1.9-3.3-4.6-3.3-7.4v-116
		c0-29.7,20.4-55.5,49.2-62.2c22.2-5.2,45.7-4.9,60.3,12.7C597.8,142.1,473.9,252.3,458.5,254.7z"/>
	<path d="M526.1,86.7c-1.2-1.4-3.3-1.6-4.7-0.4c-1.4,1.2-1.6,3.3-0.4,4.7c18.2,21.3,13.1,48-0.1,72.4c7.4-19.8,10.2-42.7-3-59.2
		c-16.6-20.8-45.8-10.8-56.7,10c-0.8,1.6-0.2,3.6,1.4,4.5c1.6,0.8,3.6,0.2,4.5-1.4c8.5-16.2,32-26.1,45.6-8.9
		c18.8,23.6-0.2,65.1-18.1,89.3c8.7-35.8-18.1-70.2-47.4-58.9c-0.1-8,1.1-22.1,9-36.1c8.3-14.7,26.3-25,42.8-23.3
		c1.8,0.2,3.4-1.1,3.6-3s-1.1-3.4-3-3.6c-18.8-1.9-39.4,9.3-49.2,26.6c-12.4,22.1-9.7,44-9.3,46.7c0.1,3.6,3.1,6.5,6.8,6.5
		c7.2,0,14.2,5.5,14.2,14.9c0,6-4.1,11.2-9.9,12.8c-6.5,1.7-11.1,7.5-11.1,14.3v17.5c0,4.6,1.9,8.8,5.8,12.2
		c5.6,4.8,12.5,8.1,19.7,6.9C480.6,228.7,573.5,142.3,526.1,86.7L526.1,86.7z M447.8,194.5c0-3.7,2.5-6.9,6.1-7.9
		c8.7-2.3,14.9-10.1,14.9-19.2c0-13-9.9-21.5-20.8-21.5c-0.2,0-0.2-0.1-0.2-0.3c20.5-9.9,41.9,10.3,41.9,38.2
		c0,23.5-14.3,38.7-28.1,40.5c-3.8-0.7-7.4-2.9-10.3-5.4C446.5,214.9,447.9,211.9,447.8,194.5L447.8,194.5z"/>
	<path d="M508.9,80.4c0.3,1.5,1.6,2.7,3.2,2.7c2.3,0,4-2.4,3.1-4.6C513.7,74.8,508.1,76.4,508.9,80.4z"/>
</g>
<polyline class="st11" points="46.5,161 63.5,197 71.5,126 84.5,201 92.5,110 92.5,163 108.5,143 108.5,161 117.5,152 121.5,164 
	124.5,155 124.5,139 128.5,152 156.5,163 168.5,97 176.5,220 189.5,158 195.5,168 202.5,156 206.5,168 214.5,156 220.5,168 
	249.5,97 264.5,165 277.5,156 277.5,173 288.5,204 302.5,233 313.5,191 313.5,135 337.5,168 334.5,192 362.5,139 362.5,168 
	366.5,193 386.5,184 390.5,165 426.5,165 "/>
<line class="st13" x1="12.5" y1="166" x2="413.5" y2="166"/>
</svg>
