<?xml version="1.0" encoding="utf-8"?>
<!-- Generator: Adobe Illustrator 22.0.0, SVG Export Plug-In . SVG Version: 6.00 Build 0)  -->
<svg version="1.1" id="Warstwa_1" xmlns="http://www.w3.org/2000/svg" xmlns:xlink="http://www.w3.org/1999/xlink" x="0px" y="0px"
	 viewBox="0 0 330 330" style="enable-background:new 0 0 330 330;" xml:space="preserve">
<style type="text/css">
	.st0{fill:none;stroke:#000000;stroke-width:10;stroke-miterlimit:10;}
	.st1{fill:#76B843;}
	.st2{display:none;fill:#FFFFFF;}
	.st3{fill:url(#SVGID_1_);}
	.st4{fill:url(#SVGID_2_);}
	.st5{fill:none;stroke:url(#SVGID_3_);stroke-width:7;stroke-miterlimit:10;}
	.st6{display:none;}
	.st7{fill:none;stroke:url(#SVGID_4_);stroke-width:7;stroke-miterlimit:10;}
	.st8{fill:none;}
	.st9{fill:#FFFFFF;}
	.st10{font-family:'MyriadPro-Regular';}
	.st11{font-size:49.568px;}
	.st12{stroke:#000000;stroke-width:10;stroke-linecap:round;stroke-miterlimit:10;}
	.st13{fill:none;stroke:#000000;stroke-width:5;stroke-miterlimit:10;}
	.st14{stroke:#000000;stroke-width:3;stroke-miterlimit:10;}
	.st15{fill:none;stroke:#000000;stroke-width:7;stroke-miterlimit:10;}
	.st16{fill:#ACD9B8;}
	.st17{fill:none;stroke:#000000;stroke-width:2;stroke-miterlimit:10;}
</style>
<g id="surface1_2_">
	<path d="M124,235.8l-23.8-41.3c3.6-5.4,5.6-11.8,5.6-18.3c0-0.9-0.1-1.9-0.1-2.9l71-41c1.7,0.5,3.5,0.8,5.3,0.8
		c5.1,0,10-2,13.8-5.5c0,0,2.9-2,4.5-6.8c2.5-7.4,0.9-12.3,0.9-12.3c-0.8-3.3-2.4-6.3-4.7-8.8l3.3-12.2l12.8,3.4
		c1.8,0.5,3.6-0.6,4.1-2.3l3.4-12.8c0.5-1.8-0.6-3.6-2.3-4.1c0,0,0,0,0,0l-22.4-6c-5.3-1.4-10.7,1.7-12.2,7L177.3,94
		c-7.7,1.8-13.6,8.1-14.9,15.9L92.9,150c-14.4-11.2-35.2-8.6-46.4,5.8c-11.2,14.4-8.6,35.2,5.8,46.4c5.2,4.1,11.5,6.5,18.1,6.9
		l15.4,26.6H39.5v26.5h198.7v-26.5H124z M189.4,74.5c0.5-1.8,2.3-2.8,4-2.3l19.2,5.1l-1.7,6.4l-12.8-3.5c-1.8-0.5-3.6,0.6-4.1,2.3
		c0,0,0,0,0,0l-3.4,12.8c-0.3-0.2-0.7-0.2-1-0.4c-0.5-0.2-1-0.4-1.5-0.6c-0.6-0.2-1.2-0.3-1.8-0.5c-0.5-0.1-1-0.2-1.5-0.3
		c-0.2,0-0.4-0.1-0.6-0.1L189.4,74.5z M180.5,100.1c0.6-0.1,1.2-0.1,1.8-0.1c0.6,0,1.2,0.1,1.8,0.2c0.2,0,0.3,0.1,0.5,0.1
		c0.6,0.1,1.2,0.3,1.8,0.5c0.3,0.1,0.6,0.3,1,0.4c0.4,0.2,0.8,0.4,1.2,0.6c0.7,0.4,1.4,0.9,2,1.4h0c2.5,2.2,4.2,5.3,4.5,8.6
		c0.1,0.5,0.1,1,0.1,1.5c0,7.3-5.9,13.2-13.2,13.2c-1.6,0-3.2-0.3-4.7-0.9c-5.2-1.9-8.6-6.9-8.6-12.4c0-0.2,0-0.4,0-0.6
		c0-0.1,0-0.1,0-0.2l0.4-2.5C170.5,104.6,175,100.7,180.5,100.1L180.5,100.1z M162.5,117.5c0.1,0.3,0.2,0.5,0.2,0.8
		c0.2,0.6,0.3,1.2,0.6,1.8c0.1,0.4,0.3,0.8,0.5,1.2c0.3,0.6,0.6,1.2,0.9,1.7c0.2,0.4,0.4,0.7,0.6,1.1c0.4,0.6,0.8,1.1,1.2,1.7
		c0.2,0.3,0.4,0.6,0.7,0.8c0.6,0.6,1.2,1.2,1.8,1.8c0.1,0.1,0.3,0.3,0.4,0.4l-65.2,37.7c0-0.1-0.1-0.3-0.1-0.4
		c-0.2-0.7-0.5-1.4-0.8-2.1c-0.1-0.3-0.2-0.6-0.3-0.8c-0.4-1-0.9-1.9-1.3-2.8c-0.1-0.2-0.2-0.3-0.3-0.5c-0.4-0.7-0.9-1.5-1.4-2.2
		c-0.2-0.3-0.4-0.6-0.6-0.9c-0.4-0.6-0.8-1.1-1.3-1.7c-0.1-0.1-0.2-0.3-0.3-0.4L162.5,117.5z M46.1,176.2
		c0-14.6,11.9-26.5,26.5-26.5c6.6,0,12.9,2.4,17.7,6.8c4.5,4.1,7.5,9.5,8.4,15.5c0.2,1.4,0.3,2.7,0.3,4.1c0,14.7-12,26.5-26.6,26.5
		c0,0-0.1,0-0.1,0C57.8,202.5,46.2,190.7,46.1,176.2z M77.8,208.9c0.7-0.1,1.4-0.3,2.1-0.4l0.3-0.1c1.1-0.3,2.1-0.6,3.2-0.9
		c0.3-0.1,0.5-0.2,0.8-0.3c0.9-0.3,1.9-0.7,2.8-1.2c0.1-0.1,0.2-0.1,0.3-0.2c1-0.5,1.9-1,2.9-1.6c0.2-0.2,0.5-0.3,0.7-0.5
		c0.8-0.5,1.6-1.1,2.4-1.7c0.1-0.1,0.3-0.2,0.4-0.3c0.7-0.6,1.4-1.2,2-1.8l20.7,35.8H93.4L77.8,208.9z M231.6,255.6H46.1v-13.2
		h185.4V255.6z"/>
	<path d="M72.6,196c11,0,19.8-8.9,19.9-19.9c0-1-0.1-2.1-0.3-3.1c-1.7-10.8-11.9-18.2-22.7-16.5c-10.8,1.7-18.2,11.9-16.5,22.7
		c1.5,9.5,9.7,16.6,19.3,16.7H72.6z M59.4,176.2c0-7.3,5.9-13.2,13.2-13.2c3.3,0,6.4,1.2,8.9,3.4c2.2,2,3.7,4.7,4.2,7.7
		c0.1,0.7,0.2,1.4,0.2,2.1c0,7.3-5.9,13.2-13.2,13.2h-0.2C65.1,189.3,59.4,183.4,59.4,176.2z"/>
	<path class="st6" d="M181.9,123.2c5.5,0,9.9-4.4,9.9-9.9c0-5.5-4.4-9.9-9.9-9.9c-5.5,0-9.9,4.4-9.9,9.9
		C172,118.7,176.4,123.2,181.9,123.2z M181.9,109.9c1.8,0,3.3,1.5,3.3,3.3c0,1.8-1.5,3.3-3.3,3.3c-1.8,0-3.3-1.5-3.3-3.3
		C178.6,111.4,180.1,109.9,181.9,109.9z"/>
	<g>
		<g>
			<path d="M194.9,127.7c4.1,0,8.2,0,12.3,0c2.5,0,6.7,0.9,8.8-0.8c2.7-2.2,4.7-7,6.6-9.9c2.2-3.3,4.4-6.6,6.6-9.9
				c1.1-1.6-1.5-3.1-2.6-1.5c-1.8,2.8-3.7,5.5-5.5,8.3c-1.4,2.1-2.9,4.3-4.3,6.4c-0.8,1.3-2.7,3.1-3.1,4.6c-0.3,1.2,0.1-0.3,0.8-0.2
				c-0.5-0.1-1.1,0-1.6,0c-2.2-0.2-4.5,0-6.6,0c-3.8,0-7.6,0-11.3,0C193,124.7,193,127.7,194.9,127.7L194.9,127.7z"/>
		</g>
	</g>
	<g>
		<g>
			<path d="M198.9,106.7c2.1-1.3,4.2-2.5,6.3-3.8c0.9-0.5,1.9-1.4,2.8-1.7c-0.8,0.3,0.2,0.1,1.1,0.2c5,0.7,10.1,0.8,15.1,1.2
				c1.9,0.2,1.9-2.8,0-3c-5.1-0.4-10.7-1.5-15.8-1.3c-3.8,0.2-7.7,3.8-10.9,5.8C195.7,105.1,197.2,107.7,198.9,106.7L198.9,106.7z"
				/>
		</g>
	</g>
</g>
<linearGradient id="SVGID_1_" gradientUnits="userSpaceOnUse" x1="226.6885" y1="99.2379" x2="226.6885" y2="209.7352">
	<stop  offset="0" style="stop-color:#FFFFFF"/>
	<stop  offset="0.4784" style="stop-color:#FBFCFB;stop-opacity:0.9613"/>
	<stop  offset="0.7811" style="stop-color:#D1E9D6;stop-opacity:0"/>
	<stop  offset="1" style="stop-color:#ACD9B8"/>
</linearGradient>
<polygon style="fill:none;stroke:url(#SVGID_1_);stroke-width:7;stroke-miterlimit:10;" points="226.7,106.2 169,206.2 284.4,206.2 
	"/>
<rect x="166.6" y="157.9" class="st8" width="137.4" height="76"/>
<text transform="matrix(1 0 0 1 166.5864 193.0986)" class="st9 st10 st11">0,5 kg</text>
<path class="st0" d="M284.3,313H49.7C32.2,313,18,298.8,18,281.3V46.7C18,29.2,32.2,15,49.7,15h234.6c17.5,0,31.7,14.2,31.7,31.7
	v234.6C316,298.8,301.8,313,284.3,313z"/>
</svg>
