<?xml version="1.0" encoding="utf-8"?>
<!-- Generator: Adobe Illustrator 22.0.0, SVG Export Plug-In . SVG Version: 6.00 Build 0)  -->
<svg version="1.1" id="Warstwa_1" xmlns="http://www.w3.org/2000/svg" xmlns:xlink="http://www.w3.org/1999/xlink" x="0px" y="0px"
	 viewBox="0 0 320 320" style="enable-background:new 0 0 320 320;" xml:space="preserve">
<style type="text/css">
	.st0{fill:none;stroke:#000000;stroke-width:10;stroke-miterlimit:10;}
	.st1{fill:#76B843;}
	.st2{display:none;fill:#FFFFFF;}
	.st3{fill:url(#SVGID_1_);}
	.st4{fill:url(#SVGID_2_);}
	.st5{fill:none;stroke:url(#SVGID_3_);stroke-width:7;stroke-miterlimit:10;}
	.st6{display:none;}
	.st7{fill:none;stroke:url(#SVGID_4_);stroke-width:7;stroke-miterlimit:10;}
	.st8{stroke:#000000;stroke-width:10;stroke-linecap:round;stroke-miterlimit:10;}
	.st9{fill:none;stroke:#000000;stroke-width:5;stroke-miterlimit:10;}
	.st10{stroke:#000000;stroke-width:3;stroke-miterlimit:10;}
	.st11{fill:none;stroke:#000000;stroke-width:7;stroke-miterlimit:10;}
	.st12{fill:#ACD9B8;}
	.st13{fill:none;stroke:#000000;stroke-width:2;stroke-miterlimit:10;}
	.st14{fill:none;}
	.st15{font-family:'Raleway-ExtraBold';}
	.st16{font-size:85px;}
	.st17{letter-spacing:7;}
</style>
<g>
	<g>
		<g>
			<path d="M123.5,218.3h-42v-7h35v-7h-35v-14h-7v28c0,3.9,3.1,7,7,7h42c3.9,0,7-3.1,7-7v-28h-7V218.3z"/>
			<path d="M74.5,141.3c0-15.4,12.6-28,28-28c3.2,0,6.3,0.5,9.3,1.6l2.3-6.6c-3.7-1.3-7.7-2-11.7-2c-19.3,0-35,15.7-35,35
				c0,11.7,5.8,22.6,15.6,29.1l3.9-5.8C79.2,159.4,74.5,150.7,74.5,141.3z"/>
			<path d="M121.9,112.2l-3.9,5.8c7.8,5.2,12.4,13.9,12.4,23.3c0,15.4-12.6,28-28,28c-3.2,0-6.3-0.5-9.3-1.6l-2.3,6.6
				c3.7,1.3,7.7,2,11.7,2c19.3,0,35-15.7,35-35C137.5,129.6,131.7,118.7,121.9,112.2z"/>
			<path d="M102.5,155.3c7.7,0,14-6.3,14-14c0-7.7-6.3-14-14-14s-14,6.3-14,14C88.5,149,94.8,155.3,102.5,155.3z M102.5,134.3
				c3.9,0,7,3.1,7,7s-3.1,7-7,7s-7-3.1-7-7S98.6,134.3,102.5,134.3z"/>
			<path d="M260,155.3h-84c-5.8,0-10.5,4.7-10.5,10.5v3.5h-14v-28c0-27-22-49-49-49s-49,22-49,49v80.5c0,9.6,7.9,17.5,17.5,17.5h63
				c9.6,0,17.5-7.9,17.5-17.5v-10.5h14v3.5c0,5.8,4.7,10.5,10.5,10.5h84c5.8,0,10.5-4.7,10.5-10.5v-49
				C270.5,160,265.8,155.3,260,155.3z M144.5,169.3v42v10.5c0,5.8-4.7,10.5-10.5,10.5H71c-5.8,0-10.5-4.7-10.5-10.5v-55.4
				c8.6,14.3,24.2,23.9,42,23.9s33.4-9.6,42-23.9V169.3z M102.5,183.3c-23.2,0-42-18.8-42-42s18.8-42,42-42s42,18.8,42,42
				S125.7,183.3,102.5,183.3z M165.5,204.3h-14v-28h14V204.3z M263.5,214.8c0,1.9-1.6,3.5-3.5,3.5h-84c-1.9,0-3.5-1.6-3.5-3.5v-3.5
				v-42v-3.5c0-1.9,1.6-3.5,3.5-3.5h84c1.9,0,3.5,1.6,3.5,3.5V214.8z"/>
			<polygon points="200.5,186.8 186.5,186.8 186.5,169.3 179.5,169.3 179.5,211.3 186.5,211.3 186.5,193.8 200.5,193.8 200.5,211.3 
				207.5,211.3 207.5,169.3 200.5,169.3 			"/>
			<path d="M221.5,169.3h-7v42h7c11.6,0,21-9.4,21-21C242.5,178.7,233.1,169.3,221.5,169.3z M221.5,204.3v-28c7.7,0,14,6.3,14,14
				C235.5,198,229.2,204.3,221.5,204.3z"/>
			<rect x="249.5" y="169.3" width="7" height="7"/>
			<rect x="249.5" y="204.3" width="7" height="7"/>
		</g>
	</g>
	<path class="st0" d="M278.8,309H44.2c-17.5,0-31.7-14.2-31.7-31.7V42.7C12.5,25.2,26.7,11,44.2,11h234.6
		c17.5,0,31.7,14.2,31.7,31.7v234.6C310.5,294.8,296.3,309,278.8,309z"/>
	<rect x="169.8" y="79.3" class="st14" width="200.7" height="95.3"/>
	<text transform="matrix(1 0 0 1 169.8335 132.3838)" class="st15 st16 st17">4x</text>
</g>
</svg>
