<?xml version="1.0" encoding="utf-8"?>
<!-- Generator: Adobe Illustrator 22.0.0, SVG Export Plug-In . SVG Version: 6.00 Build 0)  -->
<svg version="1.1" id="Warstwa_1" xmlns="http://www.w3.org/2000/svg" xmlns:xlink="http://www.w3.org/1999/xlink" x="0px" y="0px"
	 viewBox="0 0 424.7 320" style="enable-background:new 0 0 424.7 320;" xml:space="preserve">
<style type="text/css">
	.st0{fill:none;stroke:#000000;stroke-width:10;stroke-miterlimit:10;}
	.st1{fill:none;}
	.st2{font-family:'Raleway-ExtraBold';}
	.st3{font-size:86.7196px;}
	.st4{fill:#76B843;}
	.st5{display:none;fill:#FFFFFF;}
	.st6{fill:url(#SVGID_1_);}
	.st7{fill:url(#SVGID_2_);}
	.st8{fill:none;stroke:url(#SVGID_3_);stroke-width:7;stroke-miterlimit:10;}
	.st9{display:none;}
	.st10{fill:none;stroke:url(#SVGID_4_);stroke-width:7;stroke-miterlimit:10;}
	.st11{stroke:#000000;stroke-width:10;stroke-linecap:round;stroke-miterlimit:10;}
	.st12{fill:none;stroke:#000000;stroke-width:5;stroke-miterlimit:10;}
	.st13{stroke:#000000;stroke-width:3;stroke-miterlimit:10;}
	.st14{fill:none;stroke:#000000;stroke-width:7;stroke-miterlimit:10;}
	.st15{fill:#ACD9B8;}
	.st16{fill:none;stroke:#000000;stroke-width:2;stroke-miterlimit:10;}
</style>
<path class="st0" d="M381.2,310H146.5c-17.5,0-31.7-14.2-31.7-31.7V43.7c0-17.5,14.2-31.7,31.7-31.7h234.6
	c17.5,0,31.7,14.2,31.7,31.7v234.6C412.9,295.8,398.7,310,381.2,310z"/>
<rect x="132" y="165.9" class="st1" width="345.3" height="127.7"/>
<text transform="matrix(1 0 0 1 131.9634 229.1636)" class="st2 st3">Xavier</text>
<g id="layer1_2_" transform="translate(486.0612,-508.1447)" inkscape:groupmode="layer" inkscape:label="Ebene 1">
	<g id="g2100_2_">
		<g id="g2096_2_" transform="translate(0,-11.54035)">
			<path id="path14_3_" d="M-92.6,638.8v-1.1h0.7c0.4,0,0.9,0,0.9,0.5c0,0.5-0.3,0.6-0.7,0.6H-92.6z M-92.6,639.5h0.5l1,1.9h1.2
				l-1.2-2c0.6,0,1.1-0.3,1.1-1.2c0-1-0.7-1.4-1.9-1.4h-1.7v4.5h1V639.5z M-87.6,639.2c0-2.6-2-4.2-4.3-4.2s-4.3,1.5-4.3,4.2
				s2,4.2,4.3,4.2S-87.6,641.8-87.6,639.2 M-88.8,639.2c0,1.9-1.4,3.2-3.1,3.2v0c-1.7,0-3.1-1.3-3.1-3.2c0-1.9,1.4-3.2,3.1-3.2
				C-90.2,636-88.8,637.3-88.8,639.2"/>
			<path id="path16_2_" d="M-246.2,594.6l0,47.2h13.3v-47.2H-246.2z M-351.2,594.6v47.3h13.5v-35.9l10.4,0c3.5,0,5.9,0.9,7.6,2.6
				c2.1,2.2,3,5.9,3,12.5v20.8h13v-26.1c0-18.7-11.9-21.2-23.5-21.2H-351.2z M-224.7,594.6v47.2h21.6c11.5,0,15.3-1.9,19.4-6.2
				c2.9-3,4.7-9.6,4.7-16.9c0-6.6-1.6-12.6-4.3-16.2c-4.9-6.6-12.1-7.9-22.7-7.9H-224.7z M-211.5,604.9h5.7
				c8.3,0,13.7,3.7,13.7,13.4c0,9.7-5.4,13.4-13.7,13.4h-5.7V604.9z M-265.4,594.6l-11.1,37.4l-10.7-37.4h-14.4l15.2,47.2h19.2
				l15.4-47.2H-265.4z M-172.8,641.9h13.3v-47.2h-13.3V641.9z M-135.4,594.6l-18.6,47.2h13.2l2.9-8.3h22l2.8,8.3h14.3l-18.8-47.2
				H-135.4z M-126.7,603.3l8.1,22.1h-16.4L-126.7,603.3z"/>
		</g>
		<path id="path2045_2_" class="st4" d="M-436.6,592.4v-6.7c0.7,0,1.3-0.1,2-0.1c18.4-0.6,30.5,15.8,30.5,15.8s-13.1,18.1-27.1,18.1
			c-2,0-3.8-0.3-5.4-0.9v-20.4c7.2,0.9,8.6,4,12.9,11.2l9.6-8.1c0,0-7-9.2-18.8-9.2C-434.2,592.1-435.4,592.2-436.6,592.4
			 M-436.6,570.1v10.1c0.7-0.1,1.3-0.1,2-0.1c25.6-0.9,42.3,21,42.3,21s-19.2,23.3-39.2,23.3c-1.8,0-3.5-0.2-5.2-0.5v6.2
			c1.4,0.2,2.8,0.3,4.3,0.3c18.6,0,32-9.5,45.1-20.7c2.2,1.7,11,5.9,12.8,7.8c-12.4,10.4-41.2,18.7-57.6,18.7
			c-1.6,0-3.1-0.1-4.6-0.2v8.7h70.7v-74.6H-436.6z M-436.6,618.6v5.3c-17.2-3.1-22-20.9-22-20.9s8.3-9.1,22-10.6v5.8c0,0,0,0,0,0
			c-7.2-0.9-12.8,5.9-12.8,5.9S-446.3,615.4-436.6,618.6 M-467.1,602.2c0,0,10.2-15,30.5-16.6v-5.5c-22.5,1.8-42.1,20.9-42.1,20.9
			s11.1,32,42.1,34.9v-5.8C-459.3,627.3-467.1,602.2-467.1,602.2"/>
	</g>
</g>
</svg>
