<?xml version="1.0" encoding="utf-8"?>
<!-- Generator: Adobe Illustrator 22.0.0, SVG Export Plug-In . SVG Version: 6.00 Build 0)  -->
<svg version="1.1" id="Warstwa_1" xmlns="http://www.w3.org/2000/svg" xmlns:xlink="http://www.w3.org/1999/xlink" x="0px" y="0px"
	 viewBox="0 0 290 290" style="enable-background:new 0 0 290 290;" xml:space="preserve">
<style type="text/css">
	.st0{fill:none;stroke:#000000;stroke-width:10;stroke-miterlimit:10;}
	.st1{fill:#76B843;}
	.st2{display:none;fill:#FFFFFF;}
	.st3{fill:url(#SVGID_1_);}
	.st4{fill:url(#SVGID_2_);}
	.st5{fill:none;stroke:url(#SVGID_3_);stroke-width:7;stroke-miterlimit:10;}
	.st6{display:none;}
	.st7{fill:none;stroke:url(#SVGID_4_);stroke-width:7;stroke-miterlimit:10;}
	.st8{stroke:#000000;stroke-width:10;stroke-linecap:round;stroke-miterlimit:10;}
	.st9{fill:none;stroke:#000000;stroke-width:5;stroke-miterlimit:10;}
	.st10{stroke:#000000;stroke-width:3;stroke-miterlimit:10;}
	.st11{fill:none;stroke:#000000;stroke-width:7;stroke-miterlimit:10;}
	.st12{fill:#ACD9B8;}
	.st13{fill:none;stroke:#000000;stroke-width:2;stroke-miterlimit:10;}
</style>
<g id="outline_2_">
	<path d="M148,7.5c-75.7,0-137,61.3-137,137s61.3,137,137,137s137-61.3,137-137C284.9,68.9,223.6,7.6,148,7.5z M148,272.4
		c-70.6,0-127.9-57.2-127.9-127.9S77.4,16.6,148,16.6s127.9,57.2,127.9,127.9C275.8,215.1,218.6,272.3,148,272.4z"/>
	<path d="M148,25.8c-65.6,0-118.7,53.2-118.7,118.7S82.4,263.2,148,263.2s118.7-53.2,118.7-118.7C266.7,79,213.5,25.8,148,25.8z
		 M257.5,139.9h-23c-0.9-17.8-7.3-35-18.4-49l7.9-6.9l-6-6.9l-7.9,6.9c-5-5.1-10.6-9.6-16.7-13.3l11-20.1
		C236,69.6,255.9,103.1,257.5,139.9z M102.3,85.1c0,5-4.1,9.1-9.1,9.1s-9.1-4.1-9.1-9.1s4.1-9.1,9.1-9.1S102.3,80.1,102.3,85.1z
		 M83.9,100.8c2.8,1.7,6,2.6,9.3,2.6c10.1,0,18.3-8.2,18.3-18.3c0-2.8-0.7-5.5-1.9-8c10.4-5.9,22-9.4,33.9-10.1v27.5
		c-24.1,2.2-43.2,21.3-45.4,45.4H70.6C71.3,125.9,76,112.4,83.9,100.8z M170.8,176.5c0-5,4.1-9.1,9.1-9.1c5,0,9.1,4.1,9.1,9.1
		c0,5-4.1,9.1-9.1,9.1C174.9,185.6,170.8,181.5,170.8,176.5z M186.3,159.4c-9.3-3.6-19.8,1.1-23.4,10.4c-1.6,4.2-1.6,8.8,0,13
		c-3.3,1.3-6.8,2.2-10.3,2.5v-36.3h36.3C188.5,152.6,187.6,156.1,186.3,159.4z M152.6,126.6v-22.9c3.8,0.4,7.5,1.4,11,2.8
		L152.6,126.6z M171.5,110.9c1.5,1,2.8,2.1,4.1,3.3l-11.4,10L171.5,110.9z M143.4,139.9h-36.3c2.2-19.1,17.2-34.1,36.3-36.3V139.9z
		 M143.4,149.1v36.3c-19.1-2.2-34.1-17.2-36.3-36.3H143.4z M174.4,139.9l13.6-4.9c0.4,1.6,0.7,3.2,0.9,4.9H174.4z M169.1,132.1
		l12.6-11.1c1.2,1.7,2.2,3.5,3.2,5.4L169.1,132.1z M182.6,108.2c-2.1-2-4.3-3.8-6.6-5.4l13.1-24c5.2,3.2,9.9,7,14.2,11.3
		L182.6,108.2z M167.9,98.4c-4.9-2.1-10.1-3.4-15.4-3.9V67.1c9.9,0.6,19.5,3,28.5,7.3L167.9,98.4z M152.6,58V35
		c15.2,0.6,30.2,4.5,43.8,11.3l-11,20.1C175.1,61.4,164,58.6,152.6,58z M98,149.1c2.2,24.1,21.3,43.2,45.4,45.4v27.4
		c-39.2-2.3-70.5-33.6-72.8-72.8H98z M152.6,194.5c5.4-0.5,10.7-1.9,15.7-4.1c7.6,6.5,19.1,5.6,25.6-2c5.8-6.8,5.8-16.8,0-23.6
		c2.2-5,3.6-10.3,4.1-15.7h27.4c-2.3,39.2-33.6,70.5-72.9,72.9V194.5z M198,139.9c-0.3-2.7-0.7-5.3-1.4-7.9l16.9-6l-3.1-8.6l-16.9,6
		c-1.4-2.9-3-5.7-4.9-8.4L209.3,97c9.6,12.4,15.2,27.3,16.1,43H198z M143.4,35v22.9c-14.1,0.7-27.8,4.9-39.9,12.2
		c-8.2-5.8-19.6-3.7-25.3,4.5c-4.1,5.8-4.4,13.5-0.8,19.6c-9.6,13.4-15.2,29.3-16,45.8H38.5C40.9,83,86.5,37.4,143.4,35z
		 M38.5,149.1h23c2.4,44.2,37.7,79.6,82,82v23C86.5,251.6,40.9,206,38.5,149.1z M152.6,254v-23c44.2-2.4,79.6-37.7,82-82h23
		C255.1,206,209.5,251.6,152.6,254z"/>
	<rect x="88.6" y="171.9" width="9.1" height="9.1"/>
	<rect x="202.8" y="217.6" width="9.1" height="9.1"/>
	<rect x="166.3" y="44" width="9.1" height="9.1"/>
</g>
</svg>
