<?xml version="1.0" encoding="utf-8"?>
<!-- Generator: Adobe Illustrator 22.0.0, SVG Export Plug-In . SVG Version: 6.00 Build 0)  -->
<svg version="1.1" id="Warstwa_1" xmlns="http://www.w3.org/2000/svg" xmlns:xlink="http://www.w3.org/1999/xlink" x="0px" y="0px"
	 viewBox="0 0 340 430" style="enable-background:new 0 0 340 430;" xml:space="preserve">
<style type="text/css">
	.st0{fill:none;stroke:#000000;stroke-width:10;stroke-miterlimit:10;}
	.st1{fill:#76B843;}
	.st2{display:none;fill:#FFFFFF;}
	.st3{fill:url(#SVGID_1_);}
	.st4{fill:url(#SVGID_2_);}
	.st5{fill:none;stroke:url(#SVGID_3_);stroke-width:7;stroke-miterlimit:10;}
	.st6{display:none;}
	.st7{fill:none;stroke:url(#SVGID_4_);stroke-width:7;stroke-miterlimit:10;}
	.st8{stroke:#000000;stroke-width:10;stroke-linecap:round;stroke-miterlimit:10;}
	.st9{fill:none;stroke:#000000;stroke-width:5;stroke-miterlimit:10;}
	.st10{stroke:#000000;stroke-width:3;stroke-miterlimit:10;}
	.st11{fill:none;stroke:#000000;stroke-width:7;stroke-miterlimit:10;}
	.st12{fill:#ACD9B8;}
	.st13{fill:none;}
	.st14{fill:#1D1A1B;}
	.st15{font-family:'Raleway-SemiBold';}
	.st16{font-size:90px;}
	.st17{fill:none;stroke:#000000;stroke-width:2;stroke-miterlimit:10;}
</style>
<path class="st0" d="M288.3,314H53.7C36.2,314,22,299.8,22,282.3V47.7C22,30.2,36.2,16,53.7,16h234.6c17.5,0,31.7,14.2,31.7,31.7
	v234.6C320,299.8,305.8,314,288.3,314z"/>
<rect x="22" y="356" class="st13" width="366" height="134"/>
<text transform="matrix(1.17 0 0 1 22 421.6997)" class="st14 st15 st16">Xsens</text>
<g>
	<path d="M273.8,101.2c-4.8,0-9.1,3-10.7,7.6h-12.7c-1.6-4.5-5.9-7.6-10.7-7.6s-9.1,3-10.7,7.6h-20.3c-1.6-4.5-5.9-7.6-10.7-7.6
		s-9.1,3-10.7,7.6h-12V97.1c11.6-2,19.8-12.5,18.8-24.3C193.3,61,183.5,52,171.7,52s-21.6,9-22.6,20.8s7.2,22.3,18.8,24.3v11.7h-12
		c-1.6-4.5-5.9-7.6-10.6-7.6c-4.8,0-9.1,3-10.7,7.6h-20.3c-1.6-4.5-5.9-7.6-10.6-7.6c-4.8,0-9.1,3-10.7,7.6H80.2
		c-1.8-5.2-7.2-8.3-12.6-7.4c-5.4,0.9-9.4,5.7-9.4,11.2s4,10.2,9.4,11.2c5.4,0.9,10.8-2.2,12.6-7.4h12.7c1.6,4.5,5.9,7.6,10.7,7.6
		c4.8,0,9.1-3,10.6-7.6h20.3c1.6,4.5,5.9,7.6,10.7,7.6c4.8,0,9.1-3,10.6-7.6h12v8.3c-4.5,1.6-7.6,5.9-7.6,10.7s3,9.1,7.6,10.7v12.7
		c-4.5,1.6-7.5,5.9-7.6,10.7c0,1.9,0.5,3.8,1.5,5.5L149.4,189c-1.3-0.5-2.8-0.8-4.2-0.8c-5.5,0-10.2,4-11.2,9.4
		c-0.9,5.4,2.2,10.8,7.4,12.6v12.7c-4.5,1.6-7.6,5.9-7.6,10.7s3,9.1,7.6,10.7V257c-5.2,1.8-8.3,7.2-7.4,12.6
		c0.9,5.4,5.7,9.4,11.2,9.4c5.5,0,10.2-4,11.2-9.4s-2.2-10.8-7.4-12.6v-12.7c4.5-1.6,7.6-5.9,7.6-10.7s-3-9.1-7.6-10.7v-12.7
		c4.5-1.6,7.5-5.9,7.6-10.7c0-1.9-0.5-3.8-1.5-5.5l12.5-14.2c2.7,1.1,5.7,1.1,8.4,0l12.4,14.2c-1,1.7-1.5,3.6-1.5,5.5
		c0,4.8,3,9.1,7.6,10.7v12.7c-4.5,1.6-7.6,5.9-7.6,10.7s3,9.1,7.6,10.7V257c-5.2,1.8-8.3,7.2-7.4,12.6c0.9,5.4,5.7,9.4,11.2,9.4
		c5.5,0,10.2-4,11.2-9.4c0.9-5.4-2.2-10.8-7.4-12.6v-12.7c4.5-1.6,7.6-5.9,7.6-10.7s-3-9.1-7.6-10.7v-12.7c3.9-1.3,6.8-4.7,7.5-8.7
		c0.7-4.1-0.8-8.2-4-10.8c-3.2-2.6-7.6-3.2-11.4-1.6l-12.5-14.2c1-1.7,1.5-3.6,1.5-5.5c0-4.8-3-9.1-7.6-10.7v-12.7
		c4.5-1.6,7.6-5.9,7.6-10.7s-3-9.1-7.6-10.7v-8.3h12c1.6,4.5,5.9,7.6,10.7,7.6s9.1-3,10.7-7.6h20.3c1.6,4.5,5.9,7.6,10.7,7.6
		s9.1-3,10.7-7.6h12.7c1.9,5.4,7.6,8.5,13.2,7.2c5.6-1.3,9.3-6.6,8.7-12.3C284.4,105.5,279.5,101.2,273.8,101.2z M156.5,74.7
		c0-8.4,6.8-15.1,15.1-15.1s15.1,6.8,15.1,15.1c0,8.4-6.8,15.1-15.1,15.1S156.5,83.1,156.5,74.7z M69.6,116.3
		c-2.1,0-3.8-1.7-3.8-3.8c0-2.1,1.7-3.8,3.8-3.8c2.1,0,3.8,1.7,3.8,3.8C73.3,114.6,71.6,116.3,69.6,116.3z M103.6,116.3
		c-2.1,0-3.8-1.7-3.8-3.8c0-2.1,1.7-3.8,3.8-3.8c2.1,0,3.8,1.7,3.8,3.8C107.4,114.6,105.7,116.3,103.6,116.3z M145.2,116.3
		c-2.1,0-3.8-1.7-3.8-3.8c0-2.1,1.7-3.8,3.8-3.8c2.1,0,3.8,1.7,3.8,3.8C149,114.6,147.3,116.3,145.2,116.3z M145.2,271.4
		c-2.1,0-3.8-1.7-3.8-3.8c0-2.1,1.7-3.8,3.8-3.8c2.1,0,3.8,1.7,3.8,3.8C149,269.7,147.3,271.4,145.2,271.4z M145.2,237.3
		c-2.1,0-3.8-1.7-3.8-3.8c0-2.1,1.7-3.8,3.8-3.8c2.1,0,3.8,1.7,3.8,3.8C149,235.7,147.3,237.3,145.2,237.3z M145.2,203.3
		c-2.1,0-3.8-1.7-3.8-3.8c0-2.1,1.7-3.8,3.8-3.8c2.1,0,3.8,1.7,3.8,3.8C149,201.6,147.3,203.3,145.2,203.3z M167.9,169.3
		c0-2.1,1.7-3.8,3.8-3.8c2.1,0,3.8,1.7,3.8,3.8c0,2.1-1.7,3.8-3.8,3.8C169.6,173.1,167.9,171.4,167.9,169.3z M198.1,271.4
		c-2.1,0-3.8-1.7-3.8-3.8c0-2.1,1.7-3.8,3.8-3.8c2.1,0,3.8,1.7,3.8,3.8C201.9,269.7,200.2,271.4,198.1,271.4z M198.1,237.3
		c-2.1,0-3.8-1.7-3.8-3.8c0-2.1,1.7-3.8,3.8-3.8c2.1,0,3.8,1.7,3.8,3.8C201.9,235.7,200.2,237.3,198.1,237.3z M201.9,199.5
		c0,2.1-1.7,3.8-3.8,3.8c-2.1,0-3.8-1.7-3.8-3.8c0-2.1,1.7-3.8,3.8-3.8C200.2,195.7,201.9,197.4,201.9,199.5z M171.7,139
		c-2.1,0-3.8-1.7-3.8-3.8c0-2.1,1.7-3.8,3.8-3.8c2.1,0,3.8,1.7,3.8,3.8C175.5,137.3,173.8,139,171.7,139z M198.1,116.3
		c-2.1,0-3.8-1.7-3.8-3.8c0-2.1,1.7-3.8,3.8-3.8c2.1,0,3.8,1.7,3.8,3.8C201.9,114.6,200.2,116.3,198.1,116.3z M239.7,116.3
		c-2.1,0-3.8-1.7-3.8-3.8c0-2.1,1.7-3.8,3.8-3.8c2.1,0,3.8,1.7,3.8,3.8C243.5,114.6,241.8,116.3,239.7,116.3z M273.8,116.3
		c-2.1,0-3.8-1.7-3.8-3.8c0-2.1,1.7-3.8,3.8-3.8c2.1,0,3.8,1.7,3.8,3.8C277.6,114.6,275.9,116.3,273.8,116.3z"/>
	<path d="M85.7,179.3c-1.4,1.6-1.3,3.9,0.3,5.3c6.4,5.7,10,13.9,10,22.5s-3.6,16.8-10,22.5c-1,0.9-1.5,2.3-1.2,3.6
		c0.3,1.3,1.3,2.4,2.6,2.8c1.3,0.4,2.7,0.1,3.7-0.8c8-7.2,12.5-17.4,12.5-28.1S99,186.2,91.1,179C89.5,177.6,87.1,177.7,85.7,179.3z
		"/>
	<path d="M95.9,168c-1.4,1.6-1.3,3.9,0.3,5.3c9.6,8.6,15,20.9,15,33.7s-5.5,25.1-15,33.7c-1.1,0.9-1.6,2.3-1.3,3.7
		c0.3,1.4,1.3,2.5,2.6,2.9c1.3,0.4,2.8,0,3.8-0.9c11.1-10,17.5-24.3,17.5-39.3c0-15-6.4-29.3-17.5-39.3
		C99.6,166.3,97.3,166.5,95.9,168z"/>
	<path d="M75.6,223.7c0.7,0.7,1.6,1.2,2.6,1.2c1,0.1,2-0.3,2.7-1c4.8-4.3,7.5-10.4,7.5-16.9s-2.7-12.6-7.5-16.9
		c-1.6-1.4-3.9-1.3-5.3,0.3c-1.4,1.6-1.3,3.9,0.3,5.3c3.2,2.9,5,7,5,11.3c0,4.3-1.8,8.4-5,11.3C74.3,219.7,74.2,222.1,75.6,223.7z"
		/>
	<path d="M252.3,179c-8,7.2-12.5,17.4-12.5,28.1s4.6,20.9,12.5,28.1c1,0.9,2.4,1.3,3.7,0.8c1.3-0.4,2.3-1.5,2.6-2.8
		c0.3-1.3-0.2-2.7-1.2-3.6c-6.4-5.7-10-13.9-10-22.5s3.6-16.8,10-22.5c1.5-1.4,1.6-3.8,0.2-5.3C256.2,177.8,253.8,177.6,252.3,179z"
		/>
	<path d="M242.1,167.8c-11.1,10-17.5,24.3-17.5,39.3c0,15,6.4,29.3,17.5,39.3c1.6,1.3,3.9,1.2,5.3-0.3c1.4-1.5,1.3-3.9-0.2-5.3
		c-9.6-8.6-15-20.9-15-33.7c0-12.9,5.5-25.1,15-33.7c1.5-1.4,1.6-3.8,0.2-5.3C246,166.6,243.7,166.4,242.1,167.8z"/>
	<path d="M267.7,190.5c-0.7-0.7-1.6-1.2-2.6-1.2c-1-0.1-2,0.3-2.7,1c-4.8,4.3-7.5,10.4-7.5,16.9s2.7,12.6,7.5,16.9
		c1.6,1.4,3.9,1.3,5.3-0.3c1.4-1.6,1.3-3.9-0.3-5.3c-3.2-2.9-5-7-5-11.3c0-4.3,1.8-8.4,5-11.3C269,194.4,269.1,192,267.7,190.5z"/>
</g>
</svg>
