<?xml version="1.0" encoding="utf-8"?>
<!-- Generator: Adobe Illustrator 22.0.0, SVG Export Plug-In . SVG Version: 6.00 Build 0)  -->
<svg version="1.1" id="Warstwa_1" xmlns="http://www.w3.org/2000/svg" xmlns:xlink="http://www.w3.org/1999/xlink" x="0px" y="0px"
	 viewBox="0 0 320 320" style="enable-background:new 0 0 320 320;" xml:space="preserve">
<style type="text/css">
	.st0{fill:none;stroke:#000000;stroke-width:10;stroke-miterlimit:10;}
	.st1{fill:#76B843;}
	.st2{display:none;fill:#FFFFFF;}
	.st3{fill:url(#SVGID_1_);}
	.st4{fill:url(#SVGID_2_);}
	.st5{fill:none;stroke:url(#SVGID_3_);stroke-width:7;stroke-miterlimit:10;}
	.st6{display:none;}
	.st7{fill:none;stroke:url(#SVGID_4_);stroke-width:7;stroke-miterlimit:10;}
	.st8{stroke:#000000;stroke-width:10;stroke-linecap:round;stroke-miterlimit:10;}
	.st9{fill:none;stroke:#000000;stroke-width:5;stroke-miterlimit:10;}
	.st10{stroke:#000000;stroke-width:3;stroke-miterlimit:10;}
	.st11{fill:none;stroke:#000000;stroke-width:7;stroke-miterlimit:10;}
	.st12{fill:#ACD9B8;}
	.st13{fill:none;stroke:#000000;stroke-width:2;stroke-miterlimit:10;}
</style>
<g id="surface1_1_">
	<path d="M118.9,258.6l-23.5-40.8c3.6-5.3,5.5-11.7,5.5-18.1c0-0.9-0.1-1.9-0.1-2.8l70.1-40.5c1.7,0.5,3.5,0.8,5.3,0.8
		c5.1,0,9.9-2,13.6-5.5c0,0,2.9-2,4.5-6.8c2.4-7.3,0.9-12.1,0.9-12.1c-0.8-3.2-2.4-6.2-4.7-8.6l3.2-12.1l12.7,3.4
		c1.7,0.5,3.5-0.6,4-2.3l3.4-12.6c0.5-1.7-0.6-3.5-2.3-4c0,0,0,0,0,0l-22.1-5.9c-5.2-1.4-10.6,1.7-12,6.9l-5.6,21
		c-7.6,1.8-13.4,8-14.7,15.7L88.3,174c-14.2-11.1-34.8-8.5-45.9,5.7c-11.1,14.2-8.5,34.8,5.7,45.9c5.1,4,11.4,6.4,17.9,6.8
		l15.2,26.3H35.5v26.2h196.2v-26.2H118.9z M183.6,99.4c0.5-1.7,2.3-2.8,4-2.3l19,5.1l-1.7,6.3l-12.7-3.4c-1.7-0.5-3.5,0.6-4,2.3
		c0,0,0,0,0,0l-3.4,12.7c-0.3-0.2-0.7-0.2-1-0.4c-0.5-0.2-1-0.4-1.4-0.6c-0.6-0.2-1.2-0.3-1.8-0.5c-0.5-0.1-1-0.2-1.5-0.3
		c-0.2,0-0.4-0.1-0.6-0.1L183.6,99.4z M174.7,124.6c0.6-0.1,1.2-0.1,1.8-0.1c0.6,0,1.2,0.1,1.8,0.2c0.2,0,0.3,0.1,0.5,0.1
		c0.6,0.1,1.2,0.3,1.7,0.5c0.3,0.1,0.6,0.3,0.9,0.4c0.4,0.2,0.8,0.4,1.2,0.6c0.7,0.4,1.4,0.9,2,1.4h0c2.5,2.2,4.1,5.2,4.5,8.5
		c0.1,0.5,0.1,1,0.1,1.5c0,7.2-5.8,13.1-13,13.1c-1.6,0-3.2-0.3-4.6-0.8c-5.1-1.9-8.5-6.8-8.5-12.2c0-0.2,0-0.4,0-0.6
		c0-0.1,0-0.1,0-0.2l0.4-2.5C164.9,129.1,169.4,125.2,174.7,124.6L174.7,124.6z M157,141.8c0.1,0.3,0.2,0.5,0.2,0.7
		c0.2,0.6,0.3,1.2,0.6,1.8c0.1,0.4,0.3,0.8,0.5,1.2c0.3,0.6,0.6,1.2,0.9,1.7c0.2,0.4,0.4,0.7,0.6,1.1c0.4,0.6,0.8,1.1,1.2,1.6
		c0.2,0.3,0.4,0.6,0.7,0.8c0.6,0.6,1.2,1.2,1.8,1.7c0.1,0.1,0.3,0.3,0.4,0.4l-64.4,37.2c0-0.1-0.1-0.2-0.1-0.4
		c-0.2-0.7-0.5-1.4-0.7-2c-0.1-0.3-0.2-0.6-0.3-0.8c-0.4-0.9-0.8-1.9-1.3-2.8c-0.1-0.2-0.2-0.3-0.3-0.4c-0.4-0.7-0.9-1.5-1.3-2.2
		c-0.2-0.3-0.4-0.6-0.6-0.8c-0.4-0.6-0.8-1.1-1.2-1.6c-0.1-0.1-0.2-0.3-0.3-0.4L157,141.8z M42,199.8c0-14.4,11.7-26.2,26.2-26.2
		c6.5,0,12.7,2.4,17.5,6.7c4.5,4,7.4,9.4,8.3,15.3c0.2,1.4,0.3,2.7,0.3,4.1c0,14.5-11.8,26.2-26.3,26.2c0,0-0.1,0-0.1,0
		C53.6,225.8,42.1,214.1,42,199.8z M73.4,232.1c0.7-0.1,1.4-0.3,2.1-0.4l0.3-0.1c1.1-0.3,2.1-0.6,3.2-0.9c0.3-0.1,0.5-0.2,0.8-0.3
		c0.9-0.3,1.8-0.7,2.7-1.2c0.1-0.1,0.2-0.1,0.3-0.2c1-0.5,1.9-1,2.8-1.6c0.2-0.1,0.5-0.3,0.7-0.5c0.8-0.5,1.6-1.1,2.3-1.7
		c0.1-0.1,0.2-0.2,0.4-0.3c0.7-0.6,1.4-1.2,2-1.8l20.4,35.4H88.7L73.4,232.1z M225.2,278.3H42v-13.1h183.1V278.3z"/>
	<path d="M68.2,219.4c10.8,0,19.6-8.8,19.6-19.6c0-1-0.1-2.1-0.2-3.1c-1.7-10.7-11.8-18-22.5-16.3c-10.7,1.7-18,11.8-16.3,22.5
		c1.5,9.4,9.6,16.4,19.1,16.5H68.2z M55.1,199.8c0-7.2,5.9-13.1,13.1-13.1c3.2,0,6.3,1.2,8.7,3.4c2.2,2,3.7,4.7,4.2,7.6
		c0.1,0.7,0.2,1.4,0.2,2.1c0,7.2-5.9,13-13.1,13.1H68C60.8,212.7,55.1,206.9,55.1,199.8z"/>
	<path class="st2" d="M176.1,147.4c5.4,0,9.8-4.4,9.8-9.8c0-5.4-4.4-9.8-9.8-9.8c-5.4,0-9.8,4.4-9.8,9.8
		C166.3,143.1,170.7,147.4,176.1,147.4z M176.1,134.4c1.8,0,3.3,1.5,3.3,3.3c0,1.8-1.5,3.3-3.3,3.3c-1.8,0-3.3-1.5-3.3-3.3
		C172.9,135.8,174.3,134.4,176.1,134.4z"/>
	<g>
		<g>
			<path d="M185.1,152.7c3.8,5.3,7.6,10.6,11.4,15.8c1.2,1.6,3,2.6,5.1,2.1c8-2.2,15.9-4.4,23.9-6.6c5.6-1.5,3.2-10.2-2.4-8.7
				c-8,2.2-15.9,4.4-23.9,6.6c1.7,0.7,3.4,1.4,5.1,2.1c-3.8-5.3-7.6-10.6-11.4-15.8C189.5,143.5,181.7,148,185.1,152.7L185.1,152.7z
				"/>
		</g>
	</g>
	<g>
		<polyline points="193.8,133.1 206.2,123.6 222.7,124.9 		"/>
		<g>
			<path d="M196,137c2.1-1.6,4.2-3.2,6.2-4.8c1.4-1.1,2.9-2.2,4.3-3.3c0.2-0.2,1.3-0.8,1.4-1.1c0.1-0.1,0.3-0.2,0.4-0.3
				c0.7-0.5,0-0.3-2,0.5c0,0.2,14.8,1.2,16.4,1.3c5.8,0.5,5.7-8.5,0-9c-2.9-0.2-5.8-0.5-8.7-0.7c-2.6-0.2-5.8-1-8.3-0.5
				c-2.7,0.5-5.1,3.1-7.1,4.7c-2.3,1.8-4.7,3.6-7,5.4C187,132.7,191.4,140.5,196,137L196,137z"/>
		</g>
	</g>
</g>
<g>
	<linearGradient id="SVGID_1_" gradientUnits="userSpaceOnUse" x1="195.6168" y1="144.3745" x2="195.6168" y2="89.0521">
		<stop  offset="5.585500e-02" style="stop-color:#ACD9B8"/>
		<stop  offset="0.6946" style="stop-color:#FFFFFF;stop-opacity:0.9108"/>
		<stop  offset="1" style="stop-color:#FFFFFF;stop-opacity:0"/>
	</linearGradient>
	<path class="st3" d="M120.5,93.2c-2.1,1.8-4,3.6-5.9,5.6c-1.8,1.9-3.6,4-5,6.1c-1.4,2.2-2.7,4.4-3.4,6.7c-0.7,2.3-0.7,4.6,0.1,6.5
		c0.7,1.9,2.2,3.6,4.1,5c1.9,1.4,4.1,2.5,6.4,3.4c4.7,1.8,9.8,3,14.9,4c10.3,1.8,20.9,2.7,31.6,3.2c5.3,0.3,10.7,0.4,16,0.5
		c5.3,0.1,10.7,0.2,16.1,0.1c10.7,0,21.4-0.2,32.1-0.7c10.6-0.5,21.3-1.4,31.6-3.2c5.2-0.9,10.2-2.1,15-3.9c2.3-0.9,4.6-2,6.5-3.3
		c1.9-1.3,3.5-3,4.4-4.9c0.9-1.9,1-4.2,0.4-6.5c-0.6-2.3-1.8-4.6-3.2-6.8c-1.4-2.2-3.1-4.3-4.9-6.2c-1.8-2-3.8-3.8-5.8-5.6
		c4.7,2.7,9.2,6,12.9,10.2c1.9,2.1,3.5,4.5,4.6,7.3c0.5,1.4,0.9,2.9,1,4.5c0.1,1.6-0.1,3.3-0.6,4.8c-1,3.2-3.1,5.7-5.4,7.7
		c-2.3,2-4.9,3.5-7.4,4.8c-5.2,2.6-10.6,4.2-16,5.6c-5.4,1.3-10.8,2.4-16.3,3.1c-5.4,0.8-10.9,1.4-16.4,1.8
		c-10.9,0.9-21.8,1.2-32.7,1.2c-5.4,0-10.9-0.1-16.3-0.3c-5.4-0.2-10.9-0.5-16.4-0.9c-5.5-0.5-10.9-1-16.4-1.8
		c-5.4-0.8-10.9-1.8-16.3-3.1c-5.4-1.4-10.8-3.1-16-5.7c-2.6-1.3-5.1-2.9-7.4-4.9c-2.3-2.1-4.3-4.8-5.1-8c-0.4-1.6-0.5-3.3-0.3-4.9
		c0.2-1.6,0.7-3.1,1.3-4.5c1.2-2.7,3-5.1,4.9-7.1C111.3,99.1,115.7,95.9,120.5,93.2z"/>
</g>
<g>
	<linearGradient id="SVGID_2_" gradientUnits="userSpaceOnUse" x1="168.0582" y1="124.6618" x2="227.3448" y2="124.6618">
		<stop  offset="5.585512e-02" style="stop-color:#ACD9B8"/>
		<stop  offset="0.7054" style="stop-color:#FFFFFF;stop-opacity:0.7"/>
		<stop  offset="1" style="stop-color:#FFFFFF;stop-opacity:0"/>
	</linearGradient>
	<path class="st4" d="M216.5,48.6c-1.8-2-3.8-3.9-5.8-5.6c-2-1.8-4.1-3.4-6.3-4.8c-2.2-1.4-4.5-2.5-6.9-3.1
		c-2.3-0.6-4.6-0.5-6.5,0.3c-1.9,0.8-3.5,2.4-4.8,4.3c-1.3,1.9-2.3,4.2-3.1,6.6c-1.6,4.8-2.6,9.9-3.3,15.1
		c-1.3,10.4-1.7,21-1.8,31.7c0,5.3,0,10.7,0.2,16c0.1,5.3,0.3,10.7,0.6,16.1c0.5,10.7,1.1,21.4,2.1,32c1,10.6,2.3,21.2,4.5,31.4
		c1.1,5.1,2.6,10.1,4.6,14.8c1,2.3,2.2,4.5,3.6,6.4c1.4,1.9,3.1,3.4,5.1,4.2c1.9,0.8,4.2,0.8,6.5,0.2c2.3-0.7,4.5-2,6.7-3.5
		c2.1-1.5,4.1-3.3,6-5.2c1.9-1.9,3.7-3.9,5.4-6.1c-2.5,4.8-5.6,9.4-9.6,13.3c-2,2-4.3,3.7-7.1,5c-1.4,0.6-2.9,1.1-4.5,1.2
		c-1.6,0.2-3.3,0.1-4.9-0.4c-3.2-0.9-5.9-2.9-7.9-5.1c-2.1-2.2-3.7-4.7-5.1-7.2c-2.8-5.1-4.7-10.4-6.3-15.7
		c-1.6-5.3-2.8-10.7-3.8-16.1c-1-5.4-1.8-10.8-2.5-16.3c-1.4-10.9-2.2-21.7-2.7-32.6c-0.2-5.4-0.4-10.9-0.5-16.3
		c0-5.5,0-10.9,0.2-16.4c0.2-5.5,0.5-10.9,1.1-16.4c0.5-5.5,1.3-11,2.4-16.4c1.1-5.5,2.6-10.9,5-16.2c1.2-2.6,2.6-5.2,4.6-7.6
		c1.9-2.3,4.6-4.5,7.8-5.5c1.6-0.5,3.3-0.6,4.9-0.5c1.6,0.1,3.1,0.5,4.5,1.1c2.8,1.1,5.2,2.7,7.3,4.6
		C210.2,39.6,213.6,43.9,216.5,48.6z"/>
</g>
<linearGradient id="SVGID_3_" gradientUnits="userSpaceOnUse" x1="2943.0183" y1="-3406.1531" x2="3101.6101" y2="-3406.1531" gradientTransform="matrix(0 1 -1 0 -3207.8423 -2899.1462)">
	<stop  offset="0" style="stop-color:#FFFFFF;stop-opacity:0"/>
	<stop  offset="0.5315" style="stop-color:#ACD9B8"/>
</linearGradient>
<circle class="st5" cx="198.3" cy="123.2" r="75.8"/>
<path class="st0" d="M278.3,310.5H43.7c-17.5,0-31.7-14.2-31.7-31.7V44.2c0-17.5,14.2-31.7,31.7-31.7h234.6
	c17.5,0,31.7,14.2,31.7,31.7v234.6C310,296.3,295.8,310.5,278.3,310.5z"/>
</svg>
