<?xml version="1.0" encoding="utf-8"?>
<!-- Generator: Adobe Illustrator 22.0.0, SVG Export Plug-In . SVG Version: 6.00 Build 0)  -->
<svg version="1.1" id="Warstwa_1" xmlns="http://www.w3.org/2000/svg" xmlns:xlink="http://www.w3.org/1999/xlink" x="0px" y="0px"
	 viewBox="0 0 322 320" style="enable-background:new 0 0 322 320;" xml:space="preserve">
<style type="text/css">
	.st0{fill:none;}
	.st1{fill:#ACD9B8;}
	.st2{font-family:'Raleway-ExtraBold';}
	.st3{font-size:74.3701px;}
	.st4{fill:none;stroke:#000000;stroke-width:10;stroke-miterlimit:10;}
	.st5{fill:#76B843;}
	.st6{display:none;fill:#FFFFFF;}
	.st7{fill:url(#SVGID_1_);}
	.st8{fill:url(#SVGID_2_);}
	.st9{fill:none;stroke:url(#SVGID_3_);stroke-width:7;stroke-miterlimit:10;}
	.st10{display:none;}
	.st11{fill:none;stroke:url(#SVGID_4_);stroke-width:7;stroke-miterlimit:10;}
	.st12{stroke:#000000;stroke-width:10;stroke-linecap:round;stroke-miterlimit:10;}
	.st13{fill:none;stroke:#000000;stroke-width:5;stroke-miterlimit:10;}
	.st14{stroke:#000000;stroke-width:3;stroke-miterlimit:10;}
	.st15{fill:none;stroke:#000000;stroke-width:7;stroke-miterlimit:10;}
	.st16{fill:none;stroke:#000000;stroke-width:2;stroke-miterlimit:10;}
</style>
<path d="M265.9,79.7c-31.2-23.4-68.2-35.7-107.2-35.7S82.6,56.3,51.4,79.7c-2,1.5-3.3,3.7-3.6,6.1c-0.3,2.4,0.3,4.9,1.8,6.9
	L98.7,158c1.8,2.4,4.6,3.7,7.4,3.7c1.9,0,3.9-0.6,5.6-1.9c13.7-10.2,29.9-15.7,47-15.7c17.1,0,33.3,5.4,47,15.7
	c4.1,3.1,9.9,2.2,13-1.9l49.1-65.3c1.5-2,2.1-4.5,1.8-6.9C269.2,83.3,267.8,81.1,265.9,79.7z M209.1,139.7
	c-12.5-7.7-26.5-12.3-41.2-13.7V97.7c0-5.1-4.2-9.3-9.3-9.3s-9.3,4.2-9.3,9.3V126c-14.6,1.4-28.6,6-41.2,13.7l-38-50.6
	c26.3-17.5,56.7-26.6,88.5-26.6s62.2,9.2,88.5,26.6L209.1,139.7z"/>
<rect x="56" y="192.2" class="st0" width="304" height="153.3"/>
<text transform="matrix(1.0325 0 0 0.9 56.0054 246.5347)" class="st1 st2 st3">37</text>
<text transform="matrix(1.1914 0 0 0.9 144.0825 246.5347)" class="st1 st2 st3"> kg</text>
<path class="st4" d="M277.3,310.5H42.7c-17.5,0-31.7-14.2-31.7-31.7V44.2c0-17.5,14.2-31.7,31.7-31.7h234.6
	c17.5,0,31.7,14.2,31.7,31.7v234.6C309,296.3,294.8,310.5,277.3,310.5z"/>
</svg>
