<?xml version="1.0" encoding="UTF-8" standalone="no"?><!DOCTYPE svg PUBLIC "-//W3C//DTD SVG 1.1//EN" "http://www.w3.org/Graphics/SVG/1.1/DTD/svg11.dtd"><svg width="100%" height="100%" viewBox="0 0 425 320" version="1.1" xmlns="http://www.w3.org/2000/svg" xmlns:xlink="http://www.w3.org/1999/xlink" xml:space="preserve" xmlns:serif="http://www.serif.com/" style="fill-rule:evenodd;clip-rule:evenodd;stroke-miterlimit:10;"><path d="M381.2,310l-234.7,0c-17.5,0 -31.7,-14.2 -31.7,-31.7l0,-234.6c0,-17.5 14.2,-31.7 31.7,-31.7l234.6,0c17.5,0 31.7,14.2 31.7,31.7l0,234.6c0.1,17.5 -14.1,31.7 -31.6,31.7Z" style="fill:none;fill-rule:nonzero;stroke:#000;stroke-width:10px;"/><rect x="132" y="165.9" width="345.3" height="127.7" style="fill:none;"/><path d="M146.792,167.593l13.442,21.246l13.442,-21.246l15.349,0l-21.333,31.219l20.639,30.352l-15.349,0l-12.748,-20.38l-12.748,20.38l-15.436,0l20.639,-30.352l-21.333,-31.219l15.436,0Z" style="fill-rule:nonzero;"/><path d="M206.109,230.031c-2.255,0 -4.351,-0.362 -6.288,-1.084c-1.936,-0.723 -3.598,-1.735 -4.986,-3.035c-1.387,-1.301 -2.486,-2.833 -3.295,-4.597c-0.81,-1.763 -1.214,-3.685 -1.214,-5.766c0,-2.255 0.477,-4.307 1.431,-6.157c0.953,-1.85 2.298,-3.44 4.032,-4.77c1.734,-1.33 3.787,-2.37 6.157,-3.122c2.37,-0.752 5.001,-1.127 7.892,-1.127c1.907,0 3.757,0.159 5.55,0.477c1.792,0.318 3.353,0.795 4.683,1.431l0,-2.082c0,-5.261 -3.036,-7.891 -9.106,-7.891c-2.486,0 -4.856,0.419 -7.111,1.257c-2.255,0.838 -4.625,2.096 -7.111,3.773l-4.076,-8.672c3.006,-1.966 6.128,-3.44 9.366,-4.423c3.237,-0.983 6.677,-1.474 10.319,-1.474c6.88,0 12.199,1.618 15.957,4.856c3.758,3.237 5.637,7.978 5.637,14.222l0,11.707c0,1.388 0.216,2.356 0.65,2.905c0.434,0.549 1.2,0.882 2.298,0.997l0,11.708c-1.214,0.289 -2.312,0.477 -3.295,0.563c-0.983,0.087 -1.879,0.13 -2.689,0.13c-2.601,0 -4.567,-0.506 -5.896,-1.517c-1.33,-1.012 -2.168,-2.443 -2.515,-4.293l-0.26,-2.081c-2.024,2.601 -4.438,4.596 -7.242,5.984c-2.804,1.387 -5.766,2.081 -8.888,2.081Zm4.075,-9.973c1.504,0 2.963,-0.26 4.38,-0.78c1.416,-0.521 2.587,-1.215 3.512,-2.082c1.33,-1.04 1.995,-2.139 1.995,-3.295l0,-4.336c-1.215,-0.463 -2.53,-0.824 -3.946,-1.084c-1.417,-0.26 -2.732,-0.39 -3.946,-0.39c-2.544,0 -4.639,0.578 -6.287,1.734c-1.648,1.156 -2.472,2.66 -2.472,4.51c0,1.676 0.636,3.049 1.908,4.119c1.272,1.069 2.891,1.604 4.856,1.604Z" style="fill-rule:nonzero;"/><path d="M254.585,229.164l-16.13,-45.528l14.309,0l9.973,34.427l10.059,-34.427l12.921,0l-16.043,45.528l-15.089,0Z" style="fill-rule:nonzero;"/><path d="M291.007,229.164l0,-45.528l13.875,0l0,45.528l-13.875,0Zm0,-50.731l0,-12.575l13.875,0l0,12.575l-13.875,0Z" style="fill-rule:nonzero;"/><path d="M336.188,230.031c-3.816,0 -7.241,-0.622 -10.276,-1.865c-3.035,-1.243 -5.608,-2.934 -7.718,-5.073c-2.11,-2.139 -3.715,-4.61 -4.813,-7.414c-1.099,-2.804 -1.648,-5.738 -1.648,-8.802c0,-3.296 0.549,-6.403 1.648,-9.323c1.098,-2.919 2.688,-5.477 4.769,-7.674c2.082,-2.197 4.64,-3.932 7.675,-5.204c3.035,-1.271 6.49,-1.907 10.363,-1.907c3.874,0 7.313,0.636 10.32,1.907c3.006,1.272 5.55,2.992 7.631,5.16c2.081,2.168 3.657,4.669 4.726,7.502c1.07,2.832 1.605,5.81 1.605,8.932c0,0.809 -0.029,1.604 -0.087,2.384c-0.058,0.781 -0.145,1.46 -0.26,2.038l-33.648,0c0.232,3.064 1.345,5.391 3.339,6.981c1.995,1.59 4.264,2.385 6.808,2.385c2.023,0 3.974,-0.491 5.853,-1.474c1.879,-0.983 3.137,-2.313 3.773,-3.989l11.793,3.295c-1.792,3.584 -4.567,6.504 -8.325,8.759c-3.758,2.254 -8.267,3.382 -13.528,3.382Zm9.626,-27.924c-0.289,-2.891 -1.33,-5.174 -3.122,-6.851c-1.792,-1.676 -4.018,-2.515 -6.677,-2.515c-2.718,0 -4.958,0.853 -6.721,2.559c-1.763,1.705 -2.79,3.974 -3.079,6.807l19.599,0Z" style="fill-rule:nonzero;"/><path d="M395.678,195.516c-3.353,0.058 -6.389,0.607 -9.106,1.648c-2.717,1.041 -4.683,2.602 -5.897,4.683l0,27.317l-13.875,0l0,-45.528l12.748,0l0,9.192c1.561,-3.064 3.57,-5.463 6.027,-7.198c2.457,-1.734 5.073,-2.63 7.848,-2.688l1.388,0c0.289,0 0.578,0.029 0.867,0.087l0,12.487Z" style="fill-rule:nonzero;"/><g id="g2100_2_"><g id="g2096_2_"><path id="path14_3_" d="M393.461,119.115l0,-1.1l0.7,0c0.4,0 0.9,0 0.9,0.5c0,0.5 -0.3,0.6 -0.7,0.6l-0.9,0Zm0,0.7l0.5,0l1,1.9l1.2,0l-1.2,-2c0.6,0 1.1,-0.3 1.1,-1.2c0,-1 -0.7,-1.4 -1.9,-1.4l-1.7,0l0,4.5l1,0l0,-1.8Zm5,-0.3c0,-2.6 -2,-4.2 -4.3,-4.2c-2.3,0 -4.3,1.5 -4.3,4.2c0,2.7 2,4.2 4.3,4.2c2.3,0 4.3,-1.6 4.3,-4.2m-1.2,0c0,1.9 -1.4,3.2 -3.1,3.2c-1.7,0 -3.1,-1.3 -3.1,-3.2c0,-1.9 1.4,-3.2 3.1,-3.2c1.7,0 3.1,1.3 3.1,3.2" style="fill-rule:nonzero;"/><path id="path16_2_" d="M239.861,74.915l0,47.2l13.3,0l0,-47.2l-13.3,0Zm-105,0l0,47.3l13.5,0l0,-35.9l10.4,0c3.5,0 5.9,0.9 7.6,2.6c2.1,2.2 3,5.9 3,12.5l0,20.8l13,0l0,-26.1c0,-18.7 -11.9,-21.2 -23.5,-21.2l-24,0Zm126.5,0l0,47.2l21.6,0c11.5,0 15.3,-1.9 19.4,-6.2c2.9,-3 4.7,-9.6 4.7,-16.9c0,-6.6 -1.6,-12.6 -4.3,-16.2c-4.9,-6.6 -12.1,-7.9 -22.7,-7.9l-18.7,0Zm13.2,10.3l5.7,0c8.3,0 13.7,3.7 13.7,13.4c0,9.7 -5.4,13.4 -13.7,13.4l-5.7,0l0,-26.8Zm-53.9,-10.3l-11.1,37.4l-10.7,-37.4l-14.4,0l15.2,47.2l19.2,0l15.4,-47.2l-13.6,0Zm92.6,47.3l13.3,0l0,-47.2l-13.3,0l0,47.2Zm37.4,-47.3l-18.6,47.2l13.2,0l2.9,-8.3l22,0l2.8,8.3l14.3,0l-18.8,-47.2l-17.8,0Zm8.7,8.7l8.1,22.1l-16.4,0l8.3,-22.1Z" style="fill-rule:nonzero;"/></g><path id="path2045_2_" d="M49.461,84.255l0,-6.7c0.7,0 1.3,-0.1 2,-0.1c18.4,-0.6 30.5,15.8 30.5,15.8c0,0 -13.1,18.1 -27.1,18.1c-2,0 -3.8,-0.3 -5.4,-0.9l0,-20.4c7.2,0.9 8.6,4 12.9,11.2l9.6,-8.1c0,0 -7,-9.2 -18.8,-9.2c-1.3,0 -2.5,0.1 -3.7,0.3m0,-22.3l0,10.1c0.7,-0.1 1.3,-0.1 2,-0.1c25.6,-0.9 42.3,21 42.3,21c0,0 -19.2,23.3 -39.2,23.3c-1.8,0 -3.5,-0.2 -5.2,-0.5l0,6.2c1.4,0.2 2.8,0.3 4.3,0.3c18.6,0 32,-9.5 45.1,-20.7c2.2,1.7 11,5.9 12.8,7.8c-12.4,10.4 -41.2,18.7 -57.6,18.7c-1.6,0 -3.1,-0.1 -4.6,-0.2l0,8.7l70.7,0l0,-74.6l-70.6,0Zm0,48.5l0,5.3c-17.2,-3.1 -22,-20.9 -22,-20.9c0,0 8.3,-9.1 22,-10.6l0,5.8c-7.2,-0.9 -12.8,5.9 -12.8,5.9c0,0 3.1,11.3 12.8,14.5m-30.5,-16.4c0,0 10.2,-15 30.5,-16.6l0,-5.5c-22.5,1.8 -42.1,20.9 -42.1,20.9c0,0 11.1,32 42.1,34.9l0,-5.8c-22.7,-2.8 -30.5,-27.9 -30.5,-27.9" style="fill:#76b843;fill-rule:nonzero;"/></g></svg>