<?xml version="1.0" encoding="utf-8"?>
<!-- Generator: Adobe Illustrator 22.0.0, SVG Export Plug-In . SVG Version: 6.00 Build 0)  -->
<svg version="1.1" xmlns="http://www.w3.org/2000/svg" xmlns:xlink="http://www.w3.org/1999/xlink" x="0px" y="0px"
	 viewBox="0 0 192.4 41.1" style="enable-background:new 0 0 192.4 41.1;" xml:space="preserve">
<style type="text/css">
	.st0{fill:#1B4E9B;}
	.st1{fill-rule:evenodd;clip-rule:evenodd;fill:#FFFFFF;}
	.st2{fill-rule:evenodd;clip-rule:evenodd;fill:#231F20;}
	.st3{fill-rule:evenodd;clip-rule:evenodd;fill:#242528;}
	.st4{fill:#00467F;}
	.st5{fill:#F99D31;}
	.st6{fill:#FF7100;}
	.st7{fill-rule:evenodd;clip-rule:evenodd;fill:#FF7100;}
	.st8{fill:none;stroke:#FFFFFF;stroke-width:0.4607;stroke-miterlimit:3.8637;}
	.st9{fill:#FFFFFF;}
	.st10{fill-rule:evenodd;clip-rule:evenodd;}
</style>
<g id="Warstwa_1">
</g>
<g id="Warstwa_2">
</g>
<g id="Warstwa_5">
</g>
<g id="Warstwa_4">
</g>
<g id="Warstwa_3">
	<g>
		<path class="st4" d="M92.7,33.9V16.2c0-1.3-1.8-1.7-1.8-1.7h-3.8v26.5h20.8c0,0,1.7,0.2,1.7-1.8v-3.4H94.8
			C92.3,35.9,92.7,33.9,92.7,33.9z"/>
		<path class="st4" d="M25.8,26.8c0.1-0.2,0.3-0.3,0.4-0.5c0.9-1.2,1.4-2.7,1.4-4.3c0-2.2-1-4.3-2.6-5.6c-2.2-1.8-4.6-1.8-6.6-1.8
			H2.8c-2.5,0-2.8,1.8-2.8,1.8v24.7h19.8c2.7,0,4.9-0.6,6.3-1.8c1.7-1.4,2.8-3.7,2.8-6.2C28.8,30.5,27.7,28.2,25.8,26.8z M5.5,21.1
			c0-1.2,1.1-1.4,2.1-1.4h10.9c1.6,0,2.3,0.2,2.6,0.4c0.5,0.3,1,1,1,2.1c0,0.5-0.1,1.1-0.7,1.7c-0.8,0.8-2.1,0.8-3.2,0.8H5.5
			C5.5,24.7,5.5,22,5.5,21.1z M22.6,35c-0.7,0.7-1.9,0.8-2.9,0.8H5.5v-6h12.4c3.1,0,4.1,0.6,4.4,1l0.1,0.1c0.1,0.1,0.8,0.7,0.8,2.1
			C23.3,34.2,22.7,34.9,22.6,35z"/>
		<path class="st4" d="M117.1,29.8h17.2c1.5,0,1.3-1.3,1.3-1.3v-3.9h-18.5v-2.8v-0.2c0-0.2,0-0.3,0-0.5c0-1.2,1.1-1.4,2.1-1.4h0.7
			l0.5,0h15.3c0,0,1.5,0.1,1.5-1.4v-3.8H114c-2.7,0-2.5,1.8-2.5,1.8v24.7h25.1c0,0,1.4,0.1,1.4-1.4v-3.8h-20.9V29.8z"/>
		<path class="st4" d="M60.9,36.2c3.4,0,8.6,0,10.6,0c0.2,0,0.5,0,0.8,0c2.1-0.1,6.9,0.1,7.4-2.6c0-0.2,0.1-0.3,0-0.4
			c-0.1-1.1-0.6-3-7.7-3.3c-3.9-0.2-6.7-0.3-9.1-1.2c-2.9-1.1-4.4-3.1-4.5-6l0-0.3c0-4.9,4-7.6,11.3-7.9c0.4,0,0.8,0,1.3,0l0.5,0
			l0.2,0c3.4,0,6.7,0,12.3,0v3.4c0,1.8-2.1,1.6-2.1,1.6c-4.6,0-7.6,0-9.8,0c-0.2,0-0.5,0-0.8,0l-0.3,0c-0.3,0-0.8,0-1.4,0
			c-2.2,0.1-5.6,0.4-5.6,2.5c0,0.2,0,0.3,0,0.4c0.2,0.8,1,1.8,7,2l0.4,0c4,0.2,7.2,0.7,9.7,1.8c2.9,1.3,4.4,3.5,4.4,6.7
			c0,0.2,0,0.3,0,0.5v0.1l0,0.3c-0.3,2.9-1.7,6.9-12.2,7.2l0,0l-0.3,0l-0.4,0c-3.6,0-7.2,0-11.6,0c0,0-1.7-3.4-1.7-3.4
			S58.7,36.2,60.9,36.2z"/>
		<path class="st5" d="M179.7,5.7c-2.4-2.4-5.6-2.7-5.6-2.7c-6.3,2.7-12.7,6.6-12.7,6.6s9.5-4.3,19.3-2.3
			C180.8,7.2,180.2,6.1,179.7,5.7z"/>
		<path class="st4" d="M191.6,2.8c-2.8-4.2-10.3-2.8-15.2-1.3c1.4,0.4,9.1,1,6.3,12.7c-1.7,6.9-6.6,15.1-6.4,15.5
			C176.6,30.3,196.5,10.1,191.6,2.8z"/>
		<path class="st4" d="M161.3,30.3c1.2-0.3,2.5-0.7,3.5-1.6c0.7-0.5,1.2-1.2,1.7-1.9c0,0,0.1-0.1,0.1-0.1c0.7-1.2,1.1-2.6,1.1-4.2
			c0-2.9-1.4-5.6-3.8-6.9c-2-1.1-4.2-1.1-5.9-1.1h-15.6c-2,0-2.1,1.6-2.1,1.6v25h4.1c0,0,1.4,0,1.4-1.7v-8.7h6.8c0,0,0.1,0,0.3,0
			c0.1,0,0.5,0,1.3,0l7.2,8.2l0,0c0.5,0.6,0.9,1,0.9,1s0.9,1.2,3,1.2h5.6L161.3,30.3z M145.8,25.4v-4.2c0,0-0.2-1.5,1.8-1.5h10.5
			c1.1,0,2.2,0,3,0.6c0.4,0.3,0.9,1.1,0.9,2.1c0,0.8-0.3,1.6-0.7,2c-0.9,0.9-2.5,1-4.6,1H145.8z"/>
		<path class="st4" d="M45.3,14.5h-1.7h-0.5c-2.3,0-2.5,0.4-3.3,1.9c-1.5,3.2-4.7,8.9-7.4,14.3c1.4-1.1,3.7-2.3,7.1-2.5l3.5-6.3l4,8
			h-7.9l0,0c-4.7,0.4-7,2.8-7.8,3.8c-1.8,3.7-3.2,6.4-3.2,6.4s-0.5,0.9,0.6,0.9h4.9l2-4.1c0,0,0.9-1.9,3.3-1.9h10.6
			c0,0,1.8,3.5,2.3,4.6c0.4,0.8,0.7,1.5,2.2,1.5h0.9c1.4,0,2.6,0,3.6,0L45.3,14.5z"/>
	</g>
</g>
</svg>
