<?xml version="1.0" encoding="UTF-8" standalone="no"?><!DOCTYPE svg PUBLIC "-//W3C//DTD SVG 1.1//EN" "http://www.w3.org/Graphics/SVG/1.1/DTD/svg11.dtd"><svg width="100%" height="100%" viewBox="0 0 94 122" version="1.1" xmlns="http://www.w3.org/2000/svg" xmlns:xlink="http://www.w3.org/1999/xlink" xml:space="preserve" xmlns:serif="http://www.serif.com/" style="fill-rule:evenodd;clip-rule:evenodd;stroke-linejoin:round;stroke-miterlimit:1.41421;"><rect x="0" y="0" width="93.3" height="5.7" style="fill:#fff;"/><rect x="0" y="116.2" width="93.3" height="5.7" style="fill:#fff;"/><path d="M48.5,74.3c-1.6,0 -2.9,-1.7 -2.9,-3.9l0,-20.8c0,-2.2 1.3,-3.9 2.9,-3.9c1.6,0 2.9,1.7 2.9,3.9l0,20.8c-0.1,2.2 -1.4,3.9 -2.9,3.9Z" style="fill:#fff;fill-rule:nonzero;"/><path d="M57.7,77.7c-1.2,-0.6 -2.6,-0.1 -3.2,1.1l-6.2,13l-5.9,-12.4c-0.6,-1.2 -2,-1.7 -3.2,-1.1c-1.2,0.6 -1.7,2 -1.1,3.2l10.5,21l10.4,-21.7c0.4,-1.1 -0.1,-2.6 -1.3,-3.1Z" style="fill:#fff;fill-rule:nonzero;"/><path d="M39.2,44.2c1.2,0.6 2.6,0.1 3.2,-1.1l6.2,-13l5.9,12.4c0.6,1.2 2,1.7 3.2,1.1c1.2,-0.6 1.7,-2 1.1,-3.2l-10.5,-21l-10.3,21.6c-0.5,1.2 0,2.7 1.2,3.2Z" style="fill:#fff;fill-rule:nonzero;"/></svg>