<?xml version="1.0" encoding="UTF-8" standalone="no"?><!DOCTYPE svg PUBLIC "-//W3C//DTD SVG 1.1//EN" "http://www.w3.org/Graphics/SVG/1.1/DTD/svg11.dtd"><svg width="100%" height="100%" viewBox="0 0 94 128" version="1.1" xmlns="http://www.w3.org/2000/svg" xmlns:xlink="http://www.w3.org/1999/xlink" xml:space="preserve" xmlns:serif="http://www.serif.com/" style="fill-rule:evenodd;clip-rule:evenodd;stroke-linejoin:round;stroke-miterlimit:1.41421;"><path d="M40.6,94.8c-14.7,0 -26.7,-12 -26.7,-26.7c0,-14.7 12,-26.7 26.7,-26.7c14.7,0 26.7,12 26.7,26.7c0,14.7 -12,26.7 -26.7,26.7Zm0,-48.5c-12,0 -21.7,9.7 -21.7,21.7c0,12 9.7,21.7 21.7,21.7c12,0 21.7,-9.7 21.7,-21.6c0,-12 -9.8,-21.8 -21.7,-21.8Z" style="fill:#fff;fill-rule:nonzero;"/><path d="M65,127.6l-50.3,0c-7.6,0 -13.8,-6.2 -13.8,-13.8l0,-90.6c0.1,-7.6 6.2,-13.8 13.8,-13.8l50.3,0c7.6,0 13.8,6.2 13.8,13.8l0,90.6c-0.1,7.6 -6.2,13.8 -13.8,13.8Zm-50.3,-113.2c-4.8,0 -8.8,3.9 -8.8,8.8l0,90.6c0,4.8 3.9,8.8 8.8,8.8l50.3,0c4.8,0 8.8,-3.9 8.8,-8.8l0,-90.6c0,-4.8 -3.9,-8.8 -8.8,-8.8l-50.3,0Z" style="fill:#fff;fill-rule:nonzero;"/><path d="M48.2,59.8l0,0.1c0,1.7 -1.4,3.2 -3.2,3.2c-1.7,0 -3.2,-1.4 -3.2,-3.2c0,-1.2 0.7,-2.2 1.6,-2.7c-1,-0.3 -1.9,-0.5 -3,-0.5c-6.2,0 -11.3,5 -11.3,11.3c0,1.2 0.2,2.2 0.5,3.3c0.8,-2.2 2.9,-3.7 5.4,-3.7c3.2,0 5.8,2.6 5.8,5.8c0,2.4 -1.5,4.5 -3.7,5.4c1,0.3 2.1,0.5 3.3,0.5c6.2,0 11.3,-5 11.3,-11.3c0.1,-3.2 -1.3,-6.1 -3.5,-8.2Z" style="fill:#fff;fill-rule:nonzero;"/><path d="M75.2,0.2l-50.3,0c-7.4,0 -13.4,5.9 -13.7,13.2c1.8,0.1 3.4,0.4 5,0.9l0,-0.3c0,-4.8 3.9,-8.8 8.8,-8.8l50.3,0c4.7,0.1 8.7,4 8.7,8.8l0,90.6c0,4.8 -3.9,8.8 -8.8,8.8l-1.1,0c0.2,1.7 0.1,3.3 0,5l1.1,0c7.6,0 13.8,-6.2 13.8,-13.8l0,-90.6c0,-7.6 -6.2,-13.8 -13.8,-13.8Z" style="fill:#fff;fill-rule:nonzero;"/><path d="M40.6,94.8c-14.7,0 -26.7,-12 -26.7,-26.7c0,-14.7 12,-26.7 26.7,-26.7c14.7,0 26.7,12 26.7,26.7c0,14.7 -12,26.7 -26.7,26.7Zm0,-48.5c-12,0 -21.7,9.7 -21.7,21.7c0,12 9.7,21.7 21.7,21.7c12,0 21.7,-9.7 21.7,-21.6c0,-12 -9.8,-21.8 -21.7,-21.8Z" style="fill:#fff;fill-rule:nonzero;"/><path d="M65,127.6l-50.3,0c-7.6,0 -13.8,-6.2 -13.8,-13.8l0,-90.6c0.1,-7.6 6.2,-13.8 13.8,-13.8l50.3,0c7.6,0 13.8,6.2 13.8,13.8l0,90.6c-0.1,7.6 -6.2,13.8 -13.8,13.8Zm-50.3,-113.2c-4.8,0 -8.8,3.9 -8.8,8.8l0,90.6c0,4.8 3.9,8.8 8.8,8.8l50.3,0c4.8,0 8.8,-3.9 8.8,-8.8l0,-90.6c0,-4.8 -3.9,-8.8 -8.8,-8.8l-50.3,0Z" style="fill:#fff;fill-rule:nonzero;"/><path d="M48.2,59.8l0,0.1c0,1.7 -1.4,3.2 -3.2,3.2c-1.7,0 -3.2,-1.4 -3.2,-3.2c0,-1.2 0.7,-2.2 1.6,-2.7c-1,-0.3 -1.9,-0.5 -3,-0.5c-6.2,0 -11.3,5 -11.3,11.3c0,1.2 0.2,2.2 0.5,3.3c0.8,-2.2 2.9,-3.7 5.4,-3.7c3.2,0 5.8,2.6 5.8,5.8c0,2.4 -1.5,4.5 -3.7,5.4c1,0.3 2.1,0.5 3.3,0.5c6.2,0 11.3,-5 11.3,-11.3c0.1,-3.2 -1.3,-6.1 -3.5,-8.2Z" style="fill:#fff;fill-rule:nonzero;"/><path d="M75.2,0.2l-50.3,0c-7.4,0 -13.4,5.9 -13.7,13.2c1.8,0.1 3.4,0.4 5,0.9l0,-0.3c0,-4.8 3.9,-8.8 8.8,-8.8l50.3,0c4.7,0.1 8.7,4 8.7,8.8l0,90.6c0,4.8 -3.9,8.8 -8.8,8.8l-1.1,0c0.2,1.7 0.1,3.3 0,5l1.1,0c7.6,0 13.8,-6.2 13.8,-13.8l0,-90.6c0,-7.6 -6.2,-13.8 -13.8,-13.8Z" style="fill:#fff;fill-rule:nonzero;"/></svg>