<?xml version="1.0" encoding="UTF-8" standalone="no"?><!DOCTYPE svg PUBLIC "-//W3C//DTD SVG 1.1//EN" "http://www.w3.org/Graphics/SVG/1.1/DTD/svg11.dtd"><svg width="100%" height="100%" viewBox="0 0 94 128" version="1.1" xmlns="http://www.w3.org/2000/svg" xmlns:xlink="http://www.w3.org/1999/xlink" xml:space="preserve" xmlns:serif="http://www.serif.com/" style="fill-rule:evenodd;clip-rule:evenodd;stroke-linejoin:round;stroke-miterlimit:1.41421;"><rect x="1" y="43.9" width="5.7" height="33.3" style="fill:#fff;"/><rect x="1" y="30.7" width="5.7" height="7" style="fill:#9ffcc6;"/><rect x="16.6" y="60.8" width="5.7" height="33.3" style="fill:#9ffcc6;"/><rect x="16.6" y="100.2" width="5.7" height="7" style="fill:#fff;"/><rect x="29.8" y="43.7" width="5.7" height="7" style="fill:#fff;"/><rect x="29.8" y="24" width="5.7" height="33.3" style="fill:#9ffcc6;"/><rect x="29.8" y="63.5" width="5.7" height="7" style="fill:#fff;"/><rect x="16.6" y="5" width="5.7" height="33.3" style="fill:#fff;"/><rect x="16.6" y="44.4" width="5.7" height="7" style="fill:#fff;"/><rect x="29.8" y="77.3" width="5.7" height="33.3" style="fill:#fff;"/><rect x="45.3" y="94.3" width="5.7" height="33.3" style="fill:#9ffcc6;"/><rect x="58.5" y="77.1" width="5.7" height="7" style="fill:#fff;"/><rect x="58.5" y="57.5" width="5.7" height="33.3" style="fill:#9ffcc6;"/><rect x="58.5" y="96.9" width="5.7" height="7" style="fill:#fff;"/><rect x="45.3" y="38.5" width="5.7" height="33.3" style="fill:#fff;"/><rect x="45.3" y="77.9" width="5.7" height="7" style="fill:#fff;"/><rect x="45.3" y="22.7" width="5.7" height="7" style="fill:#fff;"/><rect x="58.1" y="40" width="5.7" height="7" style="fill:#fff;"/><rect x="58.1" y="0.3" width="5.7" height="33.3" style="fill:#9ffcc6;"/><rect x="72.7" y="34" width="5.7" height="33.3" style="fill:#fff;"/><rect x="72.7" y="20.9" width="5.7" height="7" style="fill:#fff;"/><rect x="87.3" y="66.5" width="5.7" height="7" style="fill:#fff;"/><rect x="87.3" y="46.9" width="5.7" height="33.3" style="fill:#fff;"/><rect x="87.3" y="86.3" width="5.7" height="7" style="fill:#9ffcc6;"/><rect x="72.7" y="73.6" width="5.7" height="7" style="fill:#fff;"/></svg>