<?xml version="1.0" encoding="UTF-8" standalone="no"?><!DOCTYPE svg PUBLIC "-//W3C//DTD SVG 1.1//EN" "http://www.w3.org/Graphics/SVG/1.1/DTD/svg11.dtd"><svg width="100%" height="100%" viewBox="0 0 100 117" version="1.1" xmlns="http://www.w3.org/2000/svg" xmlns:xlink="http://www.w3.org/1999/xlink" xml:space="preserve" xmlns:serif="http://www.serif.com/" style="fill-rule:evenodd;clip-rule:evenodd;stroke-linejoin:round;stroke-miterlimit:1.41421;"><path d="M47.4,84.6c-0.6,-1.1 -13.9,-26.6 -13.9,-47c0,-21.5 15.8,-27.5 16.4,-27.7l0.5,5.5c-0.5,0.2 -12,4.5 -12,22.3c0,19.2 13.2,44.3 13.4,44.6l-4.4,2.3Z" style="fill:#fff;fill-rule:nonzero;"/><path d="M51.7,84.4l-4.4,-2.3c0.1,-0.3 13.4,-25.5 13.4,-44.6c0,-17.8 -11.5,-22.1 -12,-22.3l1.1,-5.3c-0.8,0 15.8,6 15.8,27.6c0.1,20.3 -13.3,45.8 -13.9,46.9Z" style="fill:#fff;fill-rule:nonzero;"/><path d="M94.9,115l-47.8,0l0,-31.6l5,0l0,26.6l37.8,0l0,-9.4l5,0l0,14.4Z" style="fill:#fff;fill-rule:nonzero;"/><path d="M13.271,0.004l-3.041,3.969l16.114,12.346l3.041,-3.969l-16.114,-12.346Z" style="fill:#9ffcc6;"/><path d="M0.918,29.213l-0.893,4.919l19.973,3.626l0.893,-4.92l-19.973,-3.625Z" style="fill:#9ffcc6;"/><path d="M26.415,50.806l-16.112,12.347l3.041,3.968l16.112,-12.346l-3.041,-3.969Z" style="fill:#9ffcc6;"/><path d="M85.571,0.648l-16.112,12.346l3.041,3.969l16.112,-12.347l-3.041,-3.968Z" style="fill:#9ffcc6;"/><path d="M97.987,29.923l-19.973,3.628l0.894,4.919l19.973,-3.627l-0.894,-4.92Z" style="fill:#9ffcc6;"/><path d="M72.504,51.368l-3.041,3.969l16.114,12.346l3.041,-3.969l-16.114,-12.346Z" style="fill:#9ffcc6;"/></svg>