<?xml version="1.0" encoding="UTF-8" standalone="no"?><!DOCTYPE svg PUBLIC "-//W3C//DTD SVG 1.1//EN" "http://www.w3.org/Graphics/SVG/1.1/DTD/svg11.dtd"><svg width="100%" height="100%" viewBox="0 0 114 114" version="1.1" xmlns="http://www.w3.org/2000/svg" xmlns:xlink="http://www.w3.org/1999/xlink" xml:space="preserve" xmlns:serif="http://www.serif.com/" style="fill-rule:evenodd;clip-rule:evenodd;stroke-linejoin:round;stroke-miterlimit:1.41421;"><circle cx="56.4" cy="56.9" r="9.2" style="fill:#fff;"/><path d="M40,58.6c-4.2,-2.6 -16.5,-8.8 -23.6,-6.3c-2.4,0.8 -3.9,2.6 -4.9,5.3l-3.8,-1.3c1.3,-3.9 3.8,-6.5 7.4,-7.8c10.4,-3.7 26.5,6.3 27.2,6.7l-2.3,3.4Z" style="fill:#fff;fill-rule:nonzero;"/><path d="M13.9,80.6c-0.8,-4.1 0,-7.6 2.5,-10.4c7.2,-8.4 26.1,-7.8 26.9,-7.8l-0.1,4.1c-4.9,-0.2 -18.8,0.6 -23.6,6.3c-1.6,1.9 -2.1,4.2 -1.6,7l-4.1,0.8Z" style="fill:#fff;fill-rule:nonzero;"/><path d="M31.5,98.7c-2.7,-3.1 -3.7,-6.6 -3.1,-10.3c2,-10.8 18.7,-19.8 19.4,-20.2l1.9,3.6c-4.3,2.3 -15.9,9.9 -17.3,17.3c-0.5,2.5 0.2,4.7 2.1,6.9l-3,2.7Z" style="fill:#fff;fill-rule:nonzero;"/><path d="M55.7,105.6c-3.9,-1.3 -6.5,-3.8 -7.8,-7.4c-3.7,-10.4 6.3,-26.5 6.7,-27.2l3.4,2.2c-2.6,4.2 -8.8,16.5 -6.3,23.6c0.8,2.4 2.6,3.9 5.3,4.9l-1.3,3.9Z" style="fill:#fff;fill-rule:nonzero;"/><path d="M77.3,99.6c-2.9,0 -5.4,-0.9 -7.6,-2.8c-8.4,-7.1 -7.8,-26 -7.7,-26.8l4.1,0.1c-0.2,4.9 0.6,18.7 6.3,23.6c1.9,1.6 4.2,2.1 7,1.6l0.8,4c-1,0.3 -2,0.3 -2.9,0.3Z" style="fill:#fff;fill-rule:nonzero;"/><path d="M90.1,85c-0.7,0 -1.5,-0.1 -2.2,-0.2c-10.8,-2 -19.8,-18.7 -20.2,-19.4l3.6,-1.9c2.3,4.3 9.9,15.9 17.3,17.3c2.5,0.5 4.7,-0.2 6.9,-2.1l2.7,3.1c-2.5,2.1 -5.2,3.2 -8.1,3.2Z" style="fill:#fff;fill-rule:nonzero;"/><path d="M92.5,66.1c-9.8,0 -21.4,-7.2 -22,-7.5l2.2,-3.4c4.2,2.6 16.6,8.8 23.6,6.3c2.4,-0.8 3.9,-2.6 4.9,-5.3l3.8,1.3c-1.3,3.9 -3.8,6.5 -7.4,7.8c-1.5,0.6 -3.3,0.8 -5.1,0.8Z" style="fill:#fff;fill-rule:nonzero;"/><path d="M70.8,51.3c-0.7,0 -1.2,0 -1.3,0l0.1,-4.1c4.9,0.2 18.7,-0.6 23.6,-6.3c1.6,-1.9 2.1,-4.2 1.6,-7l4,-0.8c0.8,4.1 0,7.6 -2.5,10.4c-6.1,7.2 -20.9,7.8 -25.5,7.8Z" style="fill:#fff;fill-rule:nonzero;"/><path d="M65,45.4l-2,-3.6c4.3,-2.3 15.9,-9.9 17.3,-17.3c0.5,-2.5 -0.2,-4.7 -2.1,-6.9l3.1,-2.7c2.7,3.1 3.7,6.6 3.1,10.3c-2.1,10.9 -18.7,19.9 -19.4,20.2Z" style="fill:#fff;fill-rule:nonzero;"/><path d="M58.1,42.7l-3.4,-2.2c2.6,-4.2 8.8,-16.5 6.3,-23.6c-0.8,-2.4 -2.6,-3.9 -5.3,-4.9l1.3,-3.8c3.9,1.3 6.5,3.8 7.8,7.4c3.7,10.3 -6.3,26.4 -6.7,27.1Z" style="fill:#fff;fill-rule:nonzero;"/><path d="M50.8,43.7l-4.1,-0.1c0.2,-4.9 -0.6,-18.7 -6.3,-23.6c-1.9,-1.6 -4.2,-2.1 -7,-1.6l-0.8,-4c4.1,-0.8 7.6,0 10.4,2.5c8.4,7.1 7.8,26 7.8,26.8Z" style="fill:#fff;fill-rule:nonzero;"/><path d="M41.4,50.2c-2.3,-4.3 -9.9,-15.9 -17.3,-17.3c-2.5,-0.5 -4.7,0.2 -6.9,2.1l-2.7,-3.1c3.1,-2.7 6.6,-3.7 10.3,-3.1c10.8,2 19.8,18.7 20.2,19.4l-3.6,2Z" style="fill:#fff;fill-rule:nonzero;"/><path d="M56.7,105.8c-27.1,0 -49.1,-22 -49.1,-49.1c0,-27.1 22,-49.1 49.1,-49.1c27.1,0 49.1,22 49.1,49.1c0,27 -22,49.1 -49.1,49.1Zm0,-94.1c-24.8,0 -45,20.2 -45,45c0,24.8 20.2,45 45,45c24.8,0 45,-20.2 45,-45c0,-24.8 -20.2,-45 -45,-45Z" style="fill:#fff;fill-rule:nonzero;"/><path d="M56.7,113.4c-31.3,0 -56.7,-25.4 -56.7,-56.7c0,-31.3 25.4,-56.7 56.7,-56.7c31.3,0 56.7,25.4 56.7,56.7c0,31.3 -25.4,56.7 -56.7,56.7Zm0,-109.3c-29,0 -52.6,23.6 -52.6,52.6c0,29 23.6,52.6 52.6,52.6c29,0 52.6,-23.6 52.6,-52.6c0,-29 -23.6,-52.6 -52.6,-52.6Z" style="fill:#fff;fill-rule:nonzero;"/></svg>